<svg xmlns="http://www.w3.org/2000/svg" xmlns:xlink="http://www.w3.org/1999/xlink" width="200" height="200" viewBox="0 0 200 200">
  <defs>
    <style>
      .a7cca599-ad5f-406a-b8df-91b83e3adb4b {
        fill: #fff;
      }

      .abc7bbbe-de20-49f5-a3bf-6802b09ac18c {
        fill: url(#304ebf48-a11f-4505-96fa-7e3a0aed2ca1);
      }

      .\37 1ea3dfe-7d1c-4b35-834f-0fdb1e48c48d {
        clip-path: url(#3be1e90d-e91e-4adc-a368-545e6df1ee4f);
      }
    </style>
    <linearGradient id="304ebf48-a11f-4505-96fa-7e3a0aed2ca1" data-name="New Gradient Swatch 16" x1="29.29" y1="170.71" x2="170.71" y2="29.29" gradientUnits="userSpaceOnUse">
      <stop offset="0" stop-color="#86d169"/>
      <stop offset="1" stop-color="#41b782"/>
    </linearGradient>
    <clipPath id="3be1e90d-e91e-4adc-a368-545e6df1ee4f">
      <circle class="a7cca599-ad5f-406a-b8df-91b83e3adb4b" cx="100" cy="118.52" r="5.75"/>
    </clipPath>
  </defs>
  <title>alert-o</title>
  <g id="677095cb-2f81-4ad5-ac75-49638c656b83" data-name="Layer 2">
    <g id="69e1a8d6-60a9-4368-9533-4d64ac4073a2" data-name="Layer 1">
      <g>
        <circle class="abc7bbbe-de20-49f5-a3bf-6802b09ac18c" cx="100" cy="100" r="100"/>
        <g>
          <path class="a7cca599-ad5f-406a-b8df-91b83e3adb4b" d="M163,143.19H37.05a3.83,3.83,0,0,1-3.3-5.78l63-106.34a3.84,3.84,0,0,1,6.6,0l63,106.34a3.83,3.83,0,0,1-3.3,5.78ZM45.08,135.53H154.92a.75.75,0,0,0,.64-1.13L100.65,41.63a.76.76,0,0,0-1.3,0L44.44,134.4A.75.75,0,0,0,45.08,135.53Z"/>
          <g>
            <rect class="a7cca599-ad5f-406a-b8df-91b83e3adb4b" x="96.17" y="70.26" width="7.66" height="35.44" rx="0.75" ry="0.75"/>
            <g>
              <circle class="a7cca599-ad5f-406a-b8df-91b83e3adb4b" cx="100" cy="118.52" r="5.75"/>
              <g class="71ea3dfe-7d1c-4b35-834f-0fdb1e48c48d">
                <path class="a7cca599-ad5f-406a-b8df-91b83e3adb4b" d="M94.25,112.77v0Z"/>
                <rect class="a7cca599-ad5f-406a-b8df-91b83e3adb4b" x="94.25" y="112.77" width="0.24" height="11.49"/>
                <rect class="a7cca599-ad5f-406a-b8df-91b83e3adb4b" x="94.49" y="112.77" width="0.24" height="11.49"/>
                <rect class="a7cca599-ad5f-406a-b8df-91b83e3adb4b" x="94.73" y="112.77" width="0.24" height="11.49"/>
                <rect class="a7cca599-ad5f-406a-b8df-91b83e3adb4b" x="94.97" y="112.77" width="0.24" height="11.49"/>
                <rect class="a7cca599-ad5f-406a-b8df-91b83e3adb4b" x="95.21" y="112.77" width="0.24" height="11.49"/>
                <rect class="a7cca599-ad5f-406a-b8df-91b83e3adb4b" x="95.45" y="112.77" width="0.24" height="11.49"/>
                <rect class="a7cca599-ad5f-406a-b8df-91b83e3adb4b" x="95.69" y="112.77" width="0.24" height="11.49"/>
                <rect class="a7cca599-ad5f-406a-b8df-91b83e3adb4b" x="95.93" y="112.77" width="0.24" height="11.49"/>
                <rect class="a7cca599-ad5f-406a-b8df-91b83e3adb4b" x="96.17" y="112.77" width="0.24" height="11.49"/>
                <rect class="a7cca599-ad5f-406a-b8df-91b83e3adb4b" x="96.41" y="112.77" width="0.24" height="11.49"/>
                <rect class="a7cca599-ad5f-406a-b8df-91b83e3adb4b" x="96.65" y="112.77" width="0.24" height="11.49"/>
                <rect class="a7cca599-ad5f-406a-b8df-91b83e3adb4b" x="96.89" y="112.77" width="0.24" height="11.49"/>
                <rect class="a7cca599-ad5f-406a-b8df-91b83e3adb4b" x="97.13" y="112.77" width="0.24" height="11.49"/>
                <rect class="a7cca599-ad5f-406a-b8df-91b83e3adb4b" x="97.37" y="112.77" width="0.24" height="11.49"/>
                <rect class="a7cca599-ad5f-406a-b8df-91b83e3adb4b" x="97.61" y="112.77" width="0.24" height="11.49"/>
                <rect class="a7cca599-ad5f-406a-b8df-91b83e3adb4b" x="97.85" y="112.77" width="0.24" height="11.49"/>
                <rect class="a7cca599-ad5f-406a-b8df-91b83e3adb4b" x="98.08" y="112.77" width="0.24" height="11.49"/>
                <rect class="a7cca599-ad5f-406a-b8df-91b83e3adb4b" x="98.32" y="112.77" width="0.24" height="11.49"/>
                <rect class="a7cca599-ad5f-406a-b8df-91b83e3adb4b" x="98.56" y="112.77" width="0.24" height="11.49"/>
                <rect class="a7cca599-ad5f-406a-b8df-91b83e3adb4b" x="98.8" y="112.77" width="0.24" height="11.49"/>
                <rect class="a7cca599-ad5f-406a-b8df-91b83e3adb4b" x="99.04" y="112.77" width="0.24" height="11.49"/>
                <rect class="a7cca599-ad5f-406a-b8df-91b83e3adb4b" x="99.28" y="112.77" width="0.24" height="11.49"/>
                <rect class="a7cca599-ad5f-406a-b8df-91b83e3adb4b" x="99.52" y="112.77" width="0.24" height="11.49"/>
                <rect class="a7cca599-ad5f-406a-b8df-91b83e3adb4b" x="99.76" y="112.77" width="0.24" height="11.49"/>
                <rect class="a7cca599-ad5f-406a-b8df-91b83e3adb4b" x="100" y="112.77" width="0.24" height="11.49"/>
                <rect class="a7cca599-ad5f-406a-b8df-91b83e3adb4b" x="100.24" y="112.77" width="0.24" height="11.49"/>
                <rect class="a7cca599-ad5f-406a-b8df-91b83e3adb4b" x="100.48" y="112.77" width="0.24" height="11.49"/>
                <rect class="a7cca599-ad5f-406a-b8df-91b83e3adb4b" x="100.72" y="112.77" width="0.24" height="11.49"/>
                <rect class="a7cca599-ad5f-406a-b8df-91b83e3adb4b" x="100.96" y="112.77" width="0.24" height="11.49"/>
                <rect class="a7cca599-ad5f-406a-b8df-91b83e3adb4b" x="101.2" y="112.77" width="0.24" height="11.49"/>
                <rect class="a7cca599-ad5f-406a-b8df-91b83e3adb4b" x="101.44" y="112.77" width="0.24" height="11.49"/>
                <rect class="a7cca599-ad5f-406a-b8df-91b83e3adb4b" x="101.68" y="112.77" width="0.24" height="11.49"/>
                <rect class="a7cca599-ad5f-406a-b8df-91b83e3adb4b" x="101.92" y="112.77" width="0.24" height="11.49"/>
                <rect class="a7cca599-ad5f-406a-b8df-91b83e3adb4b" x="102.15" y="112.77" width="0.24" height="11.49"/>
                <rect class="a7cca599-ad5f-406a-b8df-91b83e3adb4b" x="102.39" y="112.77" width="0.24" height="11.49"/>
                <rect class="a7cca599-ad5f-406a-b8df-91b83e3adb4b" x="102.63" y="112.77" width="0.24" height="11.49"/>
                <rect class="a7cca599-ad5f-406a-b8df-91b83e3adb4b" x="102.87" y="112.77" width="0.24" height="11.49"/>
                <rect class="a7cca599-ad5f-406a-b8df-91b83e3adb4b" x="103.11" y="112.77" width="0.24" height="11.49"/>
                <rect class="a7cca599-ad5f-406a-b8df-91b83e3adb4b" x="103.35" y="112.77" width="0.24" height="11.49"/>
                <rect class="a7cca599-ad5f-406a-b8df-91b83e3adb4b" x="103.59" y="112.77" width="0.24" height="11.49"/>
                <rect class="a7cca599-ad5f-406a-b8df-91b83e3adb4b" x="103.83" y="112.77" width="0.24" height="11.49"/>
                <rect class="a7cca599-ad5f-406a-b8df-91b83e3adb4b" x="104.07" y="112.77" width="0.24" height="11.49"/>
                <rect class="a7cca599-ad5f-406a-b8df-91b83e3adb4b" x="104.31" y="112.77" width="0.24" height="11.49"/>
                <rect class="a7cca599-ad5f-406a-b8df-91b83e3adb4b" x="104.55" y="112.77" width="0.24" height="11.49"/>
                <rect class="a7cca599-ad5f-406a-b8df-91b83e3adb4b" x="104.79" y="112.77" width="0.24" height="11.49"/>
                <rect class="a7cca599-ad5f-406a-b8df-91b83e3adb4b" x="105.03" y="112.77" width="0.24" height="11.49"/>
                <rect class="a7cca599-ad5f-406a-b8df-91b83e3adb4b" x="105.27" y="112.77" width="0.24" height="11.49"/>
                <rect class="a7cca599-ad5f-406a-b8df-91b83e3adb4b" x="105.51" y="112.77" width="0.24" height="11.49"/>
                <path class="a7cca599-ad5f-406a-b8df-91b83e3adb4b" d="M105.75,124.26v0Z"/>
              </g>
            </g>
          </g>
        </g>
      </g>
    </g>
  </g>
</svg>
