<?xml version="1.0" encoding="UTF-8"?>
<svg width="320px" height="194px" viewBox="0 0 320 194" version="1.1" xmlns="http://www.w3.org/2000/svg" xmlns:xlink="http://www.w3.org/1999/xlink">
    <!-- Generator: Sketch 49.2 (51160) - http://www.bohemiancoding.com/sketch -->
    <title>Group 5</title>
    <desc>Created with Sketch.</desc>
    <defs>
        <rect id="path-1" x="0" y="0" width="426.872657" height="183.528983"></rect>
        <polygon id="path-3" points="0.154165765 0.148720443 122.492393 0.148720443 122.492393 152.294124 0.154165765 152.294124"></polygon>
        <path d="M44.516208,4 L277.963873,4 L277.963873,124.691955 C277.963873,131.319372 272.59129,136.691955 265.963873,136.691955 L56.516208,136.691955 C49.888791,136.691955 44.516208,131.319372 44.516208,124.691955 L44.516208,4 Z" id="path-5"></path>
    </defs>
    <g id="Webpages" stroke="none" stroke-width="1" fill="none" fill-rule="evenodd">
        <g id="Mobile" transform="translate(0.000000, -10.000000)">
            <g id="Group-5" transform="translate(-45.320929, 9.970449)">
                <g id="Page-1" opacity="0.196614583" transform="translate(1.122904, 10.000000)">
                    <mask id="mask-2" fill="white">
                        <use xlink:href="#path-1"></use>
                    </mask>
                    <use id="Mask" fill="#FFFFFF" xlink:href="#path-1"></use>
                    <g mask="url(#mask-2)">
                        <g transform="translate(0.000000, 4.084906)">
                            <path d="M331.452244,64.0916212 C331.267814,64.0916212 331.082123,64.0313348 330.927311,63.906771 C330.565173,63.616472 330.506987,63.0877582 330.797496,62.7258298 L343.57296,46.7942573 C343.586824,46.7770327 343.601108,46.7604381 343.616232,46.7442637 L346.62362,43.5453038 C346.653238,43.5137952 346.685587,43.4843872 346.719826,43.4579201 L348.545852,42.0375138 C348.912192,41.7520462 349.440066,41.8184242 349.724903,42.1847638 C350.009951,42.5511034 349.943783,43.078977 349.577653,43.3638145 L347.80309,44.7443099 L344.863341,47.8712202 L332.108252,63.7769557 C331.942307,63.9838619 331.698431,64.0916212 331.452244,64.0916212" id="Fill-1" fill="#39B982"></path>
                            <path d="M412.884249,128.161922 C412.682594,128.161922 412.480309,128.089662 412.319405,127.943462 L389.973948,107.63619 C389.880473,107.551537 389.807583,107.446718 389.76011,107.329506 L378.737783,80.086988 L360.493692,71.8876183 C360.284895,71.7937228 360.123361,71.6185351 360.04648,71.4030165 L352.720528,50.8312822 L348.331384,43.1160941 C348.149895,42.7970173 348.196527,42.3970686 348.446705,42.1281954 C348.696883,41.8595324 349.092631,41.7839118 349.423891,41.9425049 L351.858873,43.1051711 C351.964112,43.1553748 352.058008,43.2270043 352.134048,43.3156484 L375.536512,70.5411521 L388.833338,83.1777686 C388.872199,83.2147386 388.907698,83.2556998 388.938997,83.2996017 L418.052074,124.196043 C418.321157,124.573936 418.232723,125.098659 417.85462,125.367742 C417.476938,125.636825 416.952005,125.548811 416.682922,125.170498 L387.616897,84.3400146 L374.348219,71.7302855 C374.327844,71.7107502 374.308308,71.6901646 374.290033,71.6689488 L351.278906,44.8986388 L354.217605,50.0645737 C354.241971,50.1072153 354.262347,50.1519574 354.278941,50.19817 L361.509528,70.5016614 L379.734714,78.6924188 C379.932168,78.781273 380.08782,78.943017 380.169112,79.1438316 L391.245844,106.521627 L413.449512,126.699924 C413.792956,127.011859 413.818373,127.543513 413.506228,127.886747 C413.340493,128.069286 413.112791,128.161922 412.884249,128.161922" id="Fill-3" fill="#39B982"></path>
                            <path d="M208.171294,84.3280834 C207.986863,84.3280834 207.801173,84.267797 207.646361,84.1432331 C207.284222,83.8529342 207.226037,83.3242204 207.516546,82.962292 L218.291006,69.5261981 C218.384271,69.4096164 218.507154,69.3201321 218.646842,69.2667776 L223.937341,67.2479186 L226.795168,58.9987653 C226.826467,58.9078105 226.873309,58.8231575 226.933596,58.7483772 L229.350093,55.7348977 C229.509526,55.5359736 229.750462,55.4202321 230.005471,55.4202321 L233.926818,55.4204422 L235.376842,48.366934 C235.403729,48.2366986 235.460865,48.1144454 235.544047,48.0104671 L273.623203,0.524533643 C273.913922,0.162395162 274.442215,0.103999282 274.804354,0.394718341 C275.166282,0.685017285 275.224678,1.21373106 274.934169,1.57565949 L236.981888,48.90363 L235.435028,56.4299767 C235.354786,56.8204729 235.010712,57.1008992 234.612024,57.1008992 L230.408781,57.1006891 L228.335517,59.6860722 L225.396818,68.1683889 C225.315526,68.4030227 225.134667,68.5897635 224.902343,68.6784076 L219.459133,70.7554524 L208.827302,84.0134178 C208.661357,84.2203241 208.417481,84.3280834 208.171294,84.3280834" id="Fill-5" fill="#39B982"></path>
                            <g id="Group-9" stroke-width="1" fill="none" transform="translate(273.284318, 0.060917)">
                                <mask id="mask-4" fill="white">
                                    <use xlink:href="#path-3"></use>
                                </mask>
                                <g id="Clip-8"></g>
                                <path d="M109.690591,140.932134 C109.882163,140.932134 110.069113,140.997672 110.219304,141.119295 L118.642805,147.937329 L92.6434047,103.07669 L90.4955706,101.550625 L82.3138456,100.726361 C82.0378306,100.698633 81.7935341,100.536469 81.660778,100.293433 L74.8215281,87.7828509 L57.486564,63.6811066 C57.4739606,63.6638819 57.4621974,63.6460271 57.4512744,63.6279621 L53.433932,57.0403607 L49.8125471,57.0399406 C49.4865385,57.0399406 49.1899378,56.8513093 49.0517202,56.555969 L45.2089352,48.3511377 C45.2038939,48.3404248 45.1990625,48.3297119 45.1946513,48.3187889 L38.9418809,33.3641921 L19.4861801,26.255439 C19.3364094,26.2008241 19.2051237,26.104618 19.1078672,25.9777435 L5.09012522,7.70781508 L15.7284682,30.2763524 L26.9530807,34.9721794 C27.2290957,35.0877108 27.4227684,35.3412498 27.461839,35.6376404 L32.6414276,74.964325 L42.3918591,70.3023172 C42.6262829,70.1901467 42.8993572,70.1926674 43.1314703,70.3092491 C43.3633733,70.4258308 43.5284782,70.6432399 43.5788919,70.8980392 L54.2445424,125.108951 L63.1921356,120.982379 C63.3335041,120.917051 63.4910469,120.892265 63.6450188,120.91117 L67.9238824,121.429381 L67.742393,119.502107 C67.7089939,119.14732 67.9030867,118.809968 68.2269948,118.660408 L76.8265234,114.694529 C77.1166123,114.560723 77.4585853,114.603365 77.7068728,114.804389 L102.4808,134.855812 C102.581207,134.937314 102.661869,135.040872 102.715854,135.158714 L105.544273,141.323051 L109.610979,140.935915 C109.637446,140.933395 109.664123,140.932134 109.690591,140.932134 M121.652083,152.294124 C121.465133,152.294124 121.277762,152.231947 121.12358,152.106963 L109.428649,142.641369 L105.109035,143.052661 C104.758239,143.08669 104.415216,142.891547 104.265865,142.566379 L101.270451,136.038224 L77.0559058,116.439264 L69.4711632,119.937135 L69.694874,122.31036 C69.7186104,122.563479 69.6266054,122.813657 69.4442758,122.991156 C69.2621563,123.168654 69.010928,123.254147 68.757179,123.223059 L63.6794681,122.608221 L53.9779799,127.082018 C53.7446064,127.190618 53.4734227,127.184736 53.2440403,127.067524 C53.0146579,126.950102 52.8516536,126.734163 52.8018701,126.481465 L42.1391604,72.2856765 L32.3221408,76.979613 C32.0788946,77.0959847 31.7955276,77.0880025 31.5590032,76.9602878 C31.3224789,76.8319429 31.1615752,76.5979392 31.1264956,76.3313767 L25.8588931,36.3362904 L14.7817408,31.7020101 C14.5899586,31.6215582 14.4345164,31.4730479 14.3460823,31.2850467 L0.234444755,1.34728538 C0.051485001,0.95909982 0.190542817,0.495293691 0.557092497,0.271792912 C0.924062292,0.0478720184 1.40005173,0.136936239 1.66115274,0.47785895 L20.2925894,24.7610926 L39.8638217,31.9120672 C40.0837515,31.9925191 40.2601995,32.1609849 40.350524,32.3771337 L46.7383611,47.6543782 L50.3469325,55.3594836 L53.9057203,55.3599037 C54.1987499,55.3599037 54.4705639,55.5126152 54.6230653,55.7625832 L58.8693701,62.7257668 L76.2160974,86.8436855 C76.2360528,86.8718331 76.2545378,86.9010311 76.2711324,86.9312793 L82.9225912,99.0988382 L90.8852265,99.9008363 C91.030166,99.9153302 91.1690137,99.9674244 91.2879061,100.051867 L93.7655298,101.812776 C93.8636265,101.882515 93.9455488,101.97221 94.0058352,102.076188 L122.379091,151.032521 C122.582216,151.383106 122.506386,151.828848 122.198442,152.092259 C122.041529,152.226696 121.846806,152.294124 121.652083,152.294124" id="Fill-7" fill="#39B982" mask="url(#mask-4)"></path>
                            </g>
                            <path d="M379.774205,175.45288 C379.431391,175.45288 379.109374,175.241353 378.98481,174.90043 L377.537516,170.934761 L367.503928,149.618795 L364.085458,149.618795 C363.744115,149.618795 363.437222,149.412519 363.307827,149.096803 L349.685202,115.836778 C349.539633,115.481781 349.653063,115.07343 349.961007,114.844468 C350.268951,114.615086 350.692846,114.623698 350.991337,114.865264 L375.765054,134.916687 C375.865672,134.998189 375.946124,135.101747 376.000108,135.219589 L378.828528,141.383925 L382.895023,140.99658 C383.113273,140.975784 383.332152,141.041742 383.503349,141.17996 L395.465052,150.861703 C395.506013,150.894892 395.543613,150.931862 395.577642,150.971773 L396.130093,151.62442 C396.430054,151.978576 396.385942,152.508551 396.031786,152.808512 C395.677209,153.108474 395.147445,153.064362 394.847694,152.710205 L394.346287,152.118054 L382.712694,142.702034 L378.393499,143.113536 C378.042494,143.147565 377.699471,142.952422 377.55012,142.627253 L374.554705,136.099098 L352.483163,118.23479 L364.649252,147.938338 L368.037053,147.938338 C368.362431,147.938338 368.658612,148.126129 368.79725,148.420839 L379.074084,170.253336 C379.084797,170.276022 379.09467,170.299339 379.103282,170.323075 L380.563599,174.324453 C380.722613,174.760322 380.498062,175.242613 380.062193,175.401836 C379.967247,175.436496 379.869991,175.45288 379.774205,175.45288" id="Fill-10" fill="#39B982"></path>
                            <path d="M324.170614,57.1010672 L328.929038,76.3210839 L326.450994,57.1012773 L324.170614,57.1010672 Z M331.636674,91.5970681 C331.257521,91.5970681 330.916178,91.339118 330.821862,90.9584945 L322.28136,56.4624935 C322.219183,56.2118954 322.275898,55.9461731 322.435332,55.7426278 C322.594555,55.5392925 322.838431,55.4204002 323.097012,55.4204002 L327.189975,55.4208203 C327.61261,55.4208203 327.969287,55.7346456 328.023271,56.1534995 L332.470811,90.6490803 C332.527736,91.0908305 332.230085,91.5002318 331.792326,91.5823641 C331.740232,91.5922368 331.688138,91.5970681 331.636674,91.5970681 Z" id="Fill-12" fill="#39B982"></path>
                            <path d="M219.69467,70.665548 L218.563933,77.3411633 L222.793013,69.4833465 L219.69467,70.665548 Z M216.882005,83.0792938 C216.791471,83.0792938 216.699256,83.0643797 216.609351,83.0335013 C216.220325,82.899905 215.985272,82.5041574 216.05396,82.0985371 L218.117982,69.9114429 C218.167555,69.6182031 218.36879,69.3728564 218.646905,69.2667776 L224.303324,67.1082306 C224.631433,66.9836667 225.002814,67.0754617 225.234087,67.3388733 C225.46599,67.602495 225.509262,67.9824883 225.342896,68.2914824 L217.622247,82.6369135 C217.472266,82.9154492 217.184278,83.0792938 216.882005,83.0792938 Z" id="Fill-14" fill="#39B982"></path>
                            <path d="M230.904411,57.1006471 L232.125473,75.1817341 L233.69565,57.1008571 L230.904411,57.1006471 Z M232.020864,86.9405218 L232.012672,86.9405218 C231.573863,86.9361106 231.211934,86.5947678 231.182316,86.1567987 L229.167028,56.317134 C229.151484,56.0848108 229.232776,55.8566888 229.391789,55.6867526 C229.550593,55.5166063 229.772833,55.4201901 230.005576,55.4201901 L234.611919,55.4204002 C234.847393,55.4204002 235.072154,55.5193371 235.231377,55.6928442 C235.390391,55.8663514 235.469372,56.0986746 235.449207,56.3333084 L232.857942,86.172763 C232.820132,86.6075813 232.456313,86.9405218 232.020864,86.9405218 Z" id="Fill-16" fill="#39B982"></path>
                            <path d="M222.879787,94.89883 L231.075586,105.357784 L224.497437,95.586347 C224.410894,95.4580021 224.36174,95.3078112 224.355019,95.1532092 L224.074382,88.5744301 L222.879787,94.89883 Z M236.770025,113.150904 C236.499681,113.150904 236.234379,113.020668 236.072215,112.779733 L231.297827,105.687784 C231.443186,106.029127 231.34824,106.438318 231.042397,106.677783 C230.677528,106.963881 230.149024,106.900024 229.862926,106.534734 L221.322004,95.6355003 C221.172653,95.4449785 221.112787,95.1992117 221.157739,94.961427 L223.777151,81.0938759 C223.856343,80.6741817 224.238227,80.3786314 224.663383,80.4118204 C225.089168,80.4424887 225.424209,80.7874025 225.442274,81.2140285 L226.023922,94.8446353 L237.466154,111.841407 C237.725365,112.226232 237.623277,112.748434 237.238242,113.007645 C237.094563,113.104481 236.931349,113.150904 236.770025,113.150904 Z" id="Fill-18" fill="#39B982"></path>
                            <path d="M367.360942,128.114533 L369.945905,130.206912 L363.400735,101.573185 L356.954082,100.923898 L367.360942,128.114533 Z M371.306865,133.229634 C371.118654,133.229634 370.931283,133.166617 370.778151,133.042473 L366.128327,129.278879 C366.013426,129.185824 365.924992,129.064201 365.872267,128.925983 L354.897623,100.251506 C354.793434,99.9794817 354.837756,99.6725882 355.014835,99.4408952 C355.191913,99.2094122 355.479481,99.0858987 355.766419,99.1153067 L364.169544,99.9618369 C364.528532,99.9977566 364.824082,100.258858 364.904534,100.610283 L372.125878,132.202034 C372.205489,132.551359 372.055299,132.912868 371.751136,133.102339 C371.614599,133.187412 371.460417,133.229634 371.306865,133.229634 Z" id="Fill-20" fill="#39B982"></path>
                            <path d="M338.029658,122.798071 L342.04637,135.289538 L341.344359,123.1997 L338.029658,122.798071 Z M343.267432,142.673256 C342.908654,142.673256 342.581385,142.442823 342.468165,142.090347 L336.028443,122.063501 C335.94064,121.790847 335.997775,121.492146 336.180105,121.271166 C336.362434,121.050816 336.64265,120.938225 336.929378,120.972254 L342.243824,121.61587 C342.647133,121.664603 342.957808,121.995443 342.981334,122.401273 L344.10682,141.784504 C344.131397,142.206509 343.837947,142.581461 343.422244,142.658972 C343.37036,142.668845 343.318476,142.673256 343.267432,142.673256 Z" id="Fill-24" fill="#39B982"></path>
                            <path d="M272.643223,72.9259096 C272.946126,72.9259096 273.225712,73.088914 273.374642,73.3527457 L284.543379,93.1231121 L278.196293,69.3209093 L259.055048,55.7999524 L267.922189,67.5423556 C268.124264,67.8101785 268.148001,68.1723169 267.982266,68.4640863 L265.440154,72.9343119 L272.642173,72.9259096 L272.643223,72.9259096 Z M287.053982,100.114863 C286.758432,100.114863 286.475065,99.9583709 286.321933,99.6876073 L272.15316,74.6069968 L263.995802,74.6164494 L263.994751,74.6164494 C263.69563,74.6164494 263.419405,74.4574361 263.268794,74.1992759 C263.117973,73.9404856 263.116292,73.6211987 263.264383,73.3607279 L266.248034,68.1139211 L254.463199,52.507307 C254.213862,52.1768871 254.242009,51.7139212 254.530208,51.4164803 C254.818616,51.1192495 255.280532,51.0755576 255.618514,51.3148127 L279.414205,68.1242139 C279.574898,68.2376447 279.69085,68.4037999 279.741474,68.5939016 L287.865433,99.057856 C287.974242,99.4666272 287.762715,99.892413 287.370748,100.052266 C287.2674,100.094488 287.159641,100.114863 287.053982,100.114863 Z" id="Fill-26" fill="#39B982"></path>
                            <path d="M326.097216,199.399791 C325.85397,199.399791 325.612404,199.294553 325.446459,199.091427 L271.602936,133.266667 L244.610806,121.325129 C244.51502,121.282698 244.428056,121.222832 244.354326,121.148681 L175.866041,52.1201297 L174.310568,52.1281118 L141.498175,93.0459791 C141.208086,93.4081176 140.679373,93.4667236 140.317234,93.1760045 C139.955306,92.8857056 139.89691,92.3567817 140.187419,91.9950634 L173.25041,50.764421 C173.408583,50.5667572 173.648048,50.4510158 173.901377,50.4497554 L176.209695,50.4379922 C176.436767,50.4319006 176.651655,50.5262162 176.810668,50.6862797 L245.4357,119.852629 L272.466271,131.810971 C272.586844,131.864326 272.693133,131.945408 272.776526,132.047495 L326.747132,198.027698 C327.041002,198.386896 326.987858,198.91603 326.62866,199.2099 C326.472588,199.337614 326.284377,199.399791 326.097216,199.399791" id="Fill-28" fill="#39B982"></path>
                            <path d="M181.761736,77.2189521 L238.430106,115.177745 L175.866062,52.1202767 L175.000627,52.1246879 L181.761736,77.2189521 Z M244.950279,121.396906 C244.788955,121.396906 244.626161,121.350693 244.483112,121.254907 L180.56483,78.4398041 C180.396154,78.3265833 180.274111,78.1564371 180.221177,77.9602437 L173.094359,51.5088004 C173.02651,51.2569419 173.079445,50.9880688 173.237408,50.7807424 C173.395581,50.5734161 173.640717,50.4511628 173.901398,50.4496924 L176.209716,50.4379292 C176.436788,50.4320476 176.651676,50.5263633 176.810689,50.6862167 L245.547262,119.964947 C245.851214,120.27142 245.87369,120.758332 245.598936,121.091273 C245.433831,121.291457 245.193526,121.396906 244.950279,121.396906 Z" id="Fill-30" fill="#39B982"></path>
                            <path d="M251.351959,225.324411 C251.140852,225.324411 250.929954,225.24543 250.76674,225.087047 L183.269085,159.547964 C183.183381,159.464781 183.116373,159.364374 183.072681,159.253464 L173.193065,134.205622 L150.501434,105.907987 L146.787624,105.354696 C146.455313,105.305333 146.18455,105.062507 146.099057,104.737549 L144.406836,98.3081201 L129.323054,79.4979249 L118.500491,82.3761276 L115.342703,86.3146986 L113.460801,92.0990416 C113.382449,92.3399772 113.19949,92.5325995 112.962965,92.6235543 L109.092033,94.1090782 L88.246804,120.103857 L87.2843223,125.166444 C87.224246,125.48174 86.9896122,125.735489 86.679988,125.819932 L82.8180878,126.873788 L78.2062836,132.624732 C77.9159847,132.986661 77.3870608,133.045267 77.0251324,132.754548 C76.663204,132.464249 76.6050182,131.935325 76.8953171,131.573396 L81.6778977,125.609665 C81.7888078,125.471027 81.9408892,125.37125 82.1120858,125.324617 L85.73137,124.336928 L86.6350357,119.584386 C86.6606627,119.449529 86.7190586,119.322865 86.804972,119.215736 L107.923065,92.8804541 C108.01654,92.7642925 108.138794,92.6750183 108.277641,92.6216638 L111.98662,91.1983167 L113.792061,85.6488175 C113.823359,85.5521913 113.872093,85.4622868 113.93553,85.3830953 L117.362402,81.1094831 C117.474362,80.9695851 117.628544,80.8691778 117.801841,80.8231752 L129.420101,77.733445 C129.742328,77.6483719 130.083881,77.7603323 130.291838,78.0197529 L145.829343,97.3960521 C145.903073,97.4878471 145.956638,97.594136 145.986676,97.7079869 L147.58311,103.774227 L151.07447,104.294328 C151.283897,104.325627 151.473998,104.434436 151.606124,104.599751 L174.583643,133.253643 C174.636157,133.319181 174.678799,133.392491 174.709677,133.470842 L184.569338,158.46848 L251.937178,223.881319 C252.270119,224.204597 252.277891,224.736461 251.954823,225.069402 C251.790138,225.239128 251.571049,225.324411 251.351959,225.324411" id="Fill-32" fill="#39B982"></path>
                            <path d="M176.35768,163.835734 L221.175048,196.354047 L183.26898,159.548048 C183.183276,159.464655 183.116478,159.364458 183.072786,159.253548 L173.19317,134.205496 L150.501539,105.908281 L146.787729,105.35478 C146.455208,105.305207 146.184445,105.062381 146.098952,104.737423 L144.407151,98.3084142 L131.029033,81.6254674 L139.772031,131.505002 L162.220206,137.573972 C162.445807,137.634889 162.635488,137.78676 162.744298,137.993456 L176.35768,163.835734 Z M230.177046,204.764314 C230.005219,204.764314 229.832552,204.71201 229.684042,204.604041 L175.212239,165.080742 C175.10784,165.004912 175.022347,164.906395 174.962061,164.792334 L161.42829,139.100457 L138.817321,132.987795 C138.502446,132.902512 138.265291,132.642881 138.209206,132.321704 L128.808519,78.6903392 C128.742352,78.3124465 128.940435,77.9377046 129.28997,77.7797416 C129.640556,77.6215686 130.052058,77.7207156 130.291733,78.0198369 L145.829658,97.3963462 C145.903388,97.4881412 145.956743,97.59422 145.986781,97.708071 L147.583215,103.774311 L151.074995,104.294832 C151.284212,104.325921 151.474103,104.43515 151.606439,104.600255 L174.583538,133.253517 C174.636262,133.319265 174.678904,133.392365 174.709572,133.470716 L184.569653,158.468354 L230.762685,203.321222 C231.079031,203.628325 231.104238,204.127421 230.820451,204.464773 C230.654926,204.661386 230.417141,204.764314 230.177046,204.764314 Z" id="Fill-34" fill="#39B982"></path>
                            <path d="M147.971254,105.531123 L149.762831,114.438386 L150.083378,105.845999 L147.971254,105.531123 Z M150.337757,122.399551 C149.940959,122.399551 149.594155,122.119965 149.514543,121.725057 L146.087671,104.689424 C146.033687,104.420971 146.113929,104.143276 146.30256,103.944772 C146.491191,103.746478 146.764055,103.652583 147.035449,103.692703 L151.074848,104.294727 C151.498323,104.357744 151.806687,104.729335 151.790722,105.157222 L151.177986,121.590621 C151.162021,122.016196 150.830341,122.362581 150.406026,122.39682 C150.382919,122.39871 150.360233,122.399551 150.337757,122.399551 Z" id="Fill-36" fill="#39B982"></path>
                            <path d="M109.396448,93.9923495 L109.048803,102.730516 L111.451016,93.203585 L109.396448,93.9923495 Z M107.888658,111.60984 C107.848747,111.60984 107.808206,111.60711 107.767875,111.601228 C107.341879,111.539681 107.031204,111.16641 107.048219,110.736213 L107.739097,93.372681 C107.75254,93.0372198 107.964278,92.7418795 108.277683,92.6217268 L112.360564,91.0547006 C112.654013,90.9419 112.984853,91.0023964 113.219277,91.210563 C113.453911,91.4187296 113.553268,91.7403271 113.476597,92.0446999 L108.702629,110.975258 C108.607263,111.352731 108.268021,111.60984 107.888658,111.60984 Z" id="Fill-38" fill="#39B982"></path>
                            <path d="M84.9323757,141.228525 L84.9712363,141.396151 C84.9643044,141.085056 84.9949727,141.008385 85.0287919,140.923522 C85.1512552,140.616629 87.0346274,135.660541 88.1021377,132.848506 L85.9053603,126.031312 L83.5367562,126.677658 L86.5632592,132.82498 C86.646862,132.995126 86.6705984,133.188379 86.6306876,133.373649 L84.9323757,141.228525 Z M87.0856713,152.652902 C86.6939148,152.652902 86.3498412,152.378777 86.2658183,151.992062 C85.9244755,151.950891 85.6295553,151.701133 85.547633,151.346977 L83.252759,141.424088 C83.2248214,141.303305 83.2239811,141.178111 83.2500282,141.057118 L84.9262841,133.30454 L81.5794439,126.506251 C81.4687438,126.28128 81.4641226,126.018499 81.5672606,125.789957 C81.6703986,125.561204 81.870163,125.390638 82.1121488,125.32447 L86.2376707,124.198774 C86.6712286,124.081772 87.1205408,124.324178 87.2585483,124.751854 L89.7920473,132.613662 C89.8504431,132.795362 89.8454018,132.991135 89.7775533,133.169683 C89.6613917,133.476367 87.0720176,140.296502 86.6426608,141.410014 C86.6603056,141.846513 86.8424251,143.741648 87.919388,151.700083 C87.9815649,152.159688 87.6591272,152.583163 87.1993122,152.64534 C87.1610818,152.650381 87.1232715,152.652902 87.0856713,152.652902 Z" id="Fill-40" fill="#39B982"></path>
                            <path d="M143.821197,176.372489 L164.451327,195.144874 L147.834548,175.178104 C147.770901,175.101644 147.721328,175.01447 147.688139,174.920784 L139.040297,150.453331 L123.916184,142.560014 C123.672938,142.43314 123.506993,142.195565 123.471703,141.923541 L118.858009,106.399521 L118.858009,145.175645 L130.22588,151.409721 C130.368299,151.487652 130.48488,151.605284 130.561761,151.747913 L143.821197,176.372489 Z M172.850461,204.76423 C172.647966,204.76423 172.445681,204.69134 172.284988,204.545351 L142.583961,177.518771 C142.513802,177.454703 142.454775,177.379293 142.409823,177.29569 L129.200171,152.763539 L117.61384,146.409731 C117.344757,146.262271 117.177552,145.979954 117.177552,145.673271 L117.177552,93.4060171 C117.177552,92.9630066 117.521625,92.5962468 117.963585,92.5676791 C118.406806,92.5359605 118.793941,92.8588183 118.851077,93.2978376 L125.081791,141.272784 L140.111168,149.116737 C140.299589,149.215044 140.443899,149.381199 140.514688,149.581594 L149.222396,174.218984 L173.496177,203.386675 C173.778704,203.725918 173.750346,204.226064 173.431479,204.531277 C173.269105,204.686299 173.059888,204.76423 172.850461,204.76423 Z" id="Fill-42" fill="#39B982"></path>
                            <path d="M169.633184,232.804209 C169.422077,232.804209 169.21118,232.725228 169.047965,232.566845 L83.8069947,149.799507 C83.7212914,149.716114 83.6542831,149.615917 83.6105913,149.504797 L73.7309746,124.456745 L30.0624092,70.000276 L1.38751132,94.6164502 C1.03524553,94.9185124 0.505061348,94.8783915 0.20257909,94.5261257 C-0.0994830537,94.1738599 -0.059152086,93.6436757 0.292903653,93.3411934 L29.6269608,68.1591254 C29.8000479,68.010825 30.0260694,67.9389855 30.2520908,67.9602013 C30.4789525,67.981207 30.6873292,68.0933775 30.8297479,68.2712959 L75.1215527,123.504766 C75.174067,123.570304 75.2167086,123.643614 75.247587,123.721965 L85.1072483,148.719813 L170.218404,231.361117 C170.551344,231.684395 170.559326,232.216259 170.236048,232.5492 C170.071364,232.718926 169.852274,232.804209 169.633184,232.804209" id="Fill-46" fill="#39B982"></path>
                            <path d="M76.8958422,154.087151 L121.713,186.605464 L83.8069317,149.799465 C83.7212284,149.716072 83.6544302,149.615875 83.6107383,149.504965 L73.7313317,124.456913 L31.5671955,71.8768844 L40.3101931,121.756419 L62.7583677,127.825389 C62.983969,127.886306 63.1736506,128.038177 63.2824602,128.244873 L76.8958422,154.087151 Z M130.715208,195.015731 C130.543591,195.015731 130.370714,194.963427 130.222204,194.855457 L75.7504007,155.332159 C75.6460024,155.256329 75.5605091,155.157812 75.5002227,155.043751 L61.9664523,129.351874 L39.3554834,123.239212 C39.0406078,123.153929 38.8034533,122.894298 38.747158,122.573121 L29.3468917,68.9417562 C29.2805136,68.5638634 29.4785975,68.1891215 29.8281325,68.0311586 C30.1780877,67.8727755 30.5902198,67.9721325 30.8296849,68.2712538 L75.1216998,123.504934 C75.1744241,123.570682 75.2170657,123.643782 75.2477341,123.722133 L85.1073953,148.719771 L131.300847,193.572639 C131.617193,193.879742 131.6424,194.378838 131.358613,194.71619 C131.193088,194.912803 130.955303,195.015731 130.715208,195.015731 Z" id="Fill-48" fill="#39B982"></path>
                        </g>
                    </g>
                </g>
                <g id="Group-6" transform="translate(44.080889, 0.161967)">
                    <path d="M161.240041,129.814168 L161.240041,189.367584" id="Line-5" stroke="#36495E" stroke-linecap="square"></path>
                    <path d="M186.819675,116.628574 L161.272796,143.083142" id="Line-5-Copy" stroke="#36495E" stroke-linecap="square"></path>
                    <path d="M134.818228,117.536263 L161.272796,143.083142" id="Line-5-Copy-2" stroke="#36495E" stroke-linecap="square"></path>
                    <g id="Rectangle-11">
                        <use fill="#FFFFFF" fill-rule="evenodd" xlink:href="#path-5"></use>
                        <path stroke="#36495E" stroke-width="1" d="M45.016208,4.5 L45.016208,124.691955 C45.016208,131.043229 50.1649333,136.191955 56.516208,136.191955 L265.963873,136.191955 C272.315148,136.191955 277.463873,131.043229 277.463873,124.691955 L277.463873,4.5 L45.016208,4.5 Z"></path>
                    </g>
                    <rect id="Rectangle-12" fill="#36495E" x="42.2802006" y="0.619910427" width="237.981566" height="3.38008957" rx="1.69004479"></rect>
                    <g id="Group-3" transform="translate(138.531370, 21.196285)">
                        <polygon id="Path-6" fill="#39B982" points="19.1964896 32.7158679 38.2721767 0.0271377315 30.5779919 0.0271377315 19.1964896 19.7801797 7.67857926 0.0271377315 0.0230549738 0.0271377315"></polygon>
                        <polygon id="Path-7" fill="#34495F" points="30.6218567 0.064311298 19.1767105 19.8307357 7.71005288 0.064311298 14.763861 0.064311298 19.1767105 7.68219819 23.5298837 0.064311298"></polygon>
                    </g>
                    <text id="VueConf-US" font-family="SourceSansPro-SemiBold, Source Sans Pro" font-size="14" font-weight="500" fill="#36495E">
                        <tspan x="126.513041" y="112.628574">VueConf US</tspan>
                    </text>
                    <text id="Conference-Videos" font-family="SourceSansPro-Regular, Source Sans Pro" font-size="14" font-weight="normal" fill="#36495E">
                        <tspan x="107.186041" y="94.7117164">Conference Videos</tspan>
                    </text>
                    <text id="New-Orleans,-LA-on-M" font-family="SourceSansPro-Italic, Source Sans Pro" font-size="14" font-style="italic" font-weight="normal" fill="#36495E">
                        <tspan x="54.2870406" y="79.4273557">New Orleans, LA on March 26-28, 2018</tspan>
                    </text>
                </g>
                <g id="Group" transform="translate(0.006056, 160.188406)">
                    <rect id="Rectangle" fill="#4FBA87" x="0.151043025" y="32.3091356" width="406.177039" height="1.01619781"></rect>
                    <rect id="Rectangle-3" fill="#4FBA87" x="48.8032471" y="16.4865379" width="33.0264289" height="14.2267694"></rect>
                    <rect id="Rectangle-5" fill="#4FBA87" x="87.418764" y="8.35695542" width="18.2915606" height="22.3563519"></rect>
                    <path d="M124.001885,30.4592579 L124.001885,23.3458732" id="Line-2" stroke="#435265" stroke-linecap="square"></path>
                    <circle id="Oval-3" fill="#4FBA87" cx="142.293446" cy="27.6647139" r="3.04859344"></circle>
                    <rect id="Rectangle-7" fill="#435265" x="260.986103" y="23.0918237" width="29.4697366" height="6.09718688"></rect>
                    <circle id="Oval-4" fill="#435265" cx="266.321142" cy="29.4430601" r="1.27024727"></circle>
                    <circle id="Oval-4-Copy-2" fill="#435265" cx="283.065368" cy="29.4430601" r="1.27024727"></circle>
                    <path d="M301.888065,30.4592579 L301.888065,18.2648841" id="Line-3" stroke="#36495E" stroke-linecap="square"></path>
                    <rect id="Rectangle-9" fill="#39B982" x="314.496448" y="11.6595983" width="18.2915606" height="18.7996596"></rect>
                    <rect id="Rectangle-10" fill="#39B982" x="342.281928" y="0.173675161" width="18.2915606" height="30.5396322"></rect>
                    <rect id="Rectangle-8" fill="#36495E" x="321.449873" y="21.0432303" width="15.2429672" height="10.1619781"></rect>
                    <circle id="Oval-5" fill="#4FBA87" cx="301.888065" cy="12.1676972" r="8.38363196"></circle>
                    <circle id="Oval-4-Copy" fill="#435265" cx="268.861636" cy="29.4430601" r="1.27024727"></circle>
                    <circle id="Oval-4-Copy-3" fill="#435265" cx="285.605863" cy="29.4430601" r="1.27024727"></circle>
                    <rect id="Rectangle-6" fill="#4FBA87" x="260.478004" y="28.6809117" width="30.4859344" height="1.01619781"></rect>
                    <rect id="Rectangle-6-Copy" fill="#4FBA87" x="260.478004" y="22.5837248" width="30.4859344" height="1.01619781"></rect>
                    <circle id="Oval-2" fill="#4FBA87" cx="124.001885" cy="20.0432303" r="5.58908797"></circle>
                    <rect id="Rectangle-4" fill="#435265" x="88.9430608" y="12.4217467" width="15.2429672" height="8.63768142"></rect>
                    <rect id="Rectangle-2" fill="#435265" x="50.8356427" y="21.567527" width="29.4697366" height="4.06479125"></rect>
                </g>
            </g>
        </g>
    </g>
</svg>