<?xml version="1.0" encoding="UTF-8"?>
<svg width="1440px" height="653px" viewBox="0 0 1440 653" version="1.1" xmlns="http://www.w3.org/2000/svg" xmlns:xlink="http://www.w3.org/1999/xlink">
    <!-- Generator: Sketch 49.2 (51160) - http://www.bohemiancoding.com/sketch -->
    <title>Page 1</title>
    <desc>Created with Sketch.</desc>
    <defs>
        <rect id="path-1" x="0" y="0" width="1441.57092" height="653.765548"></rect>
        <polygon id="path-3" points="0.549168119 0.529770834 436.341473 0.529770834 436.341473 542.500973 0.549168119 542.500973"></polygon>
    </defs>
    <g id="Webpages" stroke="none" stroke-width="1" fill="none" fill-rule="evenodd" opacity="0.196614583">
        <g id="VueMastery-Course-ðŸ‘">
            <g id="Group-5" transform="translate(-4.000000, -1.000000)">
                <g id="Page-1" transform="translate(4.000000, 0.000000)">
                    <mask id="mask-2" fill="white">
                        <use xlink:href="#path-1"></use>
                    </mask>
                    <use id="Mask" fill="#FFFFFF" xlink:href="#path-1"></use>
                    <g mask="url(#mask-2)">
                        <g transform="translate(0.000000, 14.551220)">
                            <path d="M1180.69667,228.306686 C1180.03969,228.306686 1179.37823,228.091935 1178.82675,227.648214 C1177.53675,226.614113 1177.32948,224.730733 1178.36433,223.441475 L1223.87299,166.690148 C1223.92237,166.62879 1223.97326,166.569678 1224.02713,166.512061 L1234.74003,155.116751 C1234.84553,155.004511 1234.96076,154.899754 1235.08273,154.805473 L1241.58739,149.745712 C1242.89236,148.728822 1244.77275,148.965273 1245.78739,150.270245 C1246.80279,151.575218 1246.56708,153.455605 1245.26286,154.470251 L1238.94153,159.387841 L1228.46957,170.526497 L1183.03349,227.185787 C1182.44237,227.922827 1181.57363,228.306686 1180.69667,228.306686" id="Fill-1" fill="#39B982"></path>
                            <path d="M1470.77314,456.537424 C1470.0548,456.537424 1469.33422,456.280021 1468.76105,455.75923 L1389.16224,383.420818 C1388.82926,383.119268 1388.56961,382.745884 1388.4005,382.328353 L1349.13685,285.285261 L1284.14789,256.077528 C1283.40412,255.743054 1282.8287,255.119002 1282.55484,254.351283 L1256.45838,181.070807 L1240.82341,153.587823 C1240.17691,152.45121 1240.34303,151.026516 1241.23421,150.068738 C1242.12539,149.111708 1243.53512,148.842333 1244.71513,149.407273 L1253.38901,153.548913 C1253.76389,153.727748 1254.09836,153.982906 1254.36923,154.298674 L1337.73331,251.281156 L1385.09916,296.295215 C1385.23759,296.42691 1385.36405,296.572821 1385.47554,296.729209 L1489.18192,442.410202 C1490.14045,443.756328 1489.82543,445.625492 1488.47856,446.584018 C1487.13318,447.542544 1485.26327,447.229021 1484.30474,445.881398 L1380.76597,300.43536 L1333.50038,255.517078 C1333.4278,255.44749 1333.35821,255.37416 1333.29311,255.298585 L1251.32305,159.93759 L1261.79126,178.339644 C1261.87806,178.491542 1261.95064,178.650922 1262.00975,178.81554 L1287.76649,251.140483 L1352.68811,280.317537 C1353.39148,280.634052 1353.94595,281.210215 1354.23552,281.925556 L1393.69298,379.45053 L1472.78671,451.329507 C1474.01012,452.440679 1474.10066,454.334535 1472.98874,455.557198 C1472.39836,456.20744 1471.58725,456.537424 1470.77314,456.537424" id="Fill-3" fill="#39B982"></path>
                            <path d="M741.546201,300.392858 C740.889225,300.392858 740.22776,300.178106 739.67629,299.734386 C738.386283,298.700285 738.179014,296.816905 739.213863,295.527646 L777.594562,247.665695 C777.926791,247.250408 778.364526,246.931648 778.862121,246.741589 L797.707896,239.550025 L807.888026,210.164954 C807.999517,209.840955 808.16638,209.539405 808.381132,209.273023 L816.98916,198.538429 C817.557092,197.829823 818.41535,197.41753 819.323743,197.41753 L833.292333,197.418278 L838.457599,172.292325 C838.553377,171.828401 838.756904,171.392912 839.053217,171.022521 L974.698495,1.86848976 C975.734092,0.578482813 977.615976,0.370465452 978.905983,1.40606268 C980.195241,2.44016337 980.403259,4.32354358 979.36841,5.61280226 L844.175083,174.204139 L838.664868,201.014434 C838.379031,202.405457 837.153375,203.404389 835.73317,203.404389 L820.76041,203.403641 L813.375045,212.613273 L802.906833,242.828917 C802.617255,243.664728 801.973,244.329935 801.14542,244.645702 L781.755658,252.044535 L743.883029,299.271959 C743.291901,300.008999 742.423166,300.392858 741.546201,300.392858" id="Fill-5" fill="#39B982"></path>
                            <g id="Group-9" stroke-width="1" fill="none" transform="translate(973.491321, 0.216997)">
                                <mask id="mask-4" fill="white">
                                    <use xlink:href="#path-3"></use>
                                </mask>
                                <g id="Clip-8"></g>
                                <path d="M390.738988,502.027379 C391.421405,502.027379 392.08736,502.260837 392.622369,502.694082 L422.628499,526.981231 L330.013633,367.179002 L322.362634,361.742865 L293.217756,358.806677 C292.234537,358.707907 291.364306,358.130247 290.891403,357.264505 L266.528679,312.699405 L204.778202,226.844354 C204.733306,226.782997 204.691403,226.719394 204.652493,226.655044 L190.341947,203.18874 L177.441877,203.187243 C176.280572,203.187243 175.224023,202.515302 174.731665,201.463243 L161.042926,172.236056 C161.024967,172.197894 161.007757,172.159733 160.992044,172.120823 L138.718473,118.849672 L69.4135228,93.5269253 C68.8800107,93.3323767 68.4123457,92.9896718 68.0658996,92.5377204 L18.1320054,27.4567203 L56.0278301,107.850193 L96.0120593,124.577632 C96.9952781,124.989177 97.6851774,125.892332 97.8243545,126.948132 L116.275045,267.037349 L151.007959,250.43038 C151.843021,250.030807 152.815764,250.039787 153.642596,250.455073 C154.468679,250.87036 155.056815,251.644813 155.236398,252.552457 L193.229497,445.662157 L225.102546,430.962513 C225.606127,430.729802 226.167325,430.641507 226.715803,430.708851 L241.957938,432.554818 L241.311438,425.689497 C241.192464,424.425679 241.88386,423.223967 243.037683,422.691203 L273.670858,408.563981 C274.704211,408.087337 275.922384,408.239235 276.806832,408.955323 L365.056327,480.382349 C365.413997,480.672676 365.70133,481.04157 365.893634,481.461346 L375.969008,503.419898 L390.455396,502.040848 C390.549678,502.031868 390.644707,502.027379 390.738988,502.027379 M433.348127,542.500973 C432.682173,542.500973 432.014721,542.279487 431.465495,541.83427 L389.805903,508.116002 L374.418605,509.581103 C373.169004,509.702322 371.947089,509.007184 371.415074,507.848872 L360.74483,484.594327 L274.487962,414.779061 L247.46965,427.239151 L248.266551,435.693037 C248.351105,436.594695 248.023365,437.485877 247.373872,438.11816 C246.725127,438.750443 245.830204,439.054986 244.926301,438.944243 L226.838518,436.754075 L192.27995,452.690599 C191.448629,453.077452 190.48262,453.0565 189.665516,452.638969 C188.848412,452.22069 188.267759,451.451474 188.090421,450.551313 L150.107797,257.495488 L115.137684,274.216193 C114.271195,274.630731 113.261787,274.602297 112.419242,274.147353 C111.576696,273.690163 111.003526,272.856597 110.878566,271.907051 L92.1143527,129.436858 L52.6554048,112.92866 C51.9722398,112.642075 51.4185245,112.113052 51.1035054,111.443356 L0.835137327,4.79928976 C0.183399479,3.41649809 0.678750174,1.76433143 1.98447066,0.968178647 C3.29168768,0.17052934 4.98725365,0.48779323 5.91734567,1.70222552 L72.2861079,88.203776 L142.002603,113.676924 C142.786035,113.963509 143.414577,114.563616 143.73633,115.33358 L166.491035,169.754064 L179.34546,197.201132 L192.022547,197.202629 C193.066375,197.202629 194.034629,197.746616 194.577868,198.63705 L209.704023,223.44125 L271.496403,309.353917 C271.567488,309.454184 271.633336,309.558193 271.692448,309.665943 L295.386224,353.009129 L323.750664,355.866 C324.266966,355.91763 324.761568,356.1032 325.185086,356.404002 L334.010858,362.676698 C334.360297,362.925122 334.65212,363.24463 334.866872,363.615021 L435.937869,538.0069 C436.66144,539.255752 436.391317,540.843568 435.294362,541.781891 C434.735409,542.26078 434.041768,542.500973 433.348127,542.500973" id="Fill-7" fill="#39B982" mask="url(#mask-4)"></path>
                            </g>
                            <path d="M1352.82879,624.996917 C1351.60762,624.996917 1350.46053,624.243415 1350.01681,623.028983 L1344.86127,608.902509 L1309.1197,532.970934 L1296.94245,532.970934 C1295.72653,532.970934 1294.63331,532.236139 1294.17238,531.111498 L1245.64597,412.632891 C1245.12742,411.368325 1245.53149,409.9137 1246.62844,409.098092 C1247.7254,408.280988 1249.23539,408.311667 1250.29868,409.17217 L1338.54742,480.599196 C1338.90584,480.889523 1339.19243,481.258417 1339.38473,481.678193 L1349.4601,503.636745 L1363.94574,502.256946 C1364.72319,502.182868 1365.50288,502.417823 1366.11272,502.910181 L1408.7226,537.398412 C1408.86852,537.516637 1409.00245,537.648332 1409.12367,537.790502 L1411.09161,540.115358 C1412.16013,541.376931 1412.00299,543.2648 1410.74142,544.333321 C1409.47835,545.401842 1407.59123,545.244707 1406.52346,543.983134 L1404.73735,541.873778 L1363.29625,508.332101 L1347.91045,509.79795 C1346.6601,509.919169 1345.43819,509.224031 1344.90617,508.065719 L1334.23593,484.811174 L1255.61285,421.175071 L1298.95079,526.984823 L1311.01879,526.984823 C1312.17786,526.984823 1313.23291,527.653771 1313.72676,528.703585 L1350.33482,606.475141 C1350.37299,606.555953 1350.40815,606.639011 1350.43883,606.723564 L1355.64076,620.977243 C1356.2072,622.529891 1355.40731,624.247905 1353.85466,624.815089 C1353.51644,624.938552 1353.17,624.996917 1352.82879,624.996917" id="Fill-10" fill="#39B982"></path>
                            <path d="M1154.7581,203.404988 L1171.70852,271.870386 L1162.88125,203.405736 L1154.7581,203.404988 Z M1181.35364,326.28638 C1180.00303,326.28638 1178.7871,325.367512 1178.45113,324.011658 L1148.02821,201.130266 C1147.80673,200.237587 1148.00876,199.291033 1148.57669,198.565965 C1149.14387,197.841646 1150.01261,197.418129 1150.93372,197.418129 L1165.51364,197.419625 C1167.01915,197.419625 1168.2897,198.537531 1168.48201,200.02957 L1184.325,322.909465 C1184.52778,324.483064 1183.46749,325.941431 1181.90811,326.234002 C1181.72254,326.26917 1181.53697,326.28638 1181.35364,326.28638 Z" id="Fill-12" fill="#39B982"></path>
                            <path d="M782.594686,251.724278 L778.566782,275.504105 L793.631578,247.513049 L782.594686,251.724278 Z M772.575433,295.944429 C772.252931,295.944429 771.924443,295.891303 771.604186,295.781308 C770.218401,295.305412 769.381094,293.895683 769.625776,292.450785 L776.978217,249.038011 C777.154808,247.993435 777.871644,247.119462 778.862346,246.741589 L799.011596,239.052429 C800.180384,238.608709 801.503315,238.9357 802.327153,239.874023 C803.153236,240.813094 803.307379,242.166704 802.714754,243.2674 L775.212314,294.368586 C774.678054,295.360784 773.652184,295.944429 772.575433,295.944429 Z" id="Fill-14" fill="#39B982"></path>
                            <path d="M822.525938,203.403491 L826.875596,267.811802 L832.468869,203.40424 L822.525938,203.403491 Z M826.502961,309.698867 L826.473778,309.698867 C824.910655,309.683153 823.621396,308.467224 823.515891,306.907094 L816.337048,200.612467 C816.281676,199.784887 816.571254,198.972273 817.13769,198.366927 C817.703377,197.760833 818.495041,197.41738 819.324117,197.41738 L835.732796,197.418129 C836.5716,197.418129 837.372242,197.770561 837.939426,198.388627 C838.505862,199.006693 838.787209,199.834273 838.715376,200.670083 L829.484792,306.963962 C829.350105,308.512868 828.054112,309.698867 826.502961,309.698867 Z" id="Fill-16" fill="#39B982"></path>
                            <path d="M793.940686,338.047892 L823.135698,375.304699 L799.703066,340.496959 C799.394782,340.03977 799.219688,339.504761 799.195744,338.954039 L798.196063,315.519162 L793.940686,338.047892 Z M843.420384,403.065289 C842.457369,403.065289 841.512311,402.601366 840.934652,401.743107 L823.927362,376.480221 C824.44516,377.69615 824.106945,379.153768 823.017473,380.006789 C821.717738,381.025925 819.835106,380.798452 818.815971,379.497221 L788.391561,340.672053 C787.859546,339.993378 787.64629,339.117909 787.806419,338.270874 L797.13727,288.871989 C797.419365,287.376957 798.779709,286.32415 800.294195,286.442376 C801.810926,286.551622 803.004407,287.780272 803.068757,289.299996 L805.1407,337.854839 L845.900131,398.400612 C846.823488,399.771432 846.459832,401.631616 845.088264,402.554973 C844.576452,402.899923 843.995051,403.065289 843.420384,403.065289 Z" id="Fill-18" fill="#39B982"></path>
                            <path d="M1308.61036,456.368616 L1317.81849,463.822072 L1294.50334,361.823228 L1271.53912,359.510345 L1308.61036,456.368616 Z M1322.66649,474.58959 C1321.99605,474.58959 1321.3286,474.36511 1320.78311,473.922887 L1304.21955,460.516242 C1303.81024,460.184762 1303.49523,459.751517 1303.30741,459.259159 L1264.21362,357.115152 C1263.84248,356.14615 1264.00036,355.052937 1264.63115,354.227602 C1265.26193,353.403015 1266.28631,352.963036 1267.30844,353.067793 L1297.24198,356.083296 C1298.52077,356.211249 1299.57357,357.141341 1299.86016,358.393187 L1325.58398,470.929083 C1325.86757,472.173446 1325.33256,473.461208 1324.24907,474.136142 C1323.7627,474.439189 1323.21348,474.58959 1322.66649,474.58959 Z" id="Fill-20" fill="#39B982"></path>
                            <path d="M1387.51419,575.460949 C1386.50253,575.460949 1385.51632,574.948389 1384.95288,574.02129 L1345.06817,508.372357 C1344.53391,507.490903 1344.48901,506.396941 1344.95144,505.475828 C1345.41312,504.554715 1346.31702,503.935901 1347.34289,503.837878 L1363.94612,502.256797 C1365.18973,502.145305 1366.36825,502.801533 1366.91747,503.919439 L1395.8895,563.021062 C1396.61756,564.50487 1396.00399,566.298458 1394.51943,567.026519 C1393.03563,567.753083 1391.24204,567.140255 1390.51472,565.655699 L1362.45333,508.412764 L1352.66454,509.3451 L1390.06951,570.913002 C1390.92777,572.326472 1390.47806,574.167201 1389.06534,575.02546 C1388.57971,575.320276 1388.04321,575.460949 1387.51419,575.460949" id="Fill-22" fill="#39B982"></path>
                            <path d="M1204.12668,437.430356 L1218.43498,481.927365 L1215.93428,438.861036 L1204.12668,437.430356 Z M1222.78464,508.229589 C1221.5066,508.229589 1220.34081,507.408743 1219.9375,506.153156 L1196.99797,434.813677 C1196.68519,433.842431 1196.88872,432.778399 1197.53822,431.991226 C1198.18771,431.206297 1199.18589,430.805227 1200.20727,430.926446 L1219.13835,433.219127 C1220.57502,433.392724 1221.6817,434.57124 1221.7655,436.016885 L1225.7747,505.063684 C1225.86225,506.566946 1224.81692,507.902597 1223.33611,508.178707 C1223.15129,508.213875 1222.96647,508.229589 1222.78464,508.229589 Z" id="Fill-24" fill="#39B982"></path>
                            <path d="M971.207619,259.776121 C972.286616,259.776121 973.282555,260.356774 973.813074,261.296594 L1013.59827,331.722443 L990.988723,246.934417 L922.803925,198.770167 L954.390388,240.598866 C955.110218,241.552903 955.194772,242.84291 954.604392,243.882248 L945.548902,259.806052 L971.203878,259.776121 L971.207619,259.776121 Z M1022.54152,356.628406 C1021.48871,356.628406 1020.4793,356.07095 1019.93382,355.106438 L969.46192,265.764477 L940.40384,265.798149 L940.400098,265.798149 C939.334571,265.798149 938.350604,265.231714 937.814098,264.312097 C937.276845,263.390236 937.270859,262.252875 937.798385,261.325028 L948.426725,242.634892 L906.446876,187.04113 C905.558687,185.864111 905.658954,184.214937 906.685572,183.155396 C907.712939,182.096602 909.358371,181.940963 910.562328,182.793236 L995.327157,242.671557 C995.899579,243.07562 996.312621,243.667496 996.492953,244.344675 L1025.43206,352.863142 C1025.81966,354.319264 1025.06616,355.835995 1023.6699,356.405424 C1023.30175,356.555825 1022.91789,356.628406 1022.54152,356.628406 Z" id="Fill-26" fill="#39B982"></path>
                            <path d="M1161.62103,710.300422 C1160.75454,710.300422 1159.89403,709.925542 1159.3029,709.201971 L967.501917,474.721509 L871.350756,432.183455 C871.009547,432.032305 870.699766,431.81905 870.437125,431.554913 L626.468677,185.66193 L620.927783,185.690364 L504.043726,331.44768 C503.010373,332.737687 501.126993,332.946453 499.836986,331.910856 C498.547727,330.876755 498.33971,328.992626 499.374559,327.704116 L617.151295,180.832635 C617.714738,180.128519 618.567759,179.716225 619.470165,179.711736 L627.692837,179.669833 C628.50171,179.648133 629.267184,179.984104 629.83362,180.554281 L874.289188,426.938125 L970.577282,469.53604 C971.006785,469.726099 971.385407,470.014929 971.682468,470.378585 L1163.93615,705.412762 C1164.98297,706.692294 1164.79366,708.57717 1163.51413,709.623991 C1162.95817,710.078936 1162.28773,710.300422 1161.62103,710.300422" id="Fill-28" fill="#39B982"></path>
                            <path d="M647.470275,275.068765 L849.333914,410.285287 L626.468752,185.662454 L623.385905,185.678167 L647.470275,275.068765 Z M872.560025,432.439136 C871.985358,432.439136 871.405454,432.274518 870.895886,431.93331 L643.206667,279.417674 C642.605811,279.01436 642.17107,278.408266 641.982507,277.709388 L616.59541,183.484258 C616.353721,182.587089 616.542283,181.629312 617.104978,180.890775 C617.66842,180.152239 618.541644,179.716749 619.47024,179.711511 L627.692912,179.669608 C628.501785,179.648657 629.267259,179.984627 629.833695,180.554056 L874.686591,427.338222 C875.769329,428.429939 875.849393,430.164414 874.870664,431.350413 C874.282528,432.063508 873.426514,432.439136 872.560025,432.439136 Z" id="Fill-30" fill="#39B982"></path>
                            <path d="M895.36404,802.648907 C894.612035,802.648907 893.860778,802.367559 893.279377,801.803368 L652.839741,568.340545 C652.53445,568.044233 652.295754,567.686563 652.140115,567.291479 L616.947019,478.066248 L536.115064,377.264627 L522.885759,375.293699 C521.702005,375.117857 520.737493,374.252864 520.43295,373.0953 L514.404936,350.192439 L460.673602,283.186904 L422.12155,293.439616 L410.872899,307.469564 L404.169203,328.074507 C403.8901,328.932765 403.238363,329.618923 402.395818,329.942922 L388.606811,335.234644 L314.352095,427.833048 L310.92355,445.866956 C310.709547,446.990101 309.873736,447.894003 308.770795,448.194805 L295.013963,451.948845 L278.58583,472.434814 C277.551729,473.724073 275.6676,473.932838 274.378342,472.897241 C273.089083,471.863141 272.881814,469.979012 273.915915,468.689753 L290.952387,447.445793 C291.34747,446.951939 291.889213,446.596514 292.499048,446.430399 L305.391635,442.912062 L308.610666,425.982592 C308.701955,425.502206 308.909972,425.051003 309.216012,424.669389 L384.442722,330.858048 C384.775699,330.444258 385.211189,330.126246 385.705791,329.936187 L398.917887,324.865951 L405.349215,305.097567 C405.460706,304.753366 405.634304,304.433109 405.860279,304.151014 L418.067456,288.927585 C418.466281,288.429241 419.015507,288.071571 419.632824,287.907701 L461.0193,276.901487 C462.167137,276.598441 463.383814,276.997265 464.124595,277.921371 L519.472179,346.943477 C519.734819,347.270468 519.925627,347.64909 520.032628,348.054649 L525.719434,369.663762 L538.156328,371.516463 C538.902347,371.627955 539.579526,372.015555 540.050184,372.604439 L621.900526,474.675116 C622.087592,474.908575 622.23949,475.169719 622.349484,475.448821 L657.471495,564.495217 L897.448704,797.508334 C898.634702,798.659912 898.662388,800.554516 897.511558,801.740514 C896.924919,802.345111 896.14448,802.648907 895.36404,802.648907" id="Fill-32" fill="#39B982"></path>
                            <path d="M628.219989,583.614407 L787.868076,699.450895 L652.839367,568.340844 C652.534076,568.043784 652.296128,567.686862 652.140489,567.291778 L616.947393,478.065799 L536.115438,377.265674 L522.886133,375.293999 C521.701631,375.117408 520.737119,374.252415 520.432575,373.094851 L514.406058,350.193487 L466.750627,290.76562 L497.894867,468.446119 L577.859584,490.064959 C578.66322,490.281955 579.338902,490.82295 579.726503,491.559242 L628.219989,583.614407 Z M819.934925,729.409885 C819.322845,729.409885 818.707772,729.223567 818.178749,728.838959 L624.139706,588.049367 C623.767819,587.779244 623.463275,587.428308 623.248524,587.022001 L575.038629,495.502593 L494.494008,473.728113 C493.37236,473.424318 492.52757,472.499464 492.327784,471.355369 L458.84073,280.310129 C458.605027,278.964002 459.31064,277.629099 460.555751,277.066405 C461.804603,276.502962 463.270452,276.856143 464.124221,277.92167 L519.473301,346.944525 C519.735942,347.271516 519.926001,347.649389 520.033003,348.054948 L525.719808,369.664061 L538.158199,371.518259 C538.90347,371.629002 539.5799,372.018099 540.051306,372.606235 L621.900152,474.674667 C622.087966,474.908874 622.239864,475.16927 622.34911,475.448372 L657.472617,564.494768 L822.021085,724.269312 C823.14797,725.363273 823.237762,727.141148 822.226857,728.34286 C821.637225,729.043235 820.79019,729.409885 819.934925,729.409885 Z" id="Fill-34" fill="#39B982"></path>
                            <path d="M527.102076,375.922166 L533.484019,407.651548 L534.625869,377.043814 L527.102076,375.922166 Z M535.532017,436.01075 C534.118546,436.01075 532.883163,435.01481 532.599571,433.608074 L520.392394,372.923873 C520.20009,371.967592 520.485927,370.978387 521.157868,370.271277 C521.829809,369.564916 522.801803,369.230442 523.76856,369.373361 L538.157675,371.517885 C539.666175,371.742364 540.764626,373.066043 540.707758,374.590257 L538.525073,433.129185 C538.468204,434.645168 537.286696,435.879055 535.775203,436.001022 C535.692894,436.007757 535.612081,436.01075 535.532017,436.01075 Z" id="Fill-36" fill="#39B982"></path>
                            <path d="M389.691195,334.818834 L388.452818,365.945863 L397.009964,332.009103 L389.691195,334.818834 Z M384.320156,397.575726 C384.177986,397.575726 384.033571,397.565999 383.889905,397.545047 C382.372425,397.325806 381.265743,395.996141 381.326353,394.463696 L383.787392,332.611455 C383.835281,331.416478 384.589531,330.364419 385.705941,329.936412 L400.249946,324.354363 C401.295271,323.952545 402.473787,324.168045 403.308849,324.909575 C404.14466,325.651104 404.498589,326.796696 404.225472,327.880931 L387.219679,395.315221 C386.879967,396.659851 385.671521,397.575726 384.320156,397.575726 Z" id="Fill-38" fill="#39B982"></path>
                            <path d="M302.545464,503.083179 L302.683893,503.680294 C302.6592,502.572115 302.768446,502.298999 302.888917,501.9967 C303.325155,500.903487 310.034089,483.248948 313.836766,473.23194 L306.011422,448.947783 L297.573998,451.250191 L308.354985,473.148134 C308.652794,473.754228 308.737347,474.442631 308.595177,475.102599 L302.545464,503.083179 Z M310.215917,543.779007 C308.820405,543.779007 307.594748,542.802523 307.295443,541.424969 C306.079514,541.27831 305.028952,540.388624 304.737129,539.127051 L296.562346,503.779813 C296.462827,503.349561 296.459834,502.903596 296.552618,502.472596 L302.523764,474.856421 L290.601676,450.639608 C290.20734,449.838217 290.190879,448.902139 290.558276,448.088028 C290.925674,447.273169 291.637273,446.665578 292.499273,446.429875 L307.195176,442.419929 C308.739592,442.003146 310.340129,442.866643 310.831738,444.390108 L319.856549,472.395381 C320.064566,473.042629 320.046608,473.740011 319.804919,474.376035 C319.391129,475.4685 310.16728,499.763132 308.637828,503.729679 C308.700682,505.284572 309.349427,512.035408 313.185776,540.384882 C313.407262,542.022084 312.258677,543.530584 310.620728,543.75207 C310.484544,543.770028 310.349856,543.779007 310.215917,543.779007 Z" id="Fill-40" fill="#39B982"></path>
                            <path d="M512.318776,628.272741 L585.807269,695.143589 L526.615106,624.018113 C526.388382,623.745745 526.211792,623.435215 526.093566,623.10149 L495.28829,535.943712 L441.41329,507.8262 C440.5468,507.374248 439.955672,506.527962 439.829963,505.55896 L423.395095,379.015564 L423.395095,517.143582 L463.88964,539.350557 C464.396963,539.628163 464.81225,540.047191 465.086114,540.555262 L512.318776,628.272741 Z M615.726601,729.409585 C615.005274,729.409585 614.284696,729.149938 613.712274,728.629894 L507.911502,632.356017 C507.661582,632.127797 507.451319,631.85917 507.291191,631.561361 L460.235868,544.173118 L418.963128,521.539632 C418.004602,521.014351 417.408984,520.008684 417.408984,518.916219 L417.408984,332.730205 C417.408984,331.152116 418.63464,329.845647 420.208988,329.743883 C421.787824,329.630896 423.166875,330.780977 423.370403,332.344849 L445.565406,503.240838 L499.102939,531.182509 C499.774132,531.532696 500.288189,532.124573 500.540354,532.838417 L531.558885,620.60154 L618.026764,724.502471 C619.033179,725.710917 618.932163,727.492533 617.796299,728.579761 C617.217891,729.131979 616.47262,729.409585 615.726601,729.409585 Z" id="Fill-42" fill="#39B982"></path>
                            <path d="M604.266041,829.293386 C603.514036,829.293386 602.762779,829.012039 602.181378,828.447848 L298.53664,533.614666 C298.231348,533.317605 297.992652,532.960683 297.837013,532.564851 L262.643918,443.338872 L107.088086,249.354452 L4.9425823,337.042 C3.68774375,338.118004 1.7991257,337.975085 0.721625695,336.720247 C-0.354377778,335.465408 -0.210711111,333.57679 1.04337917,332.49929 L105.536935,242.795919 C106.153504,242.267644 106.958636,242.011738 107.763768,242.087313 C108.571893,242.162139 109.314171,242.561712 109.821494,243.195492 L267.597425,439.94774 C267.784491,440.181198 267.936388,440.442343 268.046383,440.721445 L303.168393,529.768589 L606.350705,824.152814 C607.536703,825.304392 607.565137,827.198996 606.413559,828.384994 C605.82692,828.989591 605.046481,829.293386 604.266041,829.293386" id="Fill-46" fill="#39B982"></path>
                            <path d="M273.917785,548.888078 L433.565124,664.724566 L298.536415,533.614516 C298.231124,533.317455 297.993176,532.960533 297.837537,532.56545 L262.64519,443.339471 L112.448424,256.039292 L143.592664,433.71979 L223.557381,455.33863 C224.361016,455.555627 225.036698,456.096622 225.424299,456.832913 L273.917785,548.888078 Z M465.632721,694.683556 C465.02139,694.683556 464.405568,694.497238 463.876546,694.112631 L269.837502,553.323039 C269.465615,553.052915 269.161072,552.701979 268.94632,552.295672 L220.736426,460.776264 L140.191804,439.001785 C139.070157,438.69799 138.225367,437.773136 138.024832,436.62904 L104.539275,245.5838 C104.302823,244.237674 105.008436,242.902771 106.253547,242.340076 C107.500155,241.775885 108.968249,242.129814 109.821269,243.195342 L267.597948,439.948339 C267.785763,440.182545 267.93766,440.442941 268.046907,440.722044 L303.168917,529.76844 L467.718881,689.542983 C468.845766,690.636945 468.935558,692.41482 467.924654,693.616532 C467.335022,694.316907 466.487987,694.683556 465.632721,694.683556 Z" id="Fill-48" fill="#39B982"></path>
                            <path d="M60.1978299,443.276168 L93.9303144,466.164812 C94.26404,466.391536 94.5491286,466.683359 94.7676216,467.02307 L109.178436,489.450784 L91.5485904,447.621336 L45.9104792,400.265959 L58.6534133,422.368926 C58.8853751,422.77224 59.0208108,423.223444 59.0477483,423.688115 L60.1978299,443.276168 Z M125.40379,523.228912 C124.413837,523.228912 123.45157,522.737303 122.882889,521.852855 L90.0625383,470.774117 L55.6154619,447.401346 C54.8462466,446.879058 54.3628681,446.02903 54.3082449,445.100435 L53.1132674,424.745412 L28.5320504,382.105595 C27.7770521,380.795384 28.1175122,379.128253 29.3259584,378.219112 C30.5336563,377.311468 32.2307188,377.444659 33.2797848,378.534131 L96.2454428,443.868793 C96.5013491,444.133678 96.7056251,444.444207 96.8477953,444.783171 L128.158898,519.072307 C128.762747,520.503735 128.17087,522.158895 126.797057,522.883215 C126.352589,523.116673 125.874448,523.228164 125.40379,523.228912 Z" id="Fill-50" fill="#39B982"></path>
                        </g>
                    </g>
                </g>
            </g>
        </g>
    </g>
</svg>