<svg xmlns="http://www.w3.org/2000/svg" xmlns:xlink="http://www.w3.org/1999/xlink" width="3970.26" height="1274.34" viewBox="0 0 3970.26 1274.34">
  <defs>
    <style>
      .\31 078e1d1-8774-4663-a6ed-35a4752bf8f6 {
        fill: url(#25b6509a-2a98-4a73-91f3-71a0a2198476);
      }
    </style>
    <linearGradient id="25b6509a-2a98-4a73-91f3-71a0a2198476" x1="3471.92" y1="1286.87" x2="3346.44" y2="18.72" gradientTransform="translate(-1343.2 -348.16) rotate(5.65)" gradientUnits="userSpaceOnUse">
      <stop offset="0" stop-color="#edffed"/>
      <stop offset="0.19" stop-color="#d5f0e6"/>
      <stop offset="0.54" stop-color="#b0d7dc"/>
      <stop offset="0.82" stop-color="#98c8d5"/>
      <stop offset="1" stop-color="#90c3d3"/>
    </linearGradient>
  </defs>
  <title>bkg-cloud-top</title>
  <g id="dbb3b193-d7a5-4db4-89ee-3226028e5780" data-name="Layer 2">
    <g id="20ed882e-5199-40d1-a6e4-78b60f82b4a8" data-name="background">
      <path class="1078e1d1-8774-4663-a6ed-35a4752bf8f6" d="M1280.38,1079.63c19.31-9.14,40.78-23.42,40.83-44.79.07-27.34-33.17-40.19-60-45.64-85.35-17.36-226.63,16.8-256-52.08s237.84-60.44,357.8-30.47,240.51,75.67,363.39,61.84c125.07-14.07,237.48-88.75,362.76-100.93,97.7-9.49,194.39,19.77,291.32,35.32,222,35.65,448.57-.66,670.49-36.92,160.56-26.24,972.79,84.71,916.49-167-97.85-437.54-1076.63-124.4-1931.1-425.46C1745.62,171.05,1450.46,75.73,1146.68,23.36s-641-25.07-880.9,168.52c-70.6,57-132.17,129.53-158,216.5S-175.78,1081.68,212,1133.69a222.44,222.44,0,0,0,17.81,140.65h0c136.36-127.77,341.66-115.91,516.65-117.19C926.27,1155.84,1114.16,1158.36,1280.38,1079.63Z"/>
    </g>
  </g>
</svg>
