<?xml version="1.0" encoding="utf-8"?>
<!-- Generator: Adobe Illustrator 22.0.1, SVG Export Plug-In . SVG Version: 6.00 Build 0)  -->
<svg version="1.1" id="Layer_1" xmlns="http://www.w3.org/2000/svg" xmlns:xlink="http://www.w3.org/1999/xlink" x="0px" y="0px"
	 viewBox="0 0 1440 653" style="enable-background:new 0 0 1440 653;" xml:space="preserve">
<style type="text/css">
	.st0{opacity:8.000000e-02;}
	.st1{fill:#FFFFFF;}
	.st2{filter:url(#Adobe_OpacityMaskFilter);}
	.st3{mask:url(#mask-2_1_);}
	.st4{fill:#39B982;}
	.st5{filter:url(#Adobe_OpacityMaskFilter_1_);}
	.st6{mask:url(#mask-4_1_);fill:#39B982;}
</style>
<title>Page 1</title>
<desc>Created with Sketch.</desc>
<g id="Webpages" class="st0">
	<g id="VueMastery-Course-_xD83D__xDC4D_">
		<g id="Group-5" transform="translate(-4.000000, -1.000000)">
			<g id="Page-1" transform="translate(4.000000, 0.000000)">
				<g id="Mask">
					<rect id="path-1_1_" class="st1" width="1441.6" height="653.8"/>
				</g>
				<defs>
					<filter id="Adobe_OpacityMaskFilter" filterUnits="userSpaceOnUse" x="0" y="15.3" width="1489.7" height="828.5">
						<feColorMatrix  type="matrix" values="1 0 0 0 0  0 1 0 0 0  0 0 1 0 0  0 0 0 1 0"/>
					</filter>
				</defs>
				<mask maskUnits="userSpaceOnUse" x="0" y="15.3" width="1489.7" height="828.5" id="mask-2_1_">
					<g class="st2">
						<rect id="path-1_2_" class="st1" width="1441.6" height="653.8"/>
					</g>
				</mask>
				<g class="st3">
					<g transform="translate(0.000000, 14.551220)">
						<path id="Fill-1" class="st4" d="M1180.7,228.3c-0.7,0-1.3-0.2-1.9-0.7c-1.3-1-1.5-2.9-0.5-4.2l45.5-56.8
							c0-0.1,0.1-0.1,0.2-0.2l10.7-11.4c0.1-0.1,0.2-0.2,0.3-0.3l6.5-5.1c1.3-1,3.2-0.8,4.2,0.5c1,1.3,0.8,3.2-0.5,4.2l-6.3,4.9
							l-10.5,11.1l-45.4,56.7C1182.4,227.9,1181.6,228.3,1180.7,228.3"/>
						<path id="Fill-3" class="st4" d="M1470.8,456.5c-0.7,0-1.4-0.3-2-0.8l-79.6-72.3c-0.3-0.3-0.6-0.7-0.8-1.1l-39.3-97l-65-29.2
							c-0.7-0.3-1.3-1-1.6-1.7l-26.1-73.3l-15.6-27.5c-0.6-1.1-0.5-2.6,0.4-3.5c0.9-1,2.3-1.2,3.5-0.7l8.7,4.1
							c0.4,0.2,0.7,0.4,1,0.7l83.4,97l47.4,45c0.1,0.1,0.3,0.3,0.4,0.4l103.7,145.7c1,1.3,0.6,3.2-0.7,4.2c-1.3,1-3.2,0.6-4.2-0.7
							l-103.5-145.4l-47.3-44.9c-0.1-0.1-0.1-0.1-0.2-0.2l-82-95.4l10.5,18.4c0.1,0.2,0.2,0.3,0.2,0.5l25.8,72.3l64.9,29.2
							c0.7,0.3,1.3,0.9,1.5,1.6l39.5,97.5l79.1,71.9c1.2,1.1,1.3,3,0.2,4.2C1472.4,456.2,1471.6,456.5,1470.8,456.5"/>
						<path id="Fill-5" class="st4" d="M741.5,300.4c-0.7,0-1.3-0.2-1.9-0.7c-1.3-1-1.5-2.9-0.5-4.2l38.4-47.9
							c0.3-0.4,0.8-0.7,1.3-0.9l18.8-7.2l10.2-29.4c0.1-0.3,0.3-0.6,0.5-0.9l8.6-10.7c0.6-0.7,1.4-1.1,2.3-1.1l14,0l5.2-25.1
							c0.1-0.5,0.3-0.9,0.6-1.3L974.7,1.9c1-1.3,2.9-1.5,4.2-0.5c1.3,1,1.5,2.9,0.5,4.2L844.2,174.2l-5.5,26.8
							c-0.3,1.4-1.5,2.4-2.9,2.4l-15,0l-7.4,9.2l-10.5,30.2c-0.3,0.8-0.9,1.5-1.8,1.8l-19.4,7.4l-37.9,47.2
							C743.3,300,742.4,300.4,741.5,300.4"/>
						<g id="Group-9" transform="translate(973.491321, 0.216997)">
							<g id="Clip-8">
							</g>
							<defs>
								<filter id="Adobe_OpacityMaskFilter_1_" filterUnits="userSpaceOnUse" x="0.5" y="0.5" width="435.8" height="542">
									<feColorMatrix  type="matrix" values="1 0 0 0 0  0 1 0 0 0  0 0 1 0 0  0 0 0 1 0"/>
								</filter>
							</defs>
							<mask maskUnits="userSpaceOnUse" x="0.5" y="0.5" width="435.8" height="542" id="mask-4_1_">
								<g class="st5">
									<polygon id="path-3_1_" class="st1" points="0.5,0.5 436.3,0.5 436.3,542.5 0.5,542.5 									"/>
								</g>
							</mask>
							<path id="Fill-7" class="st6" d="M390.7,502c0.7,0,1.3,0.2,1.9,0.7l30,24.3L330,367.2l-7.7-5.4l-29.1-2.9
								c-1-0.1-1.9-0.7-2.3-1.5l-24.4-44.6l-61.8-85.9c0-0.1-0.1-0.1-0.1-0.2l-14.3-23.5l-12.9,0c-1.2,0-2.2-0.7-2.7-1.7L161,172.2
								c0,0,0-0.1-0.1-0.1l-22.3-53.3L69.4,93.5c-0.5-0.2-1-0.5-1.3-1L18.1,27.5L56,107.9l40,16.7c1,0.4,1.7,1.3,1.8,2.4L116.3,267
								l34.7-16.6c0.8-0.4,1.8-0.4,2.6,0c0.8,0.4,1.4,1.2,1.6,2.1l38,193.1l31.9-14.7c0.5-0.2,1.1-0.3,1.6-0.3l15.2,1.8l-0.6-6.9
								c-0.1-1.3,0.6-2.5,1.7-3l30.6-14.1c1-0.5,2.3-0.3,3.1,0.4l88.2,71.4c0.4,0.3,0.6,0.7,0.8,1.1l10.1,22l14.5-1.4
								C390.5,502,390.6,502,390.7,502 M433.3,542.5c-0.7,0-1.3-0.2-1.9-0.7l-41.7-33.7l-15.4,1.5c-1.2,0.1-2.5-0.6-3-1.7
								l-10.7-23.3l-86.3-69.8l-27,12.5l0.8,8.5c0.1,0.9-0.2,1.8-0.9,2.4c-0.6,0.6-1.5,0.9-2.4,0.8l-18.1-2.2l-34.6,15.9
								c-0.8,0.4-1.8,0.4-2.6-0.1c-0.8-0.4-1.4-1.2-1.6-2.1l-38-193.1l-35,16.7c-0.9,0.4-1.9,0.4-2.7-0.1c-0.8-0.5-1.4-1.3-1.5-2.2
								L92.1,129.4l-39.5-16.5c-0.7-0.3-1.2-0.8-1.6-1.5L0.8,4.8C0.2,3.4,0.7,1.8,2,1c1.3-0.8,3-0.5,3.9,0.7l66.4,86.5l69.7,25.5
								c0.8,0.3,1.4,0.9,1.7,1.7l22.8,54.4l12.9,27.4l12.7,0c1,0,2,0.5,2.6,1.4l15.1,24.8l61.8,85.9c0.1,0.1,0.1,0.2,0.2,0.3
								l23.7,43.3l28.4,2.9c0.5,0.1,1,0.2,1.4,0.5l8.8,6.3c0.3,0.2,0.6,0.6,0.9,0.9L435.9,538c0.7,1.2,0.5,2.8-0.6,3.8
								C434.7,542.3,434,542.5,433.3,542.5"/>
						</g>
						<path id="Fill-10" class="st4" d="M1352.8,625c-1.2,0-2.4-0.8-2.8-2l-5.2-14.1l-35.7-75.9h-12.2c-1.2,0-2.3-0.7-2.8-1.9
							l-48.5-118.5c-0.5-1.3-0.1-2.7,1-3.5c1.1-0.8,2.6-0.8,3.7,0.1l88.2,71.4c0.4,0.3,0.6,0.7,0.8,1.1l10.1,22l14.5-1.4
							c0.8-0.1,1.6,0.2,2.2,0.7l42.6,34.5c0.1,0.1,0.3,0.2,0.4,0.4l2,2.3c1.1,1.3,0.9,3.1-0.4,4.2c-1.3,1.1-3.2,0.9-4.2-0.4
							l-1.8-2.1l-41.4-33.5l-15.4,1.5c-1.3,0.1-2.5-0.6-3-1.7l-10.7-23.3l-78.6-63.6L1299,527h12.1c1.2,0,2.2,0.7,2.7,1.7l36.6,77.8
							c0,0.1,0.1,0.2,0.1,0.2l5.2,14.3c0.6,1.6-0.2,3.3-1.8,3.8C1353.5,624.9,1353.2,625,1352.8,625"/>
						<path id="Fill-12" class="st4" d="M1154.8,203.4l17,68.5l-8.8-68.5L1154.8,203.4z M1181.4,326.3c-1.4,0-2.6-0.9-2.9-2.3
							L1148,201.1c-0.2-0.9,0-1.8,0.5-2.6c0.6-0.7,1.4-1.1,2.4-1.1l14.6,0c1.5,0,2.8,1.1,3,2.6l15.8,122.9c0.2,1.6-0.9,3-2.4,3.3
							C1181.7,326.3,1181.5,326.3,1181.4,326.3z"/>
						<path id="Fill-14" class="st4" d="M782.6,251.7l-4,23.8l15.1-28L782.6,251.7z M772.6,295.9c-0.3,0-0.7-0.1-1-0.2
							c-1.4-0.5-2.2-1.9-2-3.3L777,249c0.2-1,0.9-1.9,1.9-2.3l20.1-7.7c1.2-0.4,2.5-0.1,3.3,0.8c0.8,0.9,1,2.3,0.4,3.4l-27.5,51.1
							C774.7,295.4,773.7,295.9,772.6,295.9z"/>
						<path id="Fill-16" class="st4" d="M822.5,203.4l4.3,64.4l5.6-64.4L822.5,203.4z M826.5,309.7L826.5,309.7
							c-1.6,0-2.9-1.2-3-2.8l-7.2-106.3c-0.1-0.8,0.2-1.6,0.8-2.2c0.6-0.6,1.4-0.9,2.2-0.9l16.4,0c0.8,0,1.6,0.4,2.2,1
							c0.6,0.6,0.8,1.4,0.8,2.3L829.5,307C829.4,308.5,828.1,309.7,826.5,309.7z"/>
						<path id="Fill-18" class="st4" d="M793.9,338l29.2,37.3l-23.4-34.8c-0.3-0.5-0.5-1-0.5-1.5l-1-23.4L793.9,338z M843.4,403.1
							c-1,0-1.9-0.5-2.5-1.3l-17-25.3c0.5,1.2,0.2,2.7-0.9,3.5c-1.3,1-3.2,0.8-4.2-0.5l-30.4-38.8c-0.5-0.7-0.7-1.6-0.6-2.4
							l9.3-49.4c0.3-1.5,1.6-2.5,3.2-2.4c1.5,0.1,2.7,1.3,2.8,2.9l2.1,48.6l40.8,60.5c0.9,1.4,0.6,3.2-0.8,4.2
							C844.6,402.9,844,403.1,843.4,403.1z"/>
						<path id="Fill-20" class="st4" d="M1308.6,456.4l9.2,7.5l-23.3-102l-23-2.3L1308.6,456.4z M1322.7,474.6
							c-0.7,0-1.3-0.2-1.9-0.7l-16.6-13.4c-0.4-0.3-0.7-0.8-0.9-1.3l-39.1-102.1c-0.4-1-0.2-2.1,0.4-2.9c0.6-0.8,1.7-1.3,2.7-1.2
							l29.9,3c1.3,0.1,2.3,1.1,2.6,2.3l25.7,112.5c0.3,1.2-0.3,2.5-1.3,3.2C1323.8,474.4,1323.2,474.6,1322.7,474.6z"/>
						<path id="Fill-22" class="st4" d="M1387.5,575.5c-1,0-2-0.5-2.6-1.4l-39.9-65.6c-0.5-0.9-0.6-2-0.1-2.9
							c0.5-0.9,1.4-1.5,2.4-1.6l16.6-1.6c1.2-0.1,2.4,0.5,3,1.7l29,59.1c0.7,1.5,0.1,3.3-1.4,4c-1.5,0.7-3.3,0.1-4-1.4l-28.1-57.2
							l-9.8,0.9l37.4,61.6c0.9,1.4,0.4,3.3-1,4.1C1388.6,575.3,1388,575.5,1387.5,575.5"/>
						<path id="Fill-24" class="st4" d="M1204.1,437.4l14.3,44.5l-2.5-43.1L1204.1,437.4z M1222.8,508.2c-1.3,0-2.4-0.8-2.8-2.1
							l-22.9-71.3c-0.3-1-0.1-2,0.5-2.8c0.6-0.8,1.6-1.2,2.7-1.1l18.9,2.3c1.4,0.2,2.5,1.4,2.6,2.8l4,69c0.1,1.5-1,2.8-2.4,3.1
							C1223.2,508.2,1223,508.2,1222.8,508.2z"/>
						<path id="Fill-26" class="st4" d="M971.2,259.8c1.1,0,2.1,0.6,2.6,1.5l39.8,70.4L991,246.9l-68.2-48.2l31.6,41.8
							c0.7,1,0.8,2.2,0.2,3.3l-9.1,15.9L971.2,259.8L971.2,259.8z M1022.5,356.6c-1.1,0-2.1-0.6-2.6-1.5l-50.5-89.3l-29.1,0h0
							c-1.1,0-2-0.6-2.6-1.5c-0.5-0.9-0.5-2.1,0-3l10.6-18.7l-42-55.6c-0.9-1.2-0.8-2.8,0.2-3.9c1-1.1,2.7-1.2,3.9-0.4l84.8,59.9
							c0.6,0.4,1,1,1.2,1.7l28.9,108.5c0.4,1.5-0.4,3-1.8,3.5C1023.3,356.6,1022.9,356.6,1022.5,356.6z"/>
						<path id="Fill-28" class="st4" d="M1161.6,710.3c-0.9,0-1.7-0.4-2.3-1.1L967.5,474.7l-96.2-42.5c-0.3-0.2-0.7-0.4-0.9-0.6
							l-244-245.9l-5.5,0L504,331.4c-1,1.3-2.9,1.5-4.2,0.5c-1.3-1-1.5-2.9-0.5-4.2l117.8-146.9c0.6-0.7,1.4-1.1,2.3-1.1l8.2,0
							c0.8,0,1.6,0.3,2.1,0.9l244.5,246.4l96.3,42.6c0.4,0.2,0.8,0.5,1.1,0.8l192.3,235c1,1.3,0.9,3.2-0.4,4.2
							C1163,710.1,1162.3,710.3,1161.6,710.3"/>
						<path id="Fill-30" class="st4" d="M647.5,275.1l201.9,135.2L626.5,185.7l-3.1,0L647.5,275.1z M872.6,432.4
							c-0.6,0-1.2-0.2-1.7-0.5L643.2,279.4c-0.6-0.4-1-1-1.2-1.7l-25.4-94.2c-0.2-0.9-0.1-1.9,0.5-2.6c0.6-0.7,1.4-1.2,2.4-1.2
							l8.2,0c0.8,0,1.6,0.3,2.1,0.9l244.9,246.8c1.1,1.1,1.2,2.8,0.2,4C874.3,432.1,873.4,432.4,872.6,432.4z"/>
						<path id="Fill-32" class="st4" d="M895.4,802.6c-0.8,0-1.5-0.3-2.1-0.8L652.8,568.3c-0.3-0.3-0.5-0.7-0.7-1l-35.2-89.2
							l-80.8-100.8l-13.2-2c-1.2-0.2-2.1-1-2.5-2.2l-6-22.9l-53.7-67l-38.6,10.3l-11.2,14l-6.7,20.6c-0.3,0.9-0.9,1.5-1.8,1.9
							l-13.8,5.3l-74.3,92.6l-3.4,18c-0.2,1.1-1,2-2.2,2.3l-13.8,3.8l-16.4,20.5c-1,1.3-2.9,1.5-4.2,0.5c-1.3-1-1.5-2.9-0.5-4.2
							l17-21.2c0.4-0.5,0.9-0.8,1.5-1l12.9-3.5l3.2-16.9c0.1-0.5,0.3-0.9,0.6-1.3l75.2-93.8c0.3-0.4,0.8-0.7,1.3-0.9l13.2-5.1
							l6.4-19.8c0.1-0.3,0.3-0.7,0.5-0.9l12.2-15.2c0.4-0.5,0.9-0.9,1.6-1l41.4-11c1.1-0.3,2.4,0.1,3.1,1l55.3,69
							c0.3,0.3,0.5,0.7,0.6,1.1l5.7,21.6l12.4,1.9c0.7,0.1,1.4,0.5,1.9,1.1l81.9,102.1c0.2,0.2,0.3,0.5,0.4,0.8l35.1,89l240,233
							c1.2,1.2,1.2,3,0.1,4.2C896.9,802.3,896.1,802.6,895.4,802.6"/>
						<path id="Fill-34" class="st4" d="M628.2,583.6l159.6,115.8l-135-131.1c-0.3-0.3-0.5-0.7-0.7-1l-35.2-89.2l-80.8-100.8
							l-13.2-2c-1.2-0.2-2.1-1-2.5-2.2l-6-22.9l-47.7-59.4l31.1,177.7l80,21.6c0.8,0.2,1.5,0.8,1.9,1.5L628.2,583.6z M819.9,729.4
							c-0.6,0-1.2-0.2-1.8-0.6L624.1,588c-0.4-0.3-0.7-0.6-0.9-1L575,495.5l-80.5-21.8c-1.1-0.3-2-1.2-2.2-2.4l-33.5-191
							c-0.2-1.3,0.5-2.7,1.7-3.2c1.2-0.6,2.7-0.2,3.6,0.9l55.3,69c0.3,0.3,0.5,0.7,0.6,1.1l5.7,21.6l12.4,1.9
							c0.7,0.1,1.4,0.5,1.9,1.1l81.8,102.1c0.2,0.2,0.3,0.5,0.4,0.8l35.1,89L822,724.3c1.1,1.1,1.2,2.9,0.2,4.1
							C821.6,729,820.8,729.4,819.9,729.4z"/>
						<path id="Fill-36" class="st4" d="M527.1,375.9l6.4,31.7l1.1-30.6L527.1,375.9z M535.5,436c-1.4,0-2.6-1-2.9-2.4l-12.2-60.7
							c-0.2-1,0.1-1.9,0.8-2.7c0.7-0.7,1.6-1,2.6-0.9l14.4,2.1c1.5,0.2,2.6,1.5,2.6,3.1l-2.2,58.5c-0.1,1.5-1.2,2.7-2.7,2.9
							C535.7,436,535.6,436,535.5,436z"/>
						<path id="Fill-38" class="st4" d="M389.7,334.8l-1.2,31.1L397,332L389.7,334.8z M384.3,397.6c-0.1,0-0.3,0-0.4,0
							c-1.5-0.2-2.6-1.5-2.6-3.1l2.5-61.9c0-1.2,0.8-2.2,1.9-2.7l14.5-5.6c1-0.4,2.2-0.2,3.1,0.6c0.8,0.7,1.2,1.9,0.9,3l-17,67.4
							C386.9,396.7,385.7,397.6,384.3,397.6z"/>
						<path id="Fill-40" class="st4" d="M302.5,503.1l0.1,0.6c0-1.1,0.1-1.4,0.2-1.7c0.4-1.1,7.1-18.7,10.9-28.8l-7.8-24.3l-8.4,2.3
							l10.8,21.9c0.3,0.6,0.4,1.3,0.2,2L302.5,503.1z M310.2,543.8c-1.4,0-2.6-1-2.9-2.4c-1.2-0.1-2.3-1-2.6-2.3l-8.2-35.3
							c-0.1-0.4-0.1-0.9,0-1.3l6-27.6l-11.9-24.2c-0.4-0.8-0.4-1.7,0-2.6c0.4-0.8,1.1-1.4,1.9-1.7l14.7-4c1.5-0.4,3.1,0.4,3.6,2
							l9,28c0.2,0.6,0.2,1.3-0.1,2c-0.4,1.1-9.6,25.4-11.2,29.4c0.1,1.6,0.7,8.3,4.5,36.7c0.2,1.6-0.9,3.1-2.6,3.4
							C310.5,543.8,310.3,543.8,310.2,543.8z"/>
						<path id="Fill-42" class="st4" d="M512.3,628.3l73.5,66.9L526.6,624c-0.2-0.3-0.4-0.6-0.5-0.9l-30.8-87.2l-53.9-28.1
							c-0.9-0.5-1.5-1.3-1.6-2.3L423.4,379v138.1l40.5,22.2c0.5,0.3,0.9,0.7,1.2,1.2L512.3,628.3z M615.7,729.4
							c-0.7,0-1.4-0.3-2-0.8l-105.8-96.3c-0.2-0.2-0.5-0.5-0.6-0.8l-47.1-87.4L419,521.5c-1-0.5-1.6-1.5-1.6-2.6V332.7
							c0-1.6,1.2-2.9,2.8-3c1.6-0.1,3,1,3.2,2.6l22.2,170.9l53.5,27.9c0.7,0.4,1.2,0.9,1.4,1.7l31,87.8L618,724.5
							c1,1.2,0.9,3-0.2,4.1C617.2,729.1,616.5,729.4,615.7,729.4z"/>
						<path id="Fill-46" class="st4" d="M604.3,829.3c-0.8,0-1.5-0.3-2.1-0.8L298.5,533.6c-0.3-0.3-0.5-0.7-0.7-1l-35.2-89.2
							l-155.6-194L4.9,337c-1.3,1.1-3.1,0.9-4.2-0.3c-1.1-1.3-0.9-3.1,0.3-4.2l104.5-89.7c0.6-0.5,1.4-0.8,2.2-0.7
							c0.8,0.1,1.6,0.5,2.1,1.1l157.8,196.8c0.2,0.2,0.3,0.5,0.4,0.8l35.1,89l303.2,294.4c1.2,1.2,1.2,3,0.1,4.2
							C605.8,829,605,829.3,604.3,829.3"/>
						<path id="Fill-48" class="st4" d="M273.9,548.9l159.6,115.8l-135-131.1c-0.3-0.3-0.5-0.7-0.7-1l-35.2-89.2L112.4,256
							l31.1,177.7l80,21.6c0.8,0.2,1.5,0.8,1.9,1.5L273.9,548.9z M465.6,694.7c-0.6,0-1.2-0.2-1.8-0.6l-194-140.8
							c-0.4-0.3-0.7-0.6-0.9-1l-48.2-91.5L140.2,439c-1.1-0.3-2-1.2-2.2-2.4l-33.5-191c-0.2-1.3,0.5-2.7,1.7-3.2
							c1.2-0.6,2.7-0.2,3.6,0.9l157.8,196.8c0.2,0.2,0.3,0.5,0.4,0.8l35.1,89l164.5,159.8c1.1,1.1,1.2,2.9,0.2,4.1
							C467.3,694.3,466.5,694.7,465.6,694.7z"/>
						<path id="Fill-50" class="st4" d="M60.2,443.3l33.7,22.9c0.3,0.2,0.6,0.5,0.8,0.9l14.4,22.4l-17.6-41.8l-45.6-47.4l12.7,22.1
							c0.2,0.4,0.4,0.9,0.4,1.3L60.2,443.3z M125.4,523.2c-1,0-2-0.5-2.5-1.4l-32.8-51.1l-34.4-23.4c-0.8-0.5-1.3-1.4-1.3-2.3
							l-1.2-20.4l-24.6-42.6c-0.8-1.3-0.4-3,0.8-3.9c1.2-0.9,2.9-0.8,4,0.3l63,65.3c0.3,0.3,0.5,0.6,0.6,0.9l31.3,74.3
							c0.6,1.4,0,3.1-1.4,3.8C126.4,523.1,125.9,523.2,125.4,523.2z"/>
					</g>
				</g>
			</g>
		</g>
	</g>
</g>
</svg>
