<svg xmlns="http://www.w3.org/2000/svg" xmlns:xlink="http://www.w3.org/1999/xlink" width="120" height="168" viewBox="0 0 120 168">
  <defs>
    <style>
      .\39 cbdc1bd-5aa2-48cf-91cc-3fd33fcf806f {
        fill: url(#0499095f-e3d8-46ff-9da1-2e52175af426);
      }

      .\30 38a7aed-0f63-4727-b900-5b2cfb27cd4f {
        fill: url(#91dae09f-7ae2-4d98-b9c3-764c147b43bb);
      }

      .bdd9e886-39c0-4628-a88d-f47da44381cd {
        fill: url(#fe2b5cd7-34e6-470a-9e91-b8adf44ef322);
      }

      .a980e38c-c1d6-4a24-ad3b-2d335b81aa56 {
        fill: url(#f3ef46b9-877d-4752-bead-805a1f1e908e);
      }

      .ac3bd9e9-e54f-4112-b7d0-93518b195058 {
        fill: url(#4a20bbae-054a-4d74-ae84-18fdae7b6957);
      }
    </style>
    <linearGradient id="0499095f-e3d8-46ff-9da1-2e52175af426" data-name="New Gradient Swatch 2" x1="89.77" y1="9.43" x2="-22.37" y2="139.65" gradientTransform="matrix(1, 0, 0, -1, 0, 168)" gradientUnits="userSpaceOnUse">
      <stop offset="0.2" stop-color="#41b782"/>
      <stop offset="1" stop-color="#86d169"/>
    </linearGradient>
    <linearGradient id="91dae09f-7ae2-4d98-b9c3-764c147b43bb" x1="101.64" y1="19.65" x2="-10.5" y2="149.87" xlink:href="#0499095f-e3d8-46ff-9da1-2e52175af426"/>
    <linearGradient id="fe2b5cd7-34e6-470a-9e91-b8adf44ef322" x1="113.5" y1="29.87" x2="1.37" y2="160.09" xlink:href="#0499095f-e3d8-46ff-9da1-2e52175af426"/>
    <linearGradient id="f3ef46b9-877d-4752-bead-805a1f1e908e" x1="116.18" y1="32.17" x2="4.05" y2="162.4" xlink:href="#0499095f-e3d8-46ff-9da1-2e52175af426"/>
    <linearGradient id="4a20bbae-054a-4d74-ae84-18fdae7b6957" x1="109.55" y1="26.46" x2="-2.59" y2="156.68" gradientTransform="matrix(1, 0, 0, 1, 0, 0)" xlink:href="#0499095f-e3d8-46ff-9da1-2e52175af426"/>
  </defs>
  <title>document</title>
  <g id="5e16f12e-bd04-41d3-ae33-82fd439374f0" data-name="Layer 2">
    <g id="5e208e3f-a47b-44df-89ac-358d1f4928c2" data-name="Layer 2">
      <g>
        <g>
          <rect class="9cbdc1bd-5aa2-48cf-91cc-3fd33fcf806f" x="24" y="120" width="72" height="8" rx="1" ry="1"/>
          <rect class="038a7aed-0f63-4727-b900-5b2cfb27cd4f" x="24" y="96" width="72" height="8" rx="1" ry="1"/>
          <rect class="bdd9e886-39c0-4628-a88d-f47da44381cd" x="24" y="72" width="72" height="8" rx="1" ry="1"/>
          <rect class="a980e38c-c1d6-4a24-ad3b-2d335b81aa56" x="24" y="48" width="40" height="8" rx="1" ry="1"/>
        </g>
        <path class="ac3bd9e9-e54f-4112-b7d0-93518b195058" d="M4,0A4,4,0,0,0,0,4V164a4,4,0,0,0,4,4H116a4,4,0,0,0,4-4V50.9a8.05,8.05,0,0,0-1.85-5.13L82.4,2.88A8,8,0,0,0,76.25,0ZM81.77,14.12l26.86,32.24a1,1,0,0,1-.77,1.64H81a1,1,0,0,1-1-1V14.77A1,1,0,0,1,81.77,14.12ZM8,159V9A1,1,0,0,1,9,8H71a1,1,0,0,1,1,1V52a4,4,0,0,0,4,4h35a1,1,0,0,1,1,1V159a1,1,0,0,1-1,1H9A1,1,0,0,1,8,159Z"/>
      </g>
    </g>
  </g>
</svg>
