<svg xmlns="http://www.w3.org/2000/svg" xmlns:xlink="http://www.w3.org/1999/xlink" width="200" height="200" viewBox="0 0 200 200">
  <defs>
    <style>
      .\31 b84dc86-3a78-4868-9de2-89d8c634fa76 {
        fill: url(#437a5b47-de73-4d73-9c98-0a0d89c43fe7);
      }

      .\39 fbe928c-070b-4b61-b3f8-d17d86b0bdae {
        fill: #fff;
      }
    </style>
    <linearGradient id="437a5b47-de73-4d73-9c98-0a0d89c43fe7" data-name="New Gradient Swatch 16" x1="49.99" y1="186.62" x2="150.01" y2="13.38" gradientUnits="userSpaceOnUse">
      <stop offset="0" stop-color="#86d169"/>
      <stop offset="1" stop-color="#41b782"/>
    </linearGradient>
  </defs>
  <title>idea-o</title>
  <g id="5cc22ffa-8f1d-4f37-a96e-21597c24321b" data-name="Layer 2">
    <g id="7b1d5448-815c-453a-81c6-c2dff040dde8" data-name="Layer 1">
      <g>
        <circle class="1b84dc86-3a78-4868-9de2-89d8c634fa76" cx="100" cy="100" r="100"/>
        <g>
          <path class="9fbe928c-070b-4b61-b3f8-d17d86b0bdae" d="M132.41,47A46.41,46.41,0,0,0,98.18,34a46.72,46.72,0,0,0-30.41,80.52,27.78,27.78,0,0,1,8.9,20.2v12.94a8.72,8.72,0,0,0,7.06,8.54,16.52,16.52,0,0,0,32.52.13,8.71,8.71,0,0,0,8.06-8.67V133.8a27,27,0,0,1,8.06-19.4,46.73,46.73,0,0,0,0-67.37ZM100,162.21a8.87,8.87,0,0,1-8.33-5.85h16.66A8.87,8.87,0,0,1,100,162.21Zm15.6-13.51H85.37a1,1,0,0,1-1-1s0-9.71,0-12.51a.75.75,0,0,1,.75-.75h30.82a.74.74,0,0,1,.75.75v12.51A1,1,0,0,1,115.6,148.7Zm-22-53.41L97.32,99a3.83,3.83,0,0,0,5.36,0l3.75-3.67-4.89,30.82a.76.76,0,0,1-.75.63H99.21a.76.76,0,0,1-.75-.63Zm33.5,13.58a34.25,34.25,0,0,0-9.58,17.28.75.75,0,0,1-.73.59h-6.68a.75.75,0,0,1-.74-.87l6.49-40.8a3.83,3.83,0,0,0-6.46-3.35l-8.84,8.64a.75.75,0,0,1-1,0l-8.84-8.64a3.83,3.83,0,0,0-6.46,3.35l6.49,40.8a.75.75,0,0,1-.74.87h-6a.75.75,0,0,1-.72-.56A36.54,36.54,0,0,0,73.05,109,39.06,39.06,0,0,1,98.47,41.66l1.54,0a39.06,39.06,0,0,1,27.05,67.24Z"/>
          <path class="9fbe928c-070b-4b61-b3f8-d17d86b0bdae" d="M69.07,78.35l6.16.25a.75.75,0,0,0,.77-.7A24,24,0,0,1,91,57.34a.76.76,0,0,0,.43-1l-2.16-5.77a.75.75,0,0,0-1-.44A31.67,31.67,0,0,0,68.35,77.55.75.75,0,0,0,69.07,78.35Z"/>
        </g>
      </g>
    </g>
  </g>
</svg>
