<svg xmlns="http://www.w3.org/2000/svg" xmlns:xlink="http://www.w3.org/1999/xlink" width="124.61" height="181.2" viewBox="0 0 124.61 181.2">
  <defs>
    <style>
      .\36 8f62a79-e613-40b2-9d4c-bbf3dc4e74f2 {
        fill: url(#03c6c8cf-aa60-4027-9152-e70ac6bc98b4);
      }

      .\38 7736526-8fa0-42d9-b54a-ec7262aea7ff {
        fill: url(#f33b037b-983b-4628-980c-796a58814b35);
      }
    </style>
    <linearGradient id="03c6c8cf-aa60-4027-9152-e70ac6bc98b4" data-name="New Gradient Swatch 4" x1="8.31" y1="136.31" x2="116.37" y2="28.25" gradientUnits="userSpaceOnUse">
      <stop offset="0" stop-color="#fbda89"/>
      <stop offset="0.22" stop-color="#fad37f"/>
      <stop offset="0.59" stop-color="#f7bf64"/>
      <stop offset="1" stop-color="#f4a53f"/>
    </linearGradient>
    <linearGradient id="f33b037b-983b-4628-980c-796a58814b35" x1="18.91" y1="57.4" x2="51.11" y2="25.2" xlink:href="#03c6c8cf-aa60-4027-9152-e70ac6bc98b4"/>
  </defs>
  <title>idea</title>
  <g id="5a898593-8cbc-457d-8770-8e36b069a2fd" data-name="Layer 2">
    <g id="e5e6271a-8d71-46b0-8e14-d4e028643925" data-name="Layer 1">
      <g>
        <path class="68f62a79-e613-40b2-9d4c-bbf3dc4e74f2" d="M105.51,17.42A61.78,61.78,0,0,0,59.88.05,62.3,62.3,0,0,0,19.33,107.41,37,37,0,0,1,31.2,134.34v17.25A11.62,11.62,0,0,0,40.61,163a22,22,0,0,0,43.36.17,11.6,11.6,0,0,0,10.74-11.56V133.11a35.93,35.93,0,0,1,10.76-25.87,62.3,62.3,0,0,0,0-89.82ZM62.31,171a11.84,11.84,0,0,1-11.11-7.8H73.41A11.83,11.83,0,0,1,62.31,171Zm20.8-18H42.8a1.39,1.39,0,0,1-1.39-1.39s0-13,0-16.68a1,1,0,0,1,1-1H83.5a1,1,0,0,1,1,1v16.68A1.39,1.39,0,0,1,83.11,153ZM53.73,81.77l5,4.89a5.09,5.09,0,0,0,7.13,0l5-4.89-6.54,41.08a1,1,0,0,1-1,.85H61.25a1,1,0,0,1-1-.85ZM98.39,99.88a45.6,45.6,0,0,0-12.78,23,1,1,0,0,1-1,.79H75.73a1,1,0,0,1-1-1.16L83.4,68.13a5.11,5.11,0,0,0-8.62-4.45L63,75.19a1,1,0,0,1-1.39,0L49.83,63.68a5.1,5.1,0,0,0-8.61,4.45l8.65,54.41a1,1,0,0,1-1,1.16h-8a1,1,0,0,1-1-.75A48.66,48.66,0,0,0,26.38,100,52.08,52.08,0,0,1,60.27,10.25c.68,0,1.37,0,2,0A52.09,52.09,0,0,1,98.39,99.88Z"/>
        <path class="87736526-8fa0-42d9-b54a-ec7262aea7ff" d="M21.06,59.18l8.21.33a1,1,0,0,0,1-.94,32.05,32.05,0,0,1,20-27.41,1,1,0,0,0,.57-1.27L48,22.19a1,1,0,0,0-1.31-.58A42.26,42.26,0,0,0,20.1,58.12,1,1,0,0,0,21.06,59.18Z"/>
      </g>
    </g>
  </g>
</svg>
