<?xml version="1.0" encoding="UTF-8"?>
<svg width="139px" height="95px" viewBox="0 0 139 95" version="1.1" xmlns="http://www.w3.org/2000/svg" xmlns:xlink="http://www.w3.org/1999/xlink">
    <!-- Generator: Sketch 49.3 (51167) - http://www.bohemiancoding.com/sketch -->
    <title>Group</title>
    <desc>Created with Sketch.</desc>
    <defs>
        <linearGradient x1="88.6016978%" y1="0%" x2="22.5628609%" y2="73.2131916%" id="linearGradient-1">
            <stop stop-color="#86D169" offset="0%"></stop>
            <stop stop-color="#41B782" offset="100%"></stop>
        </linearGradient>
    </defs>
    <g id="Payment-Flow" stroke="none" stroke-width="1" fill="none" fill-rule="evenodd">
        <g id="Pricing-Page-ðŸ‘" transform="translate(-1180.000000, -284.000000)">
            <g id="Group" transform="translate(1180.000000, 284.000000)">
                <path d="M68.8646757,58.6642229 C54.7974896,58.6642229 43.393782,47.0630148 43.393782,32.7521994 C43.393782,18.441384 54.7974896,6.84017595 68.8646757,6.84017595 C82.9318619,6.84017595 94.3355695,18.441384 94.3355695,32.7521994 C94.3355695,47.0630148 82.9318619,58.6642229 68.8646757,58.6642229 Z M57.3940014,63.6260997 L80.3353501,63.6260997 C94.1424689,63.6260997 105.33535,74.818981 105.33535,88.6260997 L105.33535,94.5 L32.3940014,94.5 L32.3940014,88.6260997 C32.3940014,74.818981 43.5868826,63.6260997 57.3940014,63.6260997 Z" id="Combined-Shape" fill="url(#linearGradient-1)"></path>
                <path d="M93.6508171,50.9507717 C97.2867853,45.8345747 99.4297482,39.5479791 99.4297482,32.7521994 C99.4297482,21.7873247 93.8509145,12.1480231 85.4233449,6.61167496 C89.8586918,2.79862533 95.5926223,0.5 101.854286,0.5 C115.921472,0.5 127.32518,12.1012081 127.32518,26.4120235 C127.32518,40.7228389 115.921472,52.3240469 101.854286,52.3240469 C98.9841776,52.3240469 96.2249438,51.8411157 93.6508171,50.9507717 Z" id="Combined-Shape" fill="#FFFFFF"></path>
                <path d="M92.1677242,57.2859238 L113.32496,57.2859238 C127.132079,57.2859238 138.32496,68.478805 138.32496,82.2859238 L138.32496,88.159824 L112.627743,88.159824 C112.477662,74.1065522 102.64611,62.3029215 89.3855463,59.2518682 C90.3496923,58.6481579 91.2783892,57.9915162 92.1677242,57.2859238 Z" id="Combined-Shape" fill="#FFFFFF"></path>
                <path d="M51.651435,6.61167496 C43.2238654,12.1480231 37.6450317,21.7873247 37.6450317,32.7521994 C37.6450317,39.5479791 39.7879946,45.8345747 43.4239628,50.9507717 C40.8498362,51.8411157 38.0906024,52.3240469 35.2204941,52.3240469 C21.153308,52.3240469 9.74960041,40.7228389 9.74960041,26.4120235 C9.74960041,12.1012081 21.153308,0.5 35.2204941,0.5 C41.4821576,0.5 47.2160881,2.79862533 51.651435,6.61167496 Z" id="Combined-Shape" fill="#FFFFFF"></path>
                <path d="M46.3176885,57.2877467 C47.3792522,58.1298194 48.4968862,58.9021515 49.6639376,59.5979747 C36.9121423,63.192376 27.3565374,74.4692442 26.0152555,88.159824 L0.15815471,88.159824 L0.15815471,84.8519062 C0.15815471,69.6276345 12.2897585,57.2859238 27.2548502,57.2859238 L46.002808,57.2859238 C46.107909,57.2859238 46.2128702,57.2865325 46.3176885,57.2877467 Z" id="Combined-Shape" fill="#FFFFFF"></path>
            </g>
        </g>
    </g>
</svg>