<svg xmlns="http://www.w3.org/2000/svg" xmlns:xlink="http://www.w3.org/1999/xlink" width="150.89" height="133.44" viewBox="0 0 150.89 133.44">
  <defs>
    <style>
      .\34 f09ddab-8b26-43ed-b071-025e23a26b6b {
        fill: url(#3deba478-2a6f-45ef-9a0f-bbc387a2b920);
      }
    </style>
    <linearGradient id="3deba478-2a6f-45ef-9a0f-bbc387a2b920" data-name="New Gradient Swatch 5" x1="19.93" y1="113.47" x2="139.45" y2="-6.05" gradientUnits="userSpaceOnUse">
      <stop offset="0" stop-color="#92e1ce"/>
      <stop offset="1" stop-color="#23b0a9"/>
    </linearGradient>
  </defs>
  <title>refresh</title>
  <g id="a42d89db-2f71-49ad-874f-0c4365a2b8b7" data-name="Layer 2">
    <g id="6b6aa75f-6212-48d0-83e0-7e0ebe4e23af" data-name="Layer 1">
      <path class="4f09ddab-8b26-43ed-b071-025e23a26b6b" d="M149.89,4.81H97.26a7,7,0,0,0-7,7V64.4a1,1,0,0,0,1,1h11.92a1,1,0,0,0,1-1V27.53a1,1,0,0,1,1.71-.72A54.08,54.08,0,1,1,52.81,13.47a1,1,0,0,0,.69-1.22L50.36.74A1,1,0,0,0,49.11,0a68,68,0,0,0,18.76,133.4c35.29.08,65.16-27.3,68-62.48a67.85,67.85,0,0,0-16.8-50.57,1,1,0,0,1,.76-1.65h30.08a1,1,0,0,0,1-1V5.81A1,1,0,0,0,149.89,4.81Z"/>
    </g>
  </g>
</svg>
