<svg xmlns="http://www.w3.org/2000/svg" xmlns:xlink="http://www.w3.org/1999/xlink" width="200" height="200" viewBox="0 0 200 200">
  <defs>
    <style>
      .\30 8a73be7-8f61-4659-9173-85d8edf683ef {
        fill: url(#cd284b14-8efb-4848-bfbb-4af0a39b7572);
      }

      .\38 d92b4f3-b293-4d02-831b-4e1ebe6c18e9 {
        fill: #fff;
      }
    </style>
    <linearGradient id="cd284b14-8efb-4848-bfbb-4af0a39b7572" data-name="New Gradient Swatch 16" x1="49.99" y1="186.62" x2="150.01" y2="13.38" gradientUnits="userSpaceOnUse">
      <stop offset="0" stop-color="#86d169"/>
      <stop offset="1" stop-color="#41b782"/>
    </linearGradient>
  </defs>
  <title>target-o</title>
  <g id="be76b136-6cdc-4ee1-b08c-9ff3f197f3d6" data-name="Layer 2">
    <g id="45e44dc4-07fc-4e4b-a696-1a08575cae93" data-name="Layer 1">
      <g>
        <circle class="08a73be7-8f61-4659-9173-85d8edf683ef" cx="100" cy="100" r="100"/>
        <path class="8d92b4f3-b293-4d02-831b-4e1ebe6c18e9" d="M167.89,96.25H150.44a.74.74,0,0,1-.74-.69A50,50,0,0,0,104.44,50.3a.74.74,0,0,1-.69-.74V32.11a.75.75,0,0,0-.75-.75H97a.75.75,0,0,0-.75.75V49.56a.74.74,0,0,1-.69.74A50,50,0,0,0,50.3,95.56a.74.74,0,0,1-.74.69H32.11a.75.75,0,0,0-.75.75v6a.75.75,0,0,0,.75.75H49.56a.74.74,0,0,1,.74.69A50,50,0,0,0,95.56,149.7a.74.74,0,0,1,.69.74v17.45a.75.75,0,0,0,.75.75h6a.75.75,0,0,0,.75-.75V150.44a.74.74,0,0,1,.69-.74,50,50,0,0,0,45.26-45.26.74.74,0,0,1,.74-.69h17.45a.75.75,0,0,0,.75-.75V97A.75.75,0,0,0,167.89,96.25Zm-64.14,45.14V125.6a.75.75,0,0,0-.75-.75H97a.75.75,0,0,0-.75.75v15.79a.75.75,0,0,1-.84.75,42.45,42.45,0,0,1-37.55-37.55.75.75,0,0,1,.75-.84H74.4a.75.75,0,0,0,.75-.75V97a.75.75,0,0,0-.75-.75H58.61a.75.75,0,0,1-.75-.84A42.45,42.45,0,0,1,95.41,57.86a.75.75,0,0,1,.84.75V74.4a.75.75,0,0,0,.75.75h6a.75.75,0,0,0,.75-.75V58.61a.75.75,0,0,1,.84-.75,42.45,42.45,0,0,1,37.55,37.55.75.75,0,0,1-.75.84H125.6a.75.75,0,0,0-.75.75v6a.75.75,0,0,0,.75.75h15.79a.75.75,0,0,1,.75.84,42.45,42.45,0,0,1-37.55,37.55A.75.75,0,0,1,103.75,141.39Z"/>
      </g>
    </g>
  </g>
</svg>
