<svg xmlns="http://www.w3.org/2000/svg" xmlns:xlink="http://www.w3.org/1999/xlink" width="183.04" height="183.04" viewBox="0 0 183.04 183.04">
  <defs>
    <style>
      .\36 94000c1-ccec-40a9-b115-cb997968fbed {
        fill: url(#a5890d4d-8b70-40ab-8666-557f0ab94167);
      }
    </style>
    <linearGradient id="a5890d4d-8b70-40ab-8666-557f0ab94167" data-name="New Gradient Swatch 16" y1="91.52" x2="183.04" y2="91.52" gradientUnits="userSpaceOnUse">
      <stop offset="0" stop-color="#86d169"/>
      <stop offset="1" stop-color="#41b782"/>
    </linearGradient>
  </defs>
  <title>target</title>
  <g id="04a48a5c-0aad-4d30-8ddc-b633536d715d" data-name="Layer 2">
    <g id="6164b693-be7c-4835-b98b-a8827c979a48" data-name="Layer 1">
      <path class="694000c1-ccec-40a9-b115-cb997968fbed" d="M182,86.51H158.77a1,1,0,0,1-1-.91A66.63,66.63,0,0,0,97.44,25.26a1,1,0,0,1-.92-1V1a1,1,0,0,0-1-1h-8a1,1,0,0,0-1,1V24.27a1,1,0,0,1-.91,1A66.63,66.63,0,0,0,25.26,85.6a1,1,0,0,1-1,.91H1a1,1,0,0,0-1,1v8a1,1,0,0,0,1,1H24.27a1,1,0,0,1,1,.92A66.63,66.63,0,0,0,85.6,157.78a1,1,0,0,1,.91,1V182a1,1,0,0,0,1,1h8a1,1,0,0,0,1-1V158.77a1,1,0,0,1,.92-1,66.63,66.63,0,0,0,60.34-60.34,1,1,0,0,1,1-.92H182a1,1,0,0,0,1-1v-8A1,1,0,0,0,182,86.51Zm-85.52,60.2V125.66a1,1,0,0,0-1-1h-8a1,1,0,0,0-1,1v21.05a1,1,0,0,1-1.1,1A56.62,56.62,0,0,1,35.33,97.63a1,1,0,0,1,1-1.11H57.38a1,1,0,0,0,1-1v-8a1,1,0,0,0-1-1H36.33a1,1,0,0,1-1-1.1A56.62,56.62,0,0,1,85.41,35.33a1,1,0,0,1,1.1,1V57.38a1,1,0,0,0,1,1h8a1,1,0,0,0,1-1V36.33a1,1,0,0,1,1.11-1,56.62,56.62,0,0,1,50.08,50.08,1,1,0,0,1-1,1.1H125.66a1,1,0,0,0-1,1v8a1,1,0,0,0,1,1h21.05a1,1,0,0,1,1,1.11,56.62,56.62,0,0,1-50.08,50.08A1,1,0,0,1,96.52,146.71Z"/>
    </g>
  </g>
</svg>
