<svg width="3704" height="1727" viewBox="0 0 3704 1727" fill="none" xmlns="http://www.w3.org/2000/svg">
<path d="M171.217 820.558L213.006 841.758C213.006 841.758 237.017 871.228 247.822 928.136C258.682 985.329 249.001 1021.1 249.001 1021.1L226.978 1065.18L171.217 820.558Z" fill="url(#paint0_radial)"/>
<path d="M41.537 584.985L66.652 584.547C66.652 584.547 84.263 591.923 100.214 614.498C116.245 637.187 117.908 655.234 117.908 655.234L114.833 679.843L41.537 584.985Z" fill="url(#paint1_radial)"/>
<path d="M197 1388.87L206.977 1445.71C206.977 1445.71 207.839 1483.71 181.43 1535.27C154.89 1587.08 125.291 1609.37 125.291 1609.37L80.842 1630.65L197 1388.87Z" fill="url(#paint2_radial)"/>
<path d="M242.65 1124.88C242.65 1358.67 150.26 1570.88 0 1726.98V522.771C150.26 678.88 242.65 891.09 242.65 1124.88Z" fill="url(#paint3_radial)"/>
<path d="M135.502 859.89C143.032 923.056 125.307 977.103 95.911 980.607C66.515 984.112 36.58 935.748 29.049 872.582C21.519 809.416 39.245 755.369 68.641 751.865C98.037 748.359 127.972 796.725 135.502 859.89Z" fill="url(#paint4_radial)"/>
<path d="M178.178 1287.31C168.637 1372.43 127.989 1437.75 87.389 1433.19C46.789 1428.64 21.612 1355.95 31.154 1270.83C40.695 1185.71 81.342 1120.39 121.942 1124.94C162.542 1129.49 187.719 1202.19 178.178 1287.31Z" fill="url(#paint5_radial)"/>
<path d="M118.493 861.784C125.244 918.42 111.552 966.616 87.91 969.434C64.268 972.252 39.628 928.626 32.876 871.991C26.125 815.356 39.817 767.159 63.459 764.341C87.102 761.522 111.741 805.149 118.493 861.784Z" fill="url(#paint6_radial)"/>
<path d="M149.375 1280.38C141.351 1351.97 109.048 1407.12 77.227 1403.55C45.404 1399.99 26.114 1339.06 34.138 1267.47C42.162 1195.87 74.465 1140.73 106.286 1144.29C138.108 1147.86 157.4 1208.79 149.375 1280.38Z" fill="url(#paint7_radial)"/>
<path d="M537.608 134.24C537.608 166.942 525.908 196.908 506.46 220.184C483.068 248.197 448.456 266.524 409.526 268.247C407.518 268.345 405.493 268.389 403.458 268.389C395.364 268.389 387.44 267.67 379.746 266.293H379.71C340.86 259.354 307.802 235.687 288.257 203.011L288.248 202.993C276.22 182.889 269.308 159.372 269.308 134.239C269.308 133.546 269.317 132.853 269.325 132.16C269.325 132.151 269.325 132.151 269.325 132.151C269.69 108.075 276.397 85.5459 287.849 66.1419C308.149 31.7599 343.348 7.22187 384.561 1.40387C390.736 0.54187 397.044 0.0888672 403.458 0.0888672C417.317 0.0888672 430.679 2.18588 443.25 6.09488C443.356 6.12088 443.454 6.14787 443.534 6.17487C443.579 6.18387 443.615 6.20188 443.65 6.21088C454.657 9.66688 465.06 14.4909 474.638 20.5139H474.646C502.604 38.0509 523.624 65.6009 532.695 98.1429C532.713 98.2229 532.722 98.2679 532.722 98.2679C535.165 107.027 536.728 116.152 537.324 125.541L537.333 125.631C537.519 128.483 537.608 131.353 537.608 134.24Z" fill="url(#paint8_linear)"/>
<path d="M443.25 6.09583C437.724 4.71883 397.559 -0.505177 382.402 32.6948C363.745 73.5618 331.763 100.659 300.668 102.435C278.938 103.679 269.335 132.197 269.335 132.197C269.335 132.197 269.335 132.189 269.325 132.162C269.325 132.153 269.325 132.153 269.325 132.153C269.69 108.077 276.397 85.5478 287.849 66.1438H287.858C302.739 65.1578 327.783 65.0418 341.98 35.8038C353.165 12.7768 374.327 4.27482 384.561 1.40582C390.736 0.543823 397.044 0.0908207 403.458 0.0908207C417.317 0.0898207 430.679 2.18683 443.25 6.09583Z" fill="url(#paint9_linear)"/>
<path d="M384.624 197.051C384.18 253.021 379.747 266.294 379.747 266.294H379.711C340.861 259.355 307.803 235.688 288.258 203.012L288.249 202.994C288.249 202.994 287.84 149.681 317.105 137.527C345.978 125.533 385.068 141.081 384.624 197.051Z" fill="url(#paint10_linear)"/>
<path d="M532.722 98.2686C532.722 98.2686 496.119 97.9926 487.68 136.195C477.721 181.282 491.5 229.327 441.394 262.936L409.527 268.249C409.527 268.249 419.975 240.068 421.938 213.932C425.936 160.627 394.433 133.904 403.459 80.6696C410.388 39.8026 443.153 20.5236 474.639 20.5156H474.647C502.605 38.0526 523.625 65.6027 532.696 98.1447C532.713 98.2237 532.722 98.2686 532.722 98.2686Z" fill="url(#paint11_linear)"/>
<path d="M537.608 134.24C537.608 166.942 525.908 196.908 506.46 220.184C503.031 123.819 537.323 125.541 537.323 125.541L537.332 125.631C537.519 128.483 537.608 131.353 537.608 134.24Z" fill="url(#paint12_linear)"/>
<path d="M3580.57 109.982C3581.82 112.471 3582.99 114.988 3584.03 117.521C3587.89 126.688 3590.53 136.097 3592.03 145.548C3592.03 145.564 3592.03 145.564 3592.03 145.564C3592.34 147.496 3592.6 149.437 3592.8 151.378C3592.98 152.862 3593.1 154.341 3593.21 155.821C3593.92 165.753 3593.39 175.663 3591.7 185.331L3591.7 185.348C3585.31 221.945 3562.27 255.156 3526.51 273.115C3502.17 285.339 3475.69 288.605 3450.78 284.178C3445.39 283.24 3440.07 281.913 3434.87 280.239C3434.86 280.245 3434.85 280.231 3434.85 280.231C3429.96 278.67 3425.17 276.789 3420.54 274.616C3413.22 271.2 3406.23 267.066 3399.68 262.222L3399.67 262.229C3394.51 258.416 3389.62 254.17 3385.07 249.505C3377.44 241.704 3370.75 232.742 3365.29 222.723C3364.63 221.524 3363.99 220.303 3363.37 219.071C3357.36 207.098 3353.51 194.606 3351.68 182.05C3350.7 175.381 3350.3 168.681 3350.44 162.032C3351.37 118.46 3375.78 76.8437 3417.43 55.9267C3455.43 36.8377 3498.68 39.5597 3532.92 59.3797L3532.93 59.3936C3542.79 65.0866 3551.92 72.2217 3559.95 80.6497C3568.05 89.1447 3575.04 98.9567 3580.57 109.982Z" fill="url(#paint13_linear)"/>
<path d="M3532.92 59.3784L3532.93 59.3924C3532.93 59.3924 3420.12 80.4124 3350.45 162.031C3350.7 150.385 3352.63 138.883 3356.12 127.869C3403.3 80.4044 3464.21 56.4984 3498.78 45.9844C3510.74 48.7104 3522.26 53.2124 3532.92 59.3784Z" fill="url(#paint14_linear)"/>
<path d="M3580.57 109.981C3581.82 112.47 3582.99 114.987 3584.03 117.52C3521.09 153.004 3435.12 198.092 3365.29 222.721C3364.63 221.522 3363.99 220.301 3363.37 219.069C3357.36 207.096 3353.52 194.604 3351.68 182.048C3450.45 110.706 3532.33 87.0604 3559.95 80.6484C3568.05 89.1444 3575.04 98.9564 3580.57 109.981Z" fill="url(#paint15_linear)"/>
<path d="M3593.21 155.821C3593.92 165.753 3593.4 175.663 3591.7 185.331L3591.7 185.348C3572.07 238.756 3491.14 284.574 3450.78 284.177C3445.4 283.239 3440.07 281.912 3434.87 280.238C3434.86 280.244 3434.85 280.23 3434.85 280.23C3545.78 247.932 3593.21 155.821 3593.21 155.821Z" fill="url(#paint16_linear)"/>
<path d="M3514.81 216.729C3516.84 223.626 3502.72 231.964 3491.94 238.838C3463.15 257.183 3420.54 274.614 3420.54 274.614C3413.22 271.198 3406.23 267.064 3399.68 262.22C3423.18 257.692 3459.37 238.608 3485.36 225.676C3507.41 214.704 3513.44 212.105 3514.81 216.729Z" fill="url(#paint17_linear)"/>
<path opacity="0.6" d="M3549.98 71.3069C3554.55 75.1289 3558.88 79.3299 3562.92 83.8889C3580.11 77.2659 3591.8 75.5939 3595 80.2619C3598.2 84.9419 3592.42 95.2329 3580.03 108.875C3561.29 129.479 3527.4 157.742 3486.51 185.75C3445.62 213.75 3407.02 235.123 3381.02 245.153C3363.81 251.783 3352.13 253.455 3348.92 248.777C3345.73 244.107 3351.51 233.816 3363.91 220.167C3361.12 214.757 3358.77 209.199 3356.86 203.559C3322.39 236.262 3304.11 263.207 3311.69 274.274C3319.27 285.339 3351.01 278.045 3393.97 257.745C3423.76 243.64 3458.95 223.292 3495.21 198.46C3531.46 173.634 3563.16 148.179 3587.08 125.485C3621.53 92.7899 3639.81 65.8309 3632.23 54.7659C3624.65 43.7009 3592.92 51.0039 3549.98 71.3069Z" fill="url(#paint18_linear)"/>
<path opacity="0.6" d="M3703.83 440.793C3703.83 457.363 3696.52 472.232 3684.95 482.343C3676.95 489.343 3666.9 494.063 3655.83 495.492C3653.48 495.793 3651.09 495.953 3648.67 495.953C3648.46 495.953 3648.25 495.953 3648.04 495.943C3617.87 495.613 3593.52 471.043 3593.52 440.793C3593.52 437.992 3593.73 435.242 3594.14 432.553C3595.03 426.513 3596.91 420.803 3599.61 415.573C3608.77 397.794 3627.3 385.634 3648.67 385.634C3667.24 385.634 3683.66 394.804 3693.66 408.864L3693.75 408.993C3698.41 415.584 3701.65 423.233 3703.05 431.524L3703.06 431.603C3703.48 434.083 3703.74 436.643 3703.81 439.233V439.294C3703.82 439.793 3703.83 440.293 3703.83 440.793Z" fill="url(#paint19_linear)"/>
<path d="M3703.83 440.793C3703.83 457.363 3696.52 472.232 3684.95 482.343C3690.74 469.003 3667.49 446.673 3665.99 440.793C3664.49 434.903 3662.33 433.673 3674.16 421.673C3685.99 409.673 3703.05 431.524 3703.05 431.524L3703.06 431.603L3703.81 439.233V439.294C3703.82 439.793 3703.83 440.293 3703.83 440.793Z" fill="url(#paint20_linear)"/>
<path d="M3655.83 495.492L3648.04 495.943C3617.87 495.613 3593.52 471.043 3593.52 440.793C3593.52 437.992 3593.73 435.242 3594.14 432.553C3594.37 432.412 3602.27 427.992 3608.99 426.673C3615.83 425.343 3620.99 428.013 3624.99 432.673C3628.99 437.343 3644.49 454.673 3652.99 466.843C3661.49 479.013 3655.83 495.492 3655.83 495.492Z" fill="url(#paint21_linear)"/>
<path d="M3693.75 408.992C3693.75 408.992 3679.83 398.013 3673.33 403.343C3666.83 408.673 3659.99 414.643 3656.16 418.072C3652.33 421.512 3646.66 427.673 3639.49 423.343C3632.33 419.013 3622.33 407.912 3615.99 408.043C3609.66 408.173 3605.71 411.133 3599.61 415.572C3608.77 397.793 3627.3 385.633 3648.67 385.633C3667.24 385.633 3683.66 394.803 3693.66 408.863L3693.75 408.992Z" fill="url(#paint22_linear)"/>
<defs>
<radialGradient id="paint0_radial" cx="0" cy="0" r="1" gradientUnits="userSpaceOnUse" gradientTransform="translate(3427.83 1279.03) rotate(-6.67924) scale(3791.43 3397.37)">
<stop stop-color="#65FFDB"/>
<stop offset="0.1499" stop-color="#40D6C8"/>
<stop offset="0.3839" stop-color="#008EA7"/>
<stop offset="0.4148" stop-color="#0087A0"/>
<stop offset="0.6864" stop-color="#00516A"/>
<stop offset="0.8896" stop-color="#003049"/>
<stop offset="1" stop-color="#00233C"/>
</radialGradient>
<radialGradient id="paint1_radial" cx="0" cy="0" r="1" gradientUnits="userSpaceOnUse" gradientTransform="translate(831.759 148.28) rotate(-4.91067) scale(939.173)">
<stop stop-color="#65FFDB"/>
<stop offset="0.1499" stop-color="#40D6C8"/>
<stop offset="0.3839" stop-color="#008EA7"/>
<stop offset="0.4148" stop-color="#0087A0"/>
<stop offset="0.6864" stop-color="#00516A"/>
<stop offset="0.8896" stop-color="#003049"/>
<stop offset="1" stop-color="#00233C"/>
</radialGradient>
<radialGradient id="paint2_radial" cx="0" cy="0" r="1" gradientUnits="userSpaceOnUse" gradientTransform="translate(2411.14 3773.19) rotate(31.1945) scale(3743.6 3354.68)">
<stop stop-color="#65FFDB"/>
<stop offset="0.1499" stop-color="#40D6C8"/>
<stop offset="0.3839" stop-color="#008EA7"/>
<stop offset="0.4148" stop-color="#0087A0"/>
<stop offset="0.6864" stop-color="#00516A"/>
<stop offset="0.8896" stop-color="#003049"/>
<stop offset="1" stop-color="#00233C"/>
</radialGradient>
<radialGradient id="paint3_radial" cx="0" cy="0" r="1" gradientUnits="userSpaceOnUse" gradientTransform="translate(2573.01 1735.87) scale(2872.92)">
<stop stop-color="#65FFDB"/>
<stop offset="0.1499" stop-color="#40D6C8"/>
<stop offset="0.3839" stop-color="#008EA7"/>
<stop offset="0.4148" stop-color="#0087A0"/>
<stop offset="0.6864" stop-color="#00516A"/>
<stop offset="0.8896" stop-color="#003049"/>
<stop offset="1" stop-color="#00233C"/>
</radialGradient>
<radialGradient id="paint4_radial" cx="0" cy="0" r="1" gradientUnits="userSpaceOnUse" gradientTransform="translate(2276.93 477.796) rotate(-0.694803) scale(2206.74 1984.9)">
<stop stop-color="#65FFDB"/>
<stop offset="0.1499" stop-color="#40D6C8"/>
<stop offset="0.3839" stop-color="#008EA7"/>
<stop offset="0.4148" stop-color="#0087A0"/>
<stop offset="0.6864" stop-color="#00516A"/>
<stop offset="0.8896" stop-color="#003049"/>
<stop offset="1" stop-color="#00233C"/>
</radialGradient>
<radialGradient id="paint5_radial" cx="0" cy="0" r="1" gradientUnits="userSpaceOnUse" gradientTransform="translate(1772.27 1434.02) rotate(0.793976) scale(1704.73 1496.39)">
<stop stop-color="#65FFDB"/>
<stop offset="0.1499" stop-color="#40D6C8"/>
<stop offset="0.3839" stop-color="#008EA7"/>
<stop offset="0.4148" stop-color="#0087A0"/>
<stop offset="0.6864" stop-color="#00516A"/>
<stop offset="0.8896" stop-color="#003049"/>
<stop offset="1" stop-color="#00233C"/>
</radialGradient>
<radialGradient id="paint6_radial" cx="0" cy="0" r="1" gradientUnits="userSpaceOnUse" gradientTransform="translate(1784.8 557.425) scale(1777.24)">
<stop stop-color="#65FFDB"/>
<stop offset="0.1499" stop-color="#40D6C8"/>
<stop offset="0.3839" stop-color="#008EA7"/>
<stop offset="0.4148" stop-color="#0087A0"/>
<stop offset="0.6864" stop-color="#00516A"/>
<stop offset="0.8896" stop-color="#003049"/>
<stop offset="1" stop-color="#00233C"/>
</radialGradient>
<radialGradient id="paint7_radial" cx="0" cy="0" r="1" gradientUnits="userSpaceOnUse" gradientTransform="translate(1353.54 1404.03) rotate(0.384146) scale(1337.1 1257.63)">
<stop stop-color="#65FFDB"/>
<stop offset="0.1499" stop-color="#40D6C8"/>
<stop offset="0.3839" stop-color="#008EA7"/>
<stop offset="0.4148" stop-color="#0087A0"/>
<stop offset="0.6864" stop-color="#00516A"/>
<stop offset="0.8896" stop-color="#003049"/>
<stop offset="1" stop-color="#00233C"/>
</radialGradient>
<linearGradient id="paint8_linear" x1="486.863" y1="48.2372" x2="144.398" y2="401.362" gradientUnits="userSpaceOnUse">
<stop stop-color="#9FFFC7"/>
<stop offset="0.109" stop-color="#76E1BF"/>
<stop offset="0.3535" stop-color="#0D96AA"/>
<stop offset="0.3839" stop-color="#008CA7"/>
<stop offset="0.5394" stop-color="#02627B"/>
<stop offset="0.753" stop-color="#052E45"/>
<stop offset="0.913" stop-color="#070D24"/>
<stop offset="1" stop-color="#080117"/>
</linearGradient>
<linearGradient id="paint9_linear" x1="427.402" y1="-53.3308" x2="146.665" y2="352.672" gradientUnits="userSpaceOnUse">
<stop stop-color="#9FFFC7"/>
<stop offset="0.109" stop-color="#76E1BF"/>
<stop offset="0.3535" stop-color="#0D96AA"/>
<stop offset="0.3839" stop-color="#008CA7"/>
<stop offset="0.5394" stop-color="#02627B"/>
<stop offset="0.753" stop-color="#052E45"/>
<stop offset="0.913" stop-color="#070D24"/>
<stop offset="1" stop-color="#080117"/>
</linearGradient>
<linearGradient id="paint10_linear" x1="491.227" y1="-9.19729" x2="210.489" y2="396.807" gradientUnits="userSpaceOnUse">
<stop stop-color="#9FFFC7"/>
<stop offset="0.109" stop-color="#76E1BF"/>
<stop offset="0.3535" stop-color="#0D96AA"/>
<stop offset="0.3839" stop-color="#008CA7"/>
<stop offset="0.5394" stop-color="#02627B"/>
<stop offset="0.753" stop-color="#052E45"/>
<stop offset="0.913" stop-color="#070D24"/>
<stop offset="1" stop-color="#080117"/>
</linearGradient>
<linearGradient id="paint11_linear" x1="529.05" y1="16.9557" x2="248.312" y2="422.96" gradientUnits="userSpaceOnUse">
<stop stop-color="#9FFFC7"/>
<stop offset="0.109" stop-color="#76E1BF"/>
<stop offset="0.3535" stop-color="#0D96AA"/>
<stop offset="0.3839" stop-color="#008CA7"/>
<stop offset="0.5394" stop-color="#02627B"/>
<stop offset="0.753" stop-color="#052E45"/>
<stop offset="0.913" stop-color="#070D24"/>
<stop offset="1" stop-color="#080117"/>
</linearGradient>
<linearGradient id="paint12_linear" x1="594.33" y1="62.0958" x2="313.593" y2="468.099" gradientUnits="userSpaceOnUse">
<stop stop-color="#9FFFC7"/>
<stop offset="0.109" stop-color="#76E1BF"/>
<stop offset="0.3535" stop-color="#0D96AA"/>
<stop offset="0.3839" stop-color="#008CA7"/>
<stop offset="0.5394" stop-color="#02627B"/>
<stop offset="0.753" stop-color="#052E45"/>
<stop offset="0.913" stop-color="#070D24"/>
<stop offset="1" stop-color="#080117"/>
</linearGradient>
<linearGradient id="paint13_linear" x1="2699.31" y1="-417.351" x2="3609.55" y2="268.131" gradientUnits="userSpaceOnUse">
<stop stop-color="#9FFFC7"/>
<stop offset="0.109" stop-color="#76E1BF"/>
<stop offset="0.3535" stop-color="#0D96AA"/>
<stop offset="0.3839" stop-color="#008CA7"/>
<stop offset="0.5394" stop-color="#02627B"/>
<stop offset="0.753" stop-color="#052E45"/>
<stop offset="0.913" stop-color="#070D24"/>
<stop offset="1" stop-color="#080117"/>
</linearGradient>
<linearGradient id="paint14_linear" x1="2753.31" y1="-407.696" x2="3663.56" y2="277.794" gradientUnits="userSpaceOnUse">
<stop stop-color="#9FFFC7"/>
<stop offset="0.109" stop-color="#76E1BF"/>
<stop offset="0.3535" stop-color="#0D96AA"/>
<stop offset="0.3839" stop-color="#008CA7"/>
<stop offset="0.5394" stop-color="#02627B"/>
<stop offset="0.753" stop-color="#052E45"/>
<stop offset="0.913" stop-color="#070D24"/>
<stop offset="1" stop-color="#080117"/>
</linearGradient>
<linearGradient id="paint15_linear" x1="2741.19" y1="-391.612" x2="3651.44" y2="293.879" gradientUnits="userSpaceOnUse">
<stop stop-color="#9FFFC7"/>
<stop offset="0.109" stop-color="#76E1BF"/>
<stop offset="0.3535" stop-color="#0D96AA"/>
<stop offset="0.3839" stop-color="#008CA7"/>
<stop offset="0.5394" stop-color="#02627B"/>
<stop offset="0.753" stop-color="#052E45"/>
<stop offset="0.913" stop-color="#070D24"/>
<stop offset="1" stop-color="#080117"/>
</linearGradient>
<linearGradient id="paint16_linear" x1="2727.94" y1="-373.961" x2="3638.16" y2="311.507" gradientUnits="userSpaceOnUse">
<stop stop-color="#9FFFC7"/>
<stop offset="0.109" stop-color="#76E1BF"/>
<stop offset="0.3535" stop-color="#0D96AA"/>
<stop offset="0.3839" stop-color="#008CA7"/>
<stop offset="0.5394" stop-color="#02627B"/>
<stop offset="0.753" stop-color="#052E45"/>
<stop offset="0.913" stop-color="#070D24"/>
<stop offset="1" stop-color="#080117"/>
</linearGradient>
<linearGradient id="paint17_linear" x1="2697.28" y1="-333.27" x2="3607.51" y2="352.206" gradientUnits="userSpaceOnUse">
<stop stop-color="#9FFFC7"/>
<stop offset="0.109" stop-color="#76E1BF"/>
<stop offset="0.3535" stop-color="#0D96AA"/>
<stop offset="0.3839" stop-color="#008CA7"/>
<stop offset="0.5394" stop-color="#02627B"/>
<stop offset="0.753" stop-color="#052E45"/>
<stop offset="0.913" stop-color="#070D24"/>
<stop offset="1" stop-color="#080117"/>
</linearGradient>
<linearGradient id="paint18_linear" x1="3411.88" y1="112.792" x2="3833.05" y2="475.385" gradientUnits="userSpaceOnUse">
<stop stop-color="#9FFFC7"/>
<stop offset="0.109" stop-color="#76E1BF"/>
<stop offset="0.3535" stop-color="#0D96AA"/>
<stop offset="0.3839" stop-color="#008CA7"/>
<stop offset="0.5394" stop-color="#02627B"/>
<stop offset="0.753" stop-color="#052E45"/>
<stop offset="0.913" stop-color="#070D24"/>
<stop offset="1" stop-color="#080117"/>
</linearGradient>
<linearGradient id="paint19_linear" x1="3134.71" y1="-142.164" x2="3730.71" y2="533.841" gradientUnits="userSpaceOnUse">
<stop stop-color="#9FFFC7"/>
<stop offset="0.109" stop-color="#76E1BF"/>
<stop offset="0.3535" stop-color="#0D96AA"/>
<stop offset="0.3839" stop-color="#008CA7"/>
<stop offset="0.5394" stop-color="#02627B"/>
<stop offset="0.753" stop-color="#052E45"/>
<stop offset="0.913" stop-color="#070D24"/>
<stop offset="1" stop-color="#080117"/>
</linearGradient>
<linearGradient id="paint20_linear" x1="3152.22" y1="-157.598" x2="3748.23" y2="518.402" gradientUnits="userSpaceOnUse">
<stop stop-color="#9FFFC7"/>
<stop offset="0.109" stop-color="#76E1BF"/>
<stop offset="0.3535" stop-color="#0D96AA"/>
<stop offset="0.3839" stop-color="#008CA7"/>
<stop offset="0.5394" stop-color="#02627B"/>
<stop offset="0.753" stop-color="#052E45"/>
<stop offset="0.913" stop-color="#070D24"/>
<stop offset="1" stop-color="#080117"/>
</linearGradient>
<linearGradient id="paint21_linear" x1="3109.38" y1="-119.815" x2="3705.38" y2="556.178" gradientUnits="userSpaceOnUse">
<stop stop-color="#9FFFC7"/>
<stop offset="0.109" stop-color="#76E1BF"/>
<stop offset="0.3535" stop-color="#0D96AA"/>
<stop offset="0.3839" stop-color="#008CA7"/>
<stop offset="0.5394" stop-color="#02627B"/>
<stop offset="0.753" stop-color="#052E45"/>
<stop offset="0.913" stop-color="#070D24"/>
<stop offset="1" stop-color="#080117"/>
</linearGradient>
<linearGradient id="paint22_linear" x1="3147.84" y1="-153.753" x2="3743.85" y2="522.259" gradientUnits="userSpaceOnUse">
<stop stop-color="#9FFFC7"/>
<stop offset="0.109" stop-color="#76E1BF"/>
<stop offset="0.3535" stop-color="#0D96AA"/>
<stop offset="0.3839" stop-color="#008CA7"/>
<stop offset="0.5394" stop-color="#02627B"/>
<stop offset="0.753" stop-color="#052E45"/>
<stop offset="0.913" stop-color="#070D24"/>
<stop offset="1" stop-color="#080117"/>
</linearGradient>
</defs>
</svg>
