<svg width="3263" height="1312" viewBox="0 0 3263 1312" fill="none" xmlns="http://www.w3.org/2000/svg">
<path d="M163.494 1260.75L109.876 1272.97L96.394 1263.99L171.758 1246.82L163.494 1260.75Z" fill="url(#paint0_linear)"/>
<path d="M400.526 1206.75L283.369 1233.44L267.23 1225.36L408.852 1193.1L400.526 1206.75Z" fill="url(#paint1_linear)"/>
<path d="M380.679 1064.98L381.679 1069.37C381.679 1069.37 378.495 1071.5 344.95 1087.62C311.405 1103.75 318.688 1111.83 251.166 1157.38C241.801 1163.7 231.346 1169.62 220.287 1175.14C218.793 1175.88 217.288 1176.62 215.774 1177.35C166.683 1201.01 107.262 1216.79 78.0951 1223.47C68.3421 1229.65 53.2871 1235.59 53.2871 1235.59C58.6571 1227.49 66.8251 1223.29 69.9841 1221.51C96.7971 1206.38 124.858 1182.69 161.399 1158.5C163.72 1156.96 166.075 1155.43 168.467 1153.89C177.314 1148.19 186.655 1142.5 196.585 1136.92C256.427 1103.26 380.679 1064.98 380.679 1064.98Z" fill="url(#paint2_linear)"/>
<path d="M458.2 1102.21L463.559 1125.74L447.585 1133.36L406.601 1152.93L382.911 1105.13L440.644 1102.89L458.2 1102.21Z" fill="url(#paint3_linear)"/>
<path d="M376.424 1104.91L397.826 1100.04C397.826 1100.04 417.449 1098.97 429.698 1113.66C441.947 1128.34 441.37 1140.32 441.37 1140.32L433.201 1153.31L376.424 1104.91Z" fill="url(#paint4_linear)"/>
<path d="M458.2 1102.21C458.2 1102.21 466.026 1103.65 468.08 1112.67C470.134 1121.68 463.559 1125.74 463.559 1125.74L447.585 1133.36C447.585 1133.36 455.505 1127.83 452.841 1116.14C450.177 1104.45 440.643 1102.89 440.643 1102.89L458.2 1102.21Z" fill="url(#paint5_linear)"/>
<path d="M11.1591 1272.48L257.427 1218.66L450.968 1172.29L459.562 1158.62L366.275 1082.77L0.394043 1261.41L11.1591 1272.48Z" fill="url(#paint6_linear)"/>
<path d="M402.003 1060.12L403.003 1064.51C403.003 1064.51 399.82 1066.64 366.274 1082.76C332.728 1098.89 340.012 1106.97 272.489 1152.52C265.267 1157.39 257.409 1162.01 249.135 1166.38C245.847 1168.11 242.496 1169.81 239.093 1171.46C185.46 1197.52 118.89 1213.63 92.9451 1219.32C81.8331 1221.85 65.798 1229.49 63.597 1230.55C96.23 1214.54 143.231 1177.63 193.996 1146.22C198.208 1143.61 202.446 1141.04 206.708 1138.52C210.427 1136.33 214.163 1134.17 217.908 1132.06C277.751 1098.4 402.003 1060.12 402.003 1060.12Z" fill="url(#paint7_linear)"/>
<path d="M428.984 1189.08L33.7551 1279.12L21.7971 1270.05L262.154 1215.3L439.127 1174.98L428.984 1189.08Z" fill="url(#paint8_linear)"/>
<path d="M0.394043 1261.41L93.4971 1240.2L108.964 1250.2L11.1591 1272.48L0.394043 1261.41Z" fill="url(#paint9_linear)"/>
<path d="M21.7971 1270.05L114.901 1248.84L131.56 1256.84L33.7551 1279.12L21.7971 1270.05Z" fill="url(#paint10_linear)"/>
<path d="M487.608 1102.92C487.608 1102.92 686.295 968.043 1032.49 1010.9C1524.69 1071.83 1587.61 748.406 1587.61 748.406C1587.61 748.406 1358.33 1100.98 1020.94 1069.66C790.212 1048.25 714.266 1056.93 487.608 1102.92Z" fill="url(#paint11_linear)"/>
<path d="M1443.91 1311.61C1443.91 1311.61 1544.57 1243.59 1696.95 1174.17C1492.79 1224.71 1443.91 1311.61 1443.91 1311.61Z" fill="url(#paint12_linear)"/>
<path d="M2368.67 1031.75C2126.52 1006.37 1875.91 1092.64 1696.95 1174.17C1835.85 1139.78 2046.92 1119.85 2362.81 1160.33C2636 1195.33 3107.31 1095.01 3192.97 678.941C3107.31 906.023 2943.51 1092.01 2368.67 1031.75Z" fill="url(#paint13_linear)"/>
<path d="M3191.33 0.132812C3297.49 811.529 3110.75 993.365 2744.5 1128.5C2715.69 1139.13 2577 1174.17 2406.1 1164.73C2557 1149 2651.39 1137 2789.02 1063.03C2897 1005 2980.24 912.047 3064.06 728.601C3187.84 457.711 3191.33 0.132812 3191.33 0.132812Z" fill="url(#paint14_linear)"/>
<path d="M3262.99 793.649V1051.64C3083.08 1191.66 2814 1288.89 2409.99 1166.11C2642.77 1176.15 2985.29 1162.9 3233.35 829.199C3242.51 816.869 3252.42 805.029 3262.99 793.649Z" fill="url(#paint15_linear)"/>
<defs>
<linearGradient id="paint0_linear" x1="941.803" y1="752.476" x2="-159.991" y2="1444.46" gradientUnits="userSpaceOnUse">
<stop stop-color="#9FFFC7"/>
<stop offset="0.109" stop-color="#76E1BF"/>
<stop offset="0.3535" stop-color="#0D96AA"/>
<stop offset="0.3839" stop-color="#008CA7"/>
<stop offset="0.5394" stop-color="#02627B"/>
<stop offset="0.753" stop-color="#052E45"/>
<stop offset="0.913" stop-color="#070D24"/>
<stop offset="1" stop-color="#080117"/>
</linearGradient>
<linearGradient id="paint1_linear" x1="978.631" y1="811.113" x2="-123.164" y2="1503.1" gradientUnits="userSpaceOnUse">
<stop stop-color="#9FFFC7"/>
<stop offset="0.109" stop-color="#76E1BF"/>
<stop offset="0.3535" stop-color="#0D96AA"/>
<stop offset="0.3839" stop-color="#008CA7"/>
<stop offset="0.5394" stop-color="#02627B"/>
<stop offset="0.753" stop-color="#052E45"/>
<stop offset="0.913" stop-color="#070D24"/>
<stop offset="1" stop-color="#080117"/>
</linearGradient>
<linearGradient id="paint2_linear" x1="1122.41" y1="475.113" x2="-0.245097" y2="1313.87" gradientUnits="userSpaceOnUse">
<stop stop-color="#9FFFC7"/>
<stop offset="0.109" stop-color="#76E1BF"/>
<stop offset="0.3535" stop-color="#0D96AA"/>
<stop offset="0.3839" stop-color="#008CA7"/>
<stop offset="0.5394" stop-color="#02627B"/>
<stop offset="0.753" stop-color="#052E45"/>
<stop offset="0.913" stop-color="#070D24"/>
<stop offset="1" stop-color="#080117"/>
</linearGradient>
<linearGradient id="paint3_linear" x1="476.67" y1="1044.63" x2="135.096" y2="1497.25" gradientUnits="userSpaceOnUse">
<stop stop-color="#1E3250"/>
<stop offset="1" stop-color="#080117"/>
</linearGradient>
<linearGradient id="paint4_linear" x1="-27.8232" y1="1227.67" x2="832.618" y2="1031.66" gradientUnits="userSpaceOnUse">
<stop stop-color="#1E3250"/>
<stop offset="1" stop-color="#080117"/>
</linearGradient>
<linearGradient id="paint5_linear" x1="523.232" y1="1020.51" x2="368.99" y2="1224.9" gradientUnits="userSpaceOnUse">
<stop stop-color="#1E3250"/>
<stop offset="1" stop-color="#080117"/>
</linearGradient>
<linearGradient id="paint6_linear" x1="1714.42" y1="812.606" x2="-267.578" y2="1290.6" gradientUnits="userSpaceOnUse">
<stop stop-color="#9FFFC7"/>
<stop offset="0.109" stop-color="#76E1BF"/>
<stop offset="0.3535" stop-color="#0D96AA"/>
<stop offset="0.3839" stop-color="#008CA7"/>
<stop offset="0.5394" stop-color="#02627B"/>
<stop offset="0.753" stop-color="#052E45"/>
<stop offset="0.913" stop-color="#070D24"/>
<stop offset="1" stop-color="#080117"/>
</linearGradient>
<linearGradient id="paint7_linear" x1="1126.31" y1="480.339" x2="3.66037" y2="1319.09" gradientUnits="userSpaceOnUse">
<stop stop-color="#9FFFC7"/>
<stop offset="0.109" stop-color="#76E1BF"/>
<stop offset="0.3535" stop-color="#0D96AA"/>
<stop offset="0.3839" stop-color="#008CA7"/>
<stop offset="0.5394" stop-color="#02627B"/>
<stop offset="0.753" stop-color="#052E45"/>
<stop offset="0.913" stop-color="#070D24"/>
<stop offset="1" stop-color="#080117"/>
</linearGradient>
<linearGradient id="paint8_linear" x1="954.03" y1="771.941" x2="-147.769" y2="1463.93" gradientUnits="userSpaceOnUse">
<stop stop-color="#9FFFC7"/>
<stop offset="0.109" stop-color="#76E1BF"/>
<stop offset="0.3535" stop-color="#0D96AA"/>
<stop offset="0.3839" stop-color="#008CA7"/>
<stop offset="0.5394" stop-color="#02627B"/>
<stop offset="0.753" stop-color="#052E45"/>
<stop offset="0.913" stop-color="#070D24"/>
<stop offset="1" stop-color="#080117"/>
</linearGradient>
<linearGradient id="paint9_linear" x1="917.553" y1="713.867" x2="-184.244" y2="1405.85" gradientUnits="userSpaceOnUse">
<stop stop-color="#9FFFC7"/>
<stop offset="0.109" stop-color="#76E1BF"/>
<stop offset="0.3535" stop-color="#0D96AA"/>
<stop offset="0.3839" stop-color="#008CA7"/>
<stop offset="0.5394" stop-color="#02627B"/>
<stop offset="0.753" stop-color="#052E45"/>
<stop offset="0.913" stop-color="#070D24"/>
<stop offset="1" stop-color="#080117"/>
</linearGradient>
<linearGradient id="paint10_linear" x1="927.231" y1="729.251" x2="-174.572" y2="1421.25" gradientUnits="userSpaceOnUse">
<stop stop-color="#9FFFC7"/>
<stop offset="0.109" stop-color="#76E1BF"/>
<stop offset="0.3535" stop-color="#0D96AA"/>
<stop offset="0.3839" stop-color="#008CA7"/>
<stop offset="0.5394" stop-color="#02627B"/>
<stop offset="0.753" stop-color="#052E45"/>
<stop offset="0.913" stop-color="#070D24"/>
<stop offset="1" stop-color="#080117"/>
</linearGradient>
<linearGradient id="paint11_linear" x1="-207.832" y1="1157.32" x2="1644" y2="862.159" gradientUnits="userSpaceOnUse">
<stop stop-color="#00FFB8"/>
<stop offset="0.5999" stop-color="#14F2E1" stop-opacity="0.4001"/>
<stop offset="1" stop-color="#22E8FF" stop-opacity="0"/>
</linearGradient>
<linearGradient id="paint12_linear" x1="1159.16" y1="13.8573" x2="1701.03" y2="1633.16" gradientUnits="userSpaceOnUse">
<stop stop-color="#00FFB8"/>
<stop offset="0.5999" stop-color="#14F2E1" stop-opacity="0.4001"/>
<stop offset="1" stop-color="#22E8FF" stop-opacity="0"/>
</linearGradient>
<linearGradient id="paint13_linear" x1="3651.52" y1="886.535" x2="1599.53" y2="978.535" gradientUnits="userSpaceOnUse">
<stop stop-color="#00FFB8"/>
<stop offset="0.5999" stop-color="#14F2E1" stop-opacity="0.4001"/>
<stop offset="1" stop-color="#22E8FF" stop-opacity="0"/>
</linearGradient>
<linearGradient id="paint14_linear" x1="3439.99" y1="1768.25" x2="2723.99" y2="444.254" gradientUnits="userSpaceOnUse">
<stop stop-color="#00FFB8"/>
<stop offset="0.5999" stop-color="#14F2E1" stop-opacity="0.4001"/>
<stop offset="1" stop-color="#22E8FF" stop-opacity="0"/>
</linearGradient>
<linearGradient id="paint15_linear" x1="3925.13" y1="851.294" x2="2317.13" y2="1139.29" gradientUnits="userSpaceOnUse">
<stop stop-color="#00FFB8"/>
<stop offset="0.5999" stop-color="#14F2E1" stop-opacity="0.4001"/>
<stop offset="1" stop-color="#22E8FF" stop-opacity="0"/>
</linearGradient>
</defs>
</svg>
