<svg width="3838" height="3452" viewBox="0 0 3838 3452" fill="none" xmlns="http://www.w3.org/2000/svg">
<path d="M3838 2448.22L3685 2478.24L3379 2667.13L2871.91 2718.47L2705.06 2789.85L2319.18 2810.69L2161.31 2860.39L1276.12 2830.41L1184.09 2768.47L825.711 2715.13L510.306 2485.1L-2 2336.27L-1.999 2956.82H3837.99L3838 2448.22Z" fill="url(#paint0_radial)"/>
<path d="M3838 2891H-2V3452H3838V2891Z" fill="url(#paint1_radial)"/>
<path opacity="0.2" d="M1406.1 2964.52L1435.94 2938.06L1465.79 2964.52L1435.94 3043.7L1406.1 2964.52Z" fill="url(#paint2_radial)"/>
<path opacity="0.2" d="M3838 3157H3557.5L3379 3062.61L2871.91 3026.32L2705.06 2961.72L2319.18 2946.99L2161.3 2911.85L1276.12 2933.05L1174.09 2990.97L825.711 3049.88L648.731 3157H-1.99902V2890.54H3837.99L3838 3157Z" fill="url(#paint3_radial)"/>
<path opacity="0.6" d="M196.269 2313.17L153.086 2351.45L109.904 2313.17L153.087 2198.6L196.269 2313.17Z" fill="url(#paint4_radial)"/>
<path opacity="0.7" d="M3313.89 2610.08L3271.9 2647.29L3229.91 2610.08L3271.9 2498.66L3313.89 2610.08Z" fill="url(#paint5_radial)"/>
<path opacity="0.5" d="M288.251 2346.08L253.462 2376.91L218.674 2346.08L253.463 2253.77L288.251 2346.08Z" fill="url(#paint6_radial)"/>
<path opacity="0.7" d="M3140.63 2636.97L3106.81 2666.96L3072.98 2636.97L3106.81 2547.22L3140.63 2636.97Z" fill="url(#paint7_radial)"/>
<path opacity="0.7" d="M3784.32 2405.15L3750.5 2435.13L3716.67 2405.15L3750.5 2315.39L3784.32 2405.15Z" fill="url(#paint8_radial)"/>
<path opacity="0.5" d="M1465.79 2797.91L1435.94 2824.36L1406.1 2797.91L1435.94 2718.72L1465.79 2797.91Z" fill="url(#paint9_radial)"/>
<path opacity="0.6" d="M2182.33 2825.82L2160.49 2845.18L2138.65 2825.82L2160.49 2767.86L2182.33 2825.82Z" fill="url(#paint10_radial)"/>
<path opacity="0.2" d="M2138.65 2935.39L2160.49 2916.03L2182.33 2935.39L2160.49 2993.35L2138.65 2935.39Z" fill="url(#paint11_radial)"/>
<path d="M2469 2890.54L2705.06 2789.85L2871.91 2718.47L3288.87 2676.25L2837 2890.54H2469Z" fill="url(#paint12_radial)"/>
<g opacity="0.4">
<path opacity="0.4" d="M1843.5 2670.87C1843.5 2670.87 1835.45 2663.24 1829.95 2664.51C1823.16 2666.08 1841.73 2671.37 1842.3 2671.66C1842.67 2671.33 1843.5 2670.87 1843.5 2670.87Z" fill="url(#paint13_radial)"/>
<path opacity="0.4" d="M1845.62 2677.92C1848.91 2677.92 1851.58 2675.24 1851.58 2671.95C1851.58 2668.66 1848.91 2665.99 1845.62 2665.99C1842.32 2665.99 1839.65 2668.66 1839.65 2671.95C1839.65 2675.24 1842.32 2677.92 1845.62 2677.92Z" fill="url(#paint14_radial)"/>
<path opacity="0.4" d="M1850.36 2671.02C1850.36 2671.02 1856.65 2664.25 1863.15 2666.22C1869.65 2668.19 1852.12 2671.29 1851.57 2671.53C1851.2 2671.31 1850.36 2671.02 1850.36 2671.02Z" fill="url(#paint15_radial)"/>
</g>
<g opacity="0.4">
<path opacity="0.4" d="M1895.54 2698.32C1895.54 2698.32 1888.81 2684.06 1880.88 2682.91C1871.07 2681.49 1892.93 2698.07 1893.55 2698.74C1894.2 2698.49 1895.54 2698.32 1895.54 2698.32Z" fill="url(#paint16_radial)"/>
<path opacity="0.4" d="M1909.97 2699.43C1909.97 2704.12 1906.18 2707.91 1901.5 2707.91C1896.81 2707.91 1893.02 2704.12 1893.02 2699.43C1893.02 2694.76 1896.81 2690.96 1901.5 2690.96C1906.18 2690.96 1909.97 2694.76 1909.97 2699.43Z" fill="url(#paint17_radial)"/>
<path opacity="0.4" d="M1908.3 2698.75C1908.3 2698.75 1911.81 2686.1 1921.29 2684.33C1930.78 2682.56 1910.7 2697.94 1910.16 2698.6C1909.54 2698.57 1908.3 2698.75 1908.3 2698.75Z" fill="url(#paint18_radial)"/>
</g>
<path d="M3361.39 1722.55C3361.39 1722.55 3282.72 1618.94 3214.93 1620.35C3131.05 1622.1 3339.34 1724 3345.54 1728.51C3350.57 1725.68 3361.39 1722.55 3361.39 1722.55Z" fill="url(#paint19_linear)"/>
<path d="M3393.02 1826.06C3444.38 1826.06 3486.01 1784.43 3486.01 1733.07C3486.01 1681.71 3444.38 1640.07 3393.02 1640.07C3341.66 1640.07 3300.02 1681.71 3300.02 1733.07C3300.02 1784.43 3341.66 1826.06 3393.02 1826.06Z" fill="url(#paint20_radial)"/>
<path d="M3347.98 1786.27C3380.39 1795.96 3415.38 1774.65 3426.14 1738.68C3436.89 1702.71 3419.33 1665.69 3386.92 1656C3354.5 1646.31 3319.51 1667.62 3308.75 1703.59C3298 1739.57 3315.56 1776.58 3347.98 1786.27Z" fill="white"/>
<path d="M3409.1 1731.8C3400.46 1760.7 3372.34 1777.82 3346.29 1770.04C3320.25 1762.25 3306.14 1732.51 3314.77 1703.61C3323.41 1674.7 3351.53 1657.58 3377.58 1665.36C3403.62 1673.15 3417.74 1702.89 3409.1 1731.8Z" fill="url(#paint21_radial)"/>
<path d="M3465.3 1718.57C3465.3 1718.57 3537.39 1593.91 3643.01 1601.28C3748.62 1608.65 3493 1716.61 3485.38 1722.13C3478.97 1720.05 3465.3 1718.57 3465.3 1718.57Z" fill="url(#paint22_linear)"/>
<g opacity="0.8">
<path opacity="0.8" d="M3562.66 2040.26C3562.66 2040.26 3564.74 1979.58 3590.96 1961.86C3623.4 1939.93 3571.46 2034.87 3570.31 2038.26C3567.63 2038.54 3562.66 2040.26 3562.66 2040.26Z" fill="url(#paint23_linear)"/>
<path opacity="0.8" d="M3548.54 2086.34C3572.52 2086.34 3591.95 2066.91 3591.95 2042.94C3591.95 2018.97 3572.52 1999.54 3548.54 1999.54C3524.57 1999.54 3505.14 2018.97 3505.14 2042.94C3505.14 2066.91 3524.57 2086.34 3548.54 2086.34Z" fill="url(#paint24_radial)"/>
<path opacity="0.8" d="M3547.13 2007.01C3532.63 2013.25 3526.49 2031.36 3533.42 2047.45C3540.34 2063.55 3557.72 2071.53 3572.22 2065.29C3586.73 2059.05 3592.87 2040.94 3585.94 2024.84C3579.01 2008.75 3561.64 2000.76 3547.13 2007.01Z" fill="white"/>
<path opacity="0.8" d="M3541.02 2043.22C3546.59 2056.15 3560.55 2062.57 3572.2 2057.55C3583.86 2052.54 3588.79 2037.99 3583.23 2025.05C3577.66 2012.12 3563.7 2005.7 3552.04 2010.72C3540.39 2015.73 3535.46 2030.29 3541.02 2043.22Z" fill="url(#paint25_radial)"/>
<path opacity="0.8" d="M3513.46 2040.22C3513.46 2040.22 3495.44 1975.47 3446.85 1966.47C3398.26 1957.48 3502.42 2036.87 3505.22 2040.26C3508.35 2040.06 3513.46 2040.22 3513.46 2040.22Z" fill="url(#paint26_linear)"/>
</g>
<g opacity="0.8">
<path opacity="0.8" d="M457.059 1921.39C457.059 1921.39 520.038 1952.87 526.071 1989.07C533.535 2033.87 458.489 1933.26 455.471 1930.42C456.472 1927.46 457.059 1921.39 457.059 1921.39Z" fill="url(#paint27_linear)"/>
<path opacity="0.8" d="M440.689 1974.84C468.488 1974.84 491.024 1952.3 491.024 1924.5C491.024 1896.7 468.488 1874.17 440.689 1874.17C412.89 1874.17 390.354 1896.7 390.354 1924.5C390.354 1952.3 412.89 1974.84 440.689 1974.84Z" fill="url(#paint28_radial)"/>
<path opacity="0.8" d="M438.991 1882.74C422.172 1889.98 415.05 1910.98 423.086 1929.65C431.121 1948.32 451.27 1957.58 468.089 1950.34C484.909 1943.1 492.03 1922.1 483.995 1903.43C475.96 1884.76 455.811 1875.5 438.991 1882.74Z" fill="white"/>
<path opacity="0.8" d="M431 1924.83C437.456 1939.83 453.646 1947.27 467.16 1941.45C480.676 1935.63 486.398 1918.76 479.942 1903.76C473.485 1888.76 457.295 1881.32 443.781 1887.14C430.265 1892.95 424.543 1909.83 431 1924.83Z" fill="url(#paint29_radial)"/>
<path opacity="0.8" d="M400.006 1921.34C400.006 1921.34 329.737 1955.07 329.326 2012.37C328.917 2069.67 397.796 1936.21 401.096 1932.32C400.241 1928.78 400.006 1921.34 400.006 1921.34Z" fill="url(#paint30_linear)"/>
</g>
<path d="M812.999 705.723C1010.74 585.779 1079.27 551.913 1303.64 494.013C1416.2 464.969 1501.5 397.706 1564.99 321.873C1501.78 367.32 1414.64 407.725 1294.63 434.806C954.347 511.59 812.999 705.723 812.999 705.723Z" fill="url(#paint31_linear)"/>
<path d="M1728.22 0C1728.22 0 1686.58 176.657 1564.99 321.873C1756.59 184.113 1728.22 0 1728.22 0Z" fill="url(#paint32_linear)"/>
<path d="M566.571 1662.98C573.945 1703.99 579.497 1737.04 583.583 1762.88C566.813 1585.24 550.407 1127.5 732.339 806.275C557.795 968.663 489.707 1235.47 566.571 1662.98Z" fill="url(#paint33_linear)"/>
<path d="M583.583 1762.88C592.082 1852.92 600.673 1870.99 583.583 1762.88V1762.88Z" fill="url(#paint34_linear)"/>
<path d="M732.339 806.276C857.998 689.368 1038.83 626.573 1260.5 596.924C1514.39 562.965 1752.63 423.84 1918.07 303.059C1783.2 368.638 1570.79 434.403 1237.72 470.247C989.192 496.995 831.378 631.409 732.339 806.276Z" fill="url(#paint35_linear)"/>
<path d="M1918.07 303.059C2116.3 206.671 2147.01 110.683 2147.01 110.683C2147.01 110.683 2058.93 200.222 1918.07 303.059Z" fill="url(#paint36_linear)"/>
<path d="M3838 125.896V651.595L3837.99 911.725V1330.11C3687.73 1174 3595.35 961.786 3595.35 727.996C3595.35 684.075 3598.61 640.905 3604.9 598.735C3604.9 598.715 3604.9 598.686 3604.91 598.667C3604.91 598.646 3604.91 598.626 3604.92 598.605C3610.6 560.585 3618.74 523.376 3629.19 487.135V487.125C3639.49 451.364 3652.03 416.545 3666.65 382.845C3692.56 323.074 3725.01 266.796 3763.08 214.896C3776.87 196.096 3791.41 177.876 3806.64 160.276C3816.78 148.536 3827.25 137.077 3838 125.896Z" fill="url(#paint37_radial)"/>
<path d="M3837.99 651.575V911.725C3759.26 847.025 3632.75 692.566 3666.64 382.896C3666.64 382.876 3666.64 382.865 3666.65 382.845C3692.56 323.074 3725.01 266.796 3763.08 214.896L3763.09 214.906C3763.09 214.906 3702.16 438.845 3837.99 651.575Z" fill="url(#paint38_radial)"/>
<path d="M3838 125.896V486.396C3808.11 404.417 3791.6 297.625 3806.63 160.325C3806.63 160.305 3806.63 160.297 3806.64 160.276C3816.78 148.536 3827.25 137.077 3838 125.896Z" fill="url(#paint39_radial)"/>
<path d="M3837.99 1003.83V1202.3C3760.64 1129.19 3576.25 919.076 3604.9 598.736C3604.9 598.716 3604.9 598.686 3604.91 598.667C3604.91 598.646 3604.91 598.627 3604.92 598.606C3610.6 560.586 3618.74 523.377 3629.19 487.136C3629.19 487.136 3610.74 854.426 3837.99 1003.83Z" fill="url(#paint40_radial)"/>
<path d="M684.025 264.7C684.025 353.11 620.985 426.8 537.395 443.261C528.795 444.96 519.975 446.05 510.985 446.481C508.015 446.63 505.025 446.701 502.025 446.701C486.746 446.701 471.916 444.821 457.735 441.271C422.956 432.581 392.135 413.871 368.536 388.401C368.525 388.401 368.525 388.391 368.515 388.391C351.305 369.821 337.915 347.651 329.616 323.13C323.395 304.79 320.025 285.13 320.025 264.7C320.025 261.92 320.086 259.15 320.215 256.39C324.555 159.73 404.285 82.7002 502.025 82.7002C525.195 82.7002 547.355 87.0303 567.735 94.9303C567.735 94.9303 568.876 95.3793 570.796 96.1393C583.656 101.4 595.775 108.07 606.966 115.99H606.976C618.426 124.091 628.896 133.46 638.166 143.921H638.176C652.156 159.66 663.436 177.851 671.316 197.761C677.077 212.311 681.006 227.771 682.846 243.88C683.626 250.709 684.025 257.66 684.025 264.7Z" fill="url(#paint41_linear)"/>
<path d="M673.176 202.031C645.387 186.211 530.259 201.864 490.259 291.864C467.399 343.304 412.567 343.531 423.897 278.531C465.593 128.865 628.426 138.281 641.776 148.197C646.426 145.281 642.889 149.515 642.889 149.515C656.868 165.254 665.296 182.121 673.176 202.031Z" fill="url(#paint42_linear)"/>
<path d="M510.986 446.48C508.016 446.629 505.026 446.7 502.026 446.7C486.746 446.7 471.916 444.82 457.736 441.27C452.189 427.363 451.176 410.83 452.426 394.03C456.046 345.36 504.285 350.19 503.425 397.53C503.096 415.88 504.926 431.78 510.986 446.48Z" fill="url(#paint43_linear)"/>
<path d="M606.966 115.99C566.26 92.8639 309.593 126.864 368.516 388.39C351.306 369.82 337.916 347.65 329.617 323.129C296.427 185.029 421.566 63.3999 567.736 94.9299C567.736 94.9299 568.877 95.3789 570.797 96.1389C583.656 101.4 595.775 108.07 606.966 115.99Z" fill="url(#paint44_linear)"/>
<path d="M682.846 243.879C644.846 226.31 588.356 256.64 553.826 314.329C525.796 361.149 520.506 412.22 537.395 443.26C620.985 426.799 684.025 353.11 684.025 264.699C684.025 257.66 683.626 250.709 682.846 243.879ZM650.036 366.16C627.796 398.45 597.456 416.15 582.265 405.69C567.085 395.23 572.805 360.57 595.045 328.28C617.295 295.99 647.635 278.29 662.825 288.75C678.006 299.209 672.286 333.87 650.036 366.16Z" fill="url(#paint45_linear)"/>
<path d="M380.618 599.899L360.479 563.452C359.975 527.019 340.295 495.225 311.072 477.706L297.618 443.785L259.278 463.312C259.158 463.311 259.04 463.307 258.92 463.307C243.95 463.307 229.738 466.547 216.944 472.361L200.248 464.195L190.601 489.715C175.69 503.276 164.835 521.212 160.054 541.494L129.366 574.907L164.053 601.245C172.7 623.791 189.148 642.47 210.097 653.975L229.64 686.805L257.54 666.445C258 666.451 258.459 666.463 258.921 666.463C297.1 666.463 330.353 645.396 347.706 614.256L380.618 599.899Z" fill="url(#paint46_linear)"/>
<defs>
<radialGradient id="paint0_radial" cx="0" cy="0" r="1" gradientUnits="userSpaceOnUse" gradientTransform="translate(1959.36 2267.61) scale(3238.16)">
<stop stop-color="white"/>
<stop offset="0.0248" stop-color="#E0FFF8"/>
<stop offset="0.0709" stop-color="#ABFFEB"/>
<stop offset="0.1109" stop-color="#85FFE2"/>
<stop offset="0.143" stop-color="#6EFFDD"/>
<stop offset="0.1629" stop-color="#65FFDB"/>
<stop offset="0.2526" stop-color="#40D6C8"/>
<stop offset="0.3926" stop-color="#008EA7"/>
<stop offset="0.4231" stop-color="#0087A0"/>
<stop offset="0.6908" stop-color="#00516A"/>
<stop offset="0.8911" stop-color="#003049"/>
<stop offset="1" stop-color="#00233C"/>
</radialGradient>
<radialGradient id="paint1_radial" cx="0" cy="0" r="1" gradientUnits="userSpaceOnUse" gradientTransform="translate(1940.8 2678.31) scale(3464.82 3998.33)">
<stop stop-color="white"/>
<stop offset="0.1807" stop-color="#65FFDB"/>
<stop offset="0.2634" stop-color="#40D6C8"/>
<stop offset="0.3926" stop-color="#008EA7"/>
<stop offset="0.4231" stop-color="#0087A0"/>
<stop offset="0.6908" stop-color="#00516A"/>
<stop offset="0.8911" stop-color="#003049"/>
<stop offset="1" stop-color="#00233C"/>
</radialGradient>
<radialGradient id="paint2_radial" cx="0" cy="0" r="1" gradientUnits="userSpaceOnUse" gradientTransform="translate(966.228 2935.62) rotate(180) scale(2199.67 2199.67)">
<stop stop-color="#65FFDB"/>
<stop offset="0.1499" stop-color="#40D6C8"/>
<stop offset="0.3839" stop-color="#008EA7"/>
<stop offset="0.4148" stop-color="#0087A0"/>
<stop offset="0.6864" stop-color="#00516A"/>
<stop offset="0.8896" stop-color="#003049"/>
<stop offset="1" stop-color="#00233C"/>
</radialGradient>
<radialGradient id="paint3_radial" cx="0" cy="0" r="1" gradientUnits="userSpaceOnUse" gradientTransform="translate(1991 2396.41) scale(2735.08)">
<stop stop-color="white"/>
<stop offset="0.1807" stop-color="#65FFDB"/>
<stop offset="0.2634" stop-color="#40D6C8"/>
<stop offset="0.3926" stop-color="#008EA7"/>
<stop offset="0.4231" stop-color="#0087A0"/>
<stop offset="0.6908" stop-color="#00516A"/>
<stop offset="0.8911" stop-color="#003049"/>
<stop offset="1" stop-color="#00233C"/>
</radialGradient>
<radialGradient id="paint4_radial" cx="0" cy="0" r="1" gradientUnits="userSpaceOnUse" gradientTransform="translate(1135.52 2047.04) scale(2470.11)">
<stop stop-color="#65FFDB"/>
<stop offset="0.1499" stop-color="#40D6C8"/>
<stop offset="0.3839" stop-color="#008EA7"/>
<stop offset="0.4148" stop-color="#0087A0"/>
<stop offset="0.6864" stop-color="#00516A"/>
<stop offset="0.8896" stop-color="#003049"/>
<stop offset="1" stop-color="#00233C"/>
</radialGradient>
<radialGradient id="paint5_radial" cx="0" cy="0" r="1" gradientUnits="userSpaceOnUse" gradientTransform="translate(3856.93 2487.7) scale(1009.23 1009.23)">
<stop stop-color="#65FFDB"/>
<stop offset="0.1499" stop-color="#40D6C8"/>
<stop offset="0.3839" stop-color="#008EA7"/>
<stop offset="0.4148" stop-color="#0087A0"/>
<stop offset="0.6864" stop-color="#00516A"/>
<stop offset="0.8896" stop-color="#003049"/>
<stop offset="1" stop-color="#00233C"/>
</radialGradient>
<radialGradient id="paint6_radial" cx="0" cy="0" r="1" gradientUnits="userSpaceOnUse" gradientTransform="translate(1135.52 2049.04) scale(2470.11 2470.11)">
<stop stop-color="#65FFDB"/>
<stop offset="0.1499" stop-color="#40D6C8"/>
<stop offset="0.3839" stop-color="#008EA7"/>
<stop offset="0.4148" stop-color="#0087A0"/>
<stop offset="0.6864" stop-color="#00516A"/>
<stop offset="0.8896" stop-color="#003049"/>
<stop offset="1" stop-color="#00233C"/>
</radialGradient>
<radialGradient id="paint7_radial" cx="0" cy="0" r="1" gradientUnits="userSpaceOnUse" gradientTransform="translate(3502.56 2534.4) scale(1009.23 1009.23)">
<stop stop-color="#65FFDB"/>
<stop offset="0.1499" stop-color="#40D6C8"/>
<stop offset="0.3839" stop-color="#008EA7"/>
<stop offset="0.4148" stop-color="#0087A0"/>
<stop offset="0.6864" stop-color="#00516A"/>
<stop offset="0.8896" stop-color="#003049"/>
<stop offset="1" stop-color="#00233C"/>
</radialGradient>
<radialGradient id="paint8_radial" cx="0" cy="0" r="1" gradientUnits="userSpaceOnUse" gradientTransform="translate(4146.25 2302.58) scale(1009.23 1009.23)">
<stop stop-color="#65FFDB"/>
<stop offset="0.1499" stop-color="#40D6C8"/>
<stop offset="0.3839" stop-color="#008EA7"/>
<stop offset="0.4148" stop-color="#0087A0"/>
<stop offset="0.6864" stop-color="#00516A"/>
<stop offset="0.8896" stop-color="#003049"/>
<stop offset="1" stop-color="#00233C"/>
</radialGradient>
<radialGradient id="paint9_radial" cx="0" cy="0" r="1" gradientUnits="userSpaceOnUse" gradientTransform="translate(1905.66 2826.8) scale(2199.67 2199.67)">
<stop stop-color="#65FFDB"/>
<stop offset="0.1499" stop-color="#40D6C8"/>
<stop offset="0.3839" stop-color="#008EA7"/>
<stop offset="0.4148" stop-color="#0087A0"/>
<stop offset="0.6864" stop-color="#00516A"/>
<stop offset="0.8896" stop-color="#003049"/>
<stop offset="1" stop-color="#00233C"/>
</radialGradient>
<radialGradient id="paint10_radial" cx="0" cy="0" r="1" gradientUnits="userSpaceOnUse" gradientTransform="translate(1830.15 2827.79) scale(2199.66 2199.66)">
<stop stop-color="#65FFDB"/>
<stop offset="0.1499" stop-color="#40D6C8"/>
<stop offset="0.3839" stop-color="#008EA7"/>
<stop offset="0.4148" stop-color="#0087A0"/>
<stop offset="0.6864" stop-color="#00516A"/>
<stop offset="0.8896" stop-color="#003049"/>
<stop offset="1" stop-color="#00233C"/>
</radialGradient>
<radialGradient id="paint11_radial" cx="0" cy="0" r="1" gradientUnits="userSpaceOnUse" gradientTransform="translate(2490.83 2933.43) rotate(180) scale(2199.66 2199.67)">
<stop stop-color="#65FFDB"/>
<stop offset="0.1499" stop-color="#40D6C8"/>
<stop offset="0.3839" stop-color="#008EA7"/>
<stop offset="0.4148" stop-color="#0087A0"/>
<stop offset="0.6864" stop-color="#00516A"/>
<stop offset="0.8896" stop-color="#003049"/>
<stop offset="1" stop-color="#00233C"/>
</radialGradient>
<radialGradient id="paint12_radial" cx="0" cy="0" r="1" gradientUnits="userSpaceOnUse" gradientTransform="translate(2385.87 2401.1) scale(932.05)">
<stop stop-color="white"/>
<stop offset="0.1522" stop-color="#E0FFF8" stop-opacity="0.8478"/>
<stop offset="0.4351" stop-color="#ABFFEB" stop-opacity="0.5649"/>
<stop offset="0.6809" stop-color="#85FFE2" stop-opacity="0.3191"/>
<stop offset="0.8774" stop-color="#6EFFDD" stop-opacity="0.1226"/>
<stop offset="1" stop-color="#65FFDB" stop-opacity="0"/>
</radialGradient>
<radialGradient id="paint13_radial" cx="0" cy="0" r="1" gradientUnits="userSpaceOnUse" gradientTransform="translate(1953.27 2578.27) scale(277.706 277.704)">
<stop stop-color="#65FFDB"/>
<stop offset="0.1499" stop-color="#40D6C8"/>
<stop offset="0.3839" stop-color="#008EA7"/>
<stop offset="0.4148" stop-color="#0087A0"/>
<stop offset="0.6864" stop-color="#00516A"/>
<stop offset="0.8896" stop-color="#003049"/>
<stop offset="1" stop-color="#00233C"/>
</radialGradient>
<radialGradient id="paint14_radial" cx="0" cy="0" r="1" gradientUnits="userSpaceOnUse" gradientTransform="translate(1953.27 2578.27) scale(277.71 277.707)">
<stop stop-color="#65FFDB"/>
<stop offset="0.1499" stop-color="#40D6C8"/>
<stop offset="0.3839" stop-color="#008EA7"/>
<stop offset="0.4148" stop-color="#0087A0"/>
<stop offset="0.6864" stop-color="#00516A"/>
<stop offset="0.8896" stop-color="#003049"/>
<stop offset="1" stop-color="#00233C"/>
</radialGradient>
<radialGradient id="paint15_radial" cx="0" cy="0" r="1" gradientUnits="userSpaceOnUse" gradientTransform="translate(1953.27 2578.27) scale(277.697 277.699)">
<stop stop-color="#65FFDB"/>
<stop offset="0.1499" stop-color="#40D6C8"/>
<stop offset="0.3839" stop-color="#008EA7"/>
<stop offset="0.4148" stop-color="#0087A0"/>
<stop offset="0.6864" stop-color="#00516A"/>
<stop offset="0.8896" stop-color="#003049"/>
<stop offset="1" stop-color="#00233C"/>
</radialGradient>
<radialGradient id="paint16_radial" cx="0" cy="0" r="1" gradientUnits="userSpaceOnUse" gradientTransform="translate(2088.62 2632.29) rotate(21.2736) scale(394.591)">
<stop stop-color="#65FFDB"/>
<stop offset="0.1499" stop-color="#40D6C8"/>
<stop offset="0.3839" stop-color="#008EA7"/>
<stop offset="0.4148" stop-color="#0087A0"/>
<stop offset="0.6864" stop-color="#00516A"/>
<stop offset="0.8896" stop-color="#003049"/>
<stop offset="1" stop-color="#00233C"/>
</radialGradient>
<radialGradient id="paint17_radial" cx="0" cy="0" r="1" gradientUnits="userSpaceOnUse" gradientTransform="translate(2054.45 2566.32) scale(394.582 394.581)">
<stop stop-color="#65FFDB"/>
<stop offset="0.1499" stop-color="#40D6C8"/>
<stop offset="0.3839" stop-color="#008EA7"/>
<stop offset="0.4148" stop-color="#0087A0"/>
<stop offset="0.6864" stop-color="#00516A"/>
<stop offset="0.8896" stop-color="#003049"/>
<stop offset="1" stop-color="#00233C"/>
</radialGradient>
<radialGradient id="paint18_radial" cx="0" cy="0" r="1" gradientUnits="userSpaceOnUse" gradientTransform="translate(1977.47 2514.46) rotate(-27.4004) scale(394.584 394.584)">
<stop stop-color="#65FFDB"/>
<stop offset="0.1499" stop-color="#40D6C8"/>
<stop offset="0.3839" stop-color="#008EA7"/>
<stop offset="0.4148" stop-color="#0087A0"/>
<stop offset="0.6864" stop-color="#00516A"/>
<stop offset="0.8896" stop-color="#003049"/>
<stop offset="1" stop-color="#00233C"/>
</radialGradient>
<linearGradient id="paint19_linear" x1="3108.15" y1="1557.29" x2="3495.13" y2="1810.78" gradientUnits="userSpaceOnUse">
<stop offset="0.009" stop-color="white"/>
<stop offset="0.0275" stop-color="#FCFFFD"/>
<stop offset="0.0424" stop-color="#E9FFF2"/>
<stop offset="0.088" stop-color="#B4FFD3"/>
<stop offset="0.1102" stop-color="#9FFFC7"/>
<stop offset="0.188" stop-color="#76E1BF"/>
<stop offset="0.3622" stop-color="#0D96AA"/>
<stop offset="0.3839" stop-color="#008CA7"/>
<stop offset="0.5546" stop-color="#035771"/>
<stop offset="0.6839" stop-color="#04354E"/>
<stop offset="0.7537" stop-color="#052841"/>
</linearGradient>
<radialGradient id="paint20_radial" cx="0" cy="0" r="1" gradientUnits="userSpaceOnUse" gradientTransform="translate(3061.54 1299.59) scale(961.509)">
<stop stop-color="#65FFDB"/>
<stop offset="0.1499" stop-color="#40D6C8"/>
<stop offset="0.3839" stop-color="#008EA7"/>
<stop offset="0.4148" stop-color="#0087A0"/>
<stop offset="0.6864" stop-color="#00516A"/>
<stop offset="0.8896" stop-color="#003049"/>
<stop offset="1" stop-color="#00233C"/>
</radialGradient>
<radialGradient id="paint21_radial" cx="0" cy="0" r="1" gradientUnits="userSpaceOnUse" gradientTransform="translate(2743.57 954.241) rotate(16.6371) scale(2364 2623.37)">
<stop stop-color="#65FFDB"/>
<stop offset="0.1499" stop-color="#40D6C8"/>
<stop offset="0.3839" stop-color="#008EA7"/>
<stop offset="0.4148" stop-color="#0087A0"/>
<stop offset="0.6864" stop-color="#00516A"/>
<stop offset="0.8896" stop-color="#003049"/>
<stop offset="1" stop-color="#00233C"/>
</radialGradient>
<linearGradient id="paint22_linear" x1="3716.78" y1="1556.55" x2="3265.78" y2="1848.55" gradientUnits="userSpaceOnUse">
<stop offset="0.009" stop-color="white"/>
<stop offset="0.0279" stop-color="#F4FFF8"/>
<stop offset="0.0614" stop-color="#D5FFE7"/>
<stop offset="0.1055" stop-color="#A5FFCA"/>
<stop offset="0.1102" stop-color="#9FFFC7"/>
<stop offset="0.188" stop-color="#76E1BF"/>
<stop offset="0.3622" stop-color="#0D96AA"/>
<stop offset="0.3839" stop-color="#008CA7"/>
<stop offset="0.5861" stop-color="#035771"/>
<stop offset="0.7392" stop-color="#04354E"/>
<stop offset="0.8218" stop-color="#052841"/>
</linearGradient>
<linearGradient id="paint23_linear" x1="3594.72" y1="1939.16" x2="3559.39" y2="2099.82" gradientUnits="userSpaceOnUse">
<stop offset="0.009" stop-color="white"/>
<stop offset="0.0275" stop-color="#FCFFFD"/>
<stop offset="0.0424" stop-color="#E9FFF2"/>
<stop offset="0.088" stop-color="#B4FFD3"/>
<stop offset="0.1102" stop-color="#9FFFC7"/>
<stop offset="0.188" stop-color="#76E1BF"/>
<stop offset="0.3622" stop-color="#0D96AA"/>
<stop offset="0.3839" stop-color="#008CA7"/>
<stop offset="0.5546" stop-color="#035771"/>
<stop offset="0.6839" stop-color="#04354E"/>
<stop offset="0.7537" stop-color="#052841"/>
</linearGradient>
<radialGradient id="paint24_radial" cx="0" cy="0" r="1" gradientUnits="userSpaceOnUse" gradientTransform="translate(3678.78 1824.07) rotate(173.35) scale(448.755)">
<stop stop-color="#65FFDB"/>
<stop offset="0.1499" stop-color="#40D6C8"/>
<stop offset="0.3839" stop-color="#008EA7"/>
<stop offset="0.4148" stop-color="#0087A0"/>
<stop offset="0.6864" stop-color="#00516A"/>
<stop offset="0.8896" stop-color="#003049"/>
<stop offset="1" stop-color="#00233C"/>
</radialGradient>
<radialGradient id="paint25_radial" cx="0" cy="0" r="1" gradientUnits="userSpaceOnUse" gradientTransform="translate(3790.06 1657.6) rotate(156.71) scale(1103.31 1224.35)">
<stop stop-color="#65FFDB"/>
<stop offset="0.1499" stop-color="#40D6C8"/>
<stop offset="0.3839" stop-color="#008EA7"/>
<stop offset="0.4148" stop-color="#0087A0"/>
<stop offset="0.6864" stop-color="#00516A"/>
<stop offset="0.8896" stop-color="#003049"/>
<stop offset="1" stop-color="#00233C"/>
</radialGradient>
<linearGradient id="paint26_linear" x1="3410.16" y1="1954.3" x2="3610.67" y2="2093.52" gradientUnits="userSpaceOnUse">
<stop offset="0.009" stop-color="white"/>
<stop offset="0.0275" stop-color="#FCFFFD"/>
<stop offset="0.0424" stop-color="#E9FFF2"/>
<stop offset="0.088" stop-color="#B4FFD3"/>
<stop offset="0.1102" stop-color="#9FFFC7"/>
<stop offset="0.188" stop-color="#76E1BF"/>
<stop offset="0.3622" stop-color="#0D96AA"/>
<stop offset="0.3839" stop-color="#008CA7"/>
<stop offset="0.4269" stop-color="#017F9A"/>
<stop offset="0.6488" stop-color="#04415A"/>
<stop offset="0.7537" stop-color="#052841"/>
</linearGradient>
<linearGradient id="paint27_linear" x1="536.489" y1="2004.16" x2="434.488" y2="1898.83" gradientUnits="userSpaceOnUse">
<stop offset="0.009" stop-color="white"/>
<stop offset="0.0275" stop-color="#FCFFFD"/>
<stop offset="0.0424" stop-color="#E9FFF2"/>
<stop offset="0.088" stop-color="#B4FFD3"/>
<stop offset="0.1102" stop-color="#9FFFC7"/>
<stop offset="0.188" stop-color="#76E1BF"/>
<stop offset="0.3622" stop-color="#0D96AA"/>
<stop offset="0.3839" stop-color="#008CA7"/>
<stop offset="0.5546" stop-color="#035771"/>
<stop offset="0.6839" stop-color="#04354E"/>
<stop offset="0.7537" stop-color="#052841"/>
</linearGradient>
<radialGradient id="paint28_radial" cx="0" cy="0" r="1" gradientUnits="userSpaceOnUse" gradientTransform="translate(591.73 1670.68) rotate(173.35) scale(520.424 520.425)">
<stop stop-color="#65FFDB"/>
<stop offset="0.1499" stop-color="#40D6C8"/>
<stop offset="0.3839" stop-color="#008EA7"/>
<stop offset="0.4148" stop-color="#0087A0"/>
<stop offset="0.6864" stop-color="#00516A"/>
<stop offset="0.8896" stop-color="#003049"/>
<stop offset="1" stop-color="#00233C"/>
</radialGradient>
<radialGradient id="paint29_radial" cx="0" cy="0" r="1" gradientUnits="userSpaceOnUse" gradientTransform="translate(695.885 1558.69) rotate(156.71) scale(1279.52 1419.9)">
<stop stop-color="#65FFDB"/>
<stop offset="0.1499" stop-color="#40D6C8"/>
<stop offset="0.3839" stop-color="#008EA7"/>
<stop offset="0.4148" stop-color="#0087A0"/>
<stop offset="0.6864" stop-color="#00516A"/>
<stop offset="0.8896" stop-color="#003049"/>
<stop offset="1" stop-color="#00233C"/>
</radialGradient>
<linearGradient id="paint30_linear" x1="326.919" y1="2019.57" x2="435.152" y2="1869.55" gradientUnits="userSpaceOnUse">
<stop offset="0.009" stop-color="white"/>
<stop offset="0.0275" stop-color="#FCFFFD"/>
<stop offset="0.0424" stop-color="#E9FFF2"/>
<stop offset="0.088" stop-color="#B4FFD3"/>
<stop offset="0.1102" stop-color="#9FFFC7"/>
<stop offset="0.188" stop-color="#76E1BF"/>
<stop offset="0.3622" stop-color="#0D96AA"/>
<stop offset="0.3839" stop-color="#008CA7"/>
<stop offset="0.4673" stop-color="#0089A4"/>
<stop offset="0.5384" stop-color="#017E99"/>
<stop offset="0.6051" stop-color="#026D88"/>
<stop offset="0.669" stop-color="#03556F"/>
<stop offset="0.7305" stop-color="#04364F"/>
<stop offset="0.7537" stop-color="#052841"/>
</linearGradient>
<linearGradient id="paint31_linear" x1="1579.59" y1="-1329.67" x2="1151.59" y2="690.338" gradientUnits="userSpaceOnUse">
<stop stop-color="#00FFFF"/>
<stop offset="1" stop-color="#00AEE5" stop-opacity="0"/>
</linearGradient>
<linearGradient id="paint32_linear" x1="1952.62" y1="-1250.62" x2="1524.62" y2="769.376" gradientUnits="userSpaceOnUse">
<stop stop-color="#00FFFF"/>
<stop offset="1" stop-color="#00AEE5" stop-opacity="0"/>
</linearGradient>
<linearGradient id="paint33_linear" x1="162.503" y1="3558.53" x2="810.376" y2="199.198" gradientUnits="userSpaceOnUse">
<stop stop-color="#00FFFF"/>
<stop offset="1" stop-color="#00AEE5" stop-opacity="0"/>
</linearGradient>
<linearGradient id="paint34_linear" x1="246.233" y1="3574.67" x2="894.106" y2="215.344" gradientUnits="userSpaceOnUse">
<stop stop-color="#00FFFF"/>
<stop offset="1" stop-color="#00AEE5" stop-opacity="0"/>
</linearGradient>
<linearGradient id="paint35_linear" x1="724.967" y1="3667" x2="1372.84" y2="307.677" gradientUnits="userSpaceOnUse">
<stop stop-color="#00FFFF"/>
<stop offset="1" stop-color="#00AEE5" stop-opacity="0"/>
</linearGradient>
<linearGradient id="paint36_linear" x1="1342.26" y1="3786.06" x2="1990.14" y2="426.731" gradientUnits="userSpaceOnUse">
<stop stop-color="#00FFFF"/>
<stop offset="1" stop-color="#00AEE5" stop-opacity="0"/>
</linearGradient>
<radialGradient id="paint37_radial" cx="0" cy="0" r="1" gradientUnits="userSpaceOnUse" gradientTransform="translate(4699 1299.05) scale(501.294 501.295)">
<stop stop-color="#65FFDB"/>
<stop offset="0.1499" stop-color="#40D6C8"/>
<stop offset="0.3839" stop-color="#008EA7"/>
<stop offset="0.444" stop-color="#008099"/>
<stop offset="0.7019" stop-color="#004A63"/>
<stop offset="0.895" stop-color="#002942"/>
<stop offset="1" stop-color="#001C35"/>
</radialGradient>
<radialGradient id="paint38_radial" cx="0" cy="0" r="1" gradientUnits="userSpaceOnUse" gradientTransform="translate(457.648 -16.5482) scale(3547.91 3547.91)">
<stop stop-color="#65FFDB"/>
<stop offset="0.1499" stop-color="#40D6C8"/>
<stop offset="0.3839" stop-color="#008EA7"/>
<stop offset="0.4148" stop-color="#0087A0"/>
<stop offset="0.6864" stop-color="#00516A"/>
<stop offset="0.8896" stop-color="#003049"/>
<stop offset="1" stop-color="#00233C"/>
</radialGradient>
<radialGradient id="paint39_radial" cx="0" cy="0" r="1" gradientUnits="userSpaceOnUse" gradientTransform="translate(1671 31.0557) scale(2316.66 2316.65)">
<stop stop-color="#65FFDB"/>
<stop offset="0.1499" stop-color="#40D6C8"/>
<stop offset="0.3839" stop-color="#008EA7"/>
<stop offset="0.4148" stop-color="#0087A0"/>
<stop offset="0.6864" stop-color="#00516A"/>
<stop offset="0.8896" stop-color="#003049"/>
<stop offset="1" stop-color="#00233C"/>
</radialGradient>
<radialGradient id="paint40_radial" cx="0" cy="0" r="1" gradientUnits="userSpaceOnUse" gradientTransform="translate(457.654 -16.5439) scale(3547.9 3547.9)">
<stop stop-color="#65FFDB"/>
<stop offset="0.1499" stop-color="#40D6C8"/>
<stop offset="0.3839" stop-color="#008EA7"/>
<stop offset="0.4148" stop-color="#0087A0"/>
<stop offset="0.6864" stop-color="#00516A"/>
<stop offset="0.8896" stop-color="#003049"/>
<stop offset="1" stop-color="#00233C"/>
</radialGradient>
<linearGradient id="paint41_linear" x1="904.738" y1="-262.875" x2="367.763" y2="440.59" gradientUnits="userSpaceOnUse">
<stop stop-color="#9FFFC7"/>
<stop offset="0.109" stop-color="#76E1BF"/>
<stop offset="0.3535" stop-color="#0D96AA"/>
<stop offset="0.3839" stop-color="#008CA7"/>
<stop offset="0.5394" stop-color="#02627B"/>
<stop offset="0.753" stop-color="#052E45"/>
<stop offset="0.913" stop-color="#070D24"/>
<stop offset="1" stop-color="#080117"/>
</linearGradient>
<linearGradient id="paint42_linear" x1="717.578" y1="40.7744" x2="321.598" y2="471.253" gradientUnits="userSpaceOnUse">
<stop stop-color="#9FFFC7"/>
<stop offset="0.109" stop-color="#76E1BF"/>
<stop offset="0.3535" stop-color="#0D96AA"/>
<stop offset="0.3839" stop-color="#008CA7"/>
<stop offset="0.5394" stop-color="#02627B"/>
<stop offset="0.753" stop-color="#052E45"/>
<stop offset="0.913" stop-color="#070D24"/>
<stop offset="1" stop-color="#080117"/>
</linearGradient>
<linearGradient id="paint43_linear" x1="774.862" y1="93.4639" x2="378.879" y2="523.945" gradientUnits="userSpaceOnUse">
<stop stop-color="#9FFFC7"/>
<stop offset="0.109" stop-color="#76E1BF"/>
<stop offset="0.3535" stop-color="#0D96AA"/>
<stop offset="0.3839" stop-color="#008CA7"/>
<stop offset="0.5394" stop-color="#02627B"/>
<stop offset="0.753" stop-color="#052E45"/>
<stop offset="0.913" stop-color="#070D24"/>
<stop offset="1" stop-color="#080117"/>
</linearGradient>
<linearGradient id="paint44_linear" x1="644.536" y1="-26.4147" x2="248.555" y2="404.065" gradientUnits="userSpaceOnUse">
<stop stop-color="#9FFFC7"/>
<stop offset="0.109" stop-color="#76E1BF"/>
<stop offset="0.3535" stop-color="#0D96AA"/>
<stop offset="0.3839" stop-color="#008CA7"/>
<stop offset="0.5394" stop-color="#02627B"/>
<stop offset="0.753" stop-color="#052E45"/>
<stop offset="0.913" stop-color="#070D24"/>
<stop offset="1" stop-color="#080117"/>
</linearGradient>
<linearGradient id="paint45_linear" x1="804.232" y1="120.485" x2="408.253" y2="550.963" gradientUnits="userSpaceOnUse">
<stop stop-color="#9FFFC7"/>
<stop offset="0.109" stop-color="#76E1BF"/>
<stop offset="0.3535" stop-color="#0D96AA"/>
<stop offset="0.3839" stop-color="#008CA7"/>
<stop offset="0.5394" stop-color="#02627B"/>
<stop offset="0.753" stop-color="#052E45"/>
<stop offset="0.913" stop-color="#070D24"/>
<stop offset="1" stop-color="#080117"/>
</linearGradient>
<linearGradient id="paint46_linear" x1="12187.5" y1="9420.39" x2="-1469.59" y2="-721.847" gradientUnits="userSpaceOnUse">
<stop stop-color="#9FFFC7"/>
<stop offset="0.109" stop-color="#76E1BF"/>
<stop offset="0.3535" stop-color="#0D96AA"/>
<stop offset="0.3839" stop-color="#008CA7"/>
<stop offset="0.5394" stop-color="#02627B"/>
<stop offset="0.753" stop-color="#052E45"/>
<stop offset="0.913" stop-color="#070D24"/>
<stop offset="1" stop-color="#080117"/>
</linearGradient>
</defs>
</svg>
