<svg xmlns="http://www.w3.org/2000/svg" xmlns:xlink="http://www.w3.org/1999/xlink" width="5722.44" height="1007.86" viewBox="0 0 5722.44 1007.86">
  <defs>
    <style>
      .\33 8662d3f-64d6-43ef-abc6-e135c6e55b57, .\35 7089152-a823-41df-bcb6-d6c166b8b55c, .\36 2f3bc9b-3415-407f-8820-f2f181781d7f, .bce1263a-923a-4753-a8b8-b8c110c8eac3 {
        opacity: 0.53;
      }

      .bce1263a-923a-4753-a8b8-b8c110c8eac3 {
        fill: url(#57fc0f96-0f26-4bdd-90e6-5a057e29f322);
      }

      .\36 2f3bc9b-3415-407f-8820-f2f181781d7f {
        fill: url(#a35d13bf-87c4-451a-b91a-3d18aa79bdb1);
      }

      .\33 8662d3f-64d6-43ef-abc6-e135c6e55b57 {
        fill: url(#db32839c-58bb-400b-a739-c1680543c7e4);
      }

      .\35 7089152-a823-41df-bcb6-d6c166b8b55c {
        fill: url(#b5f06536-5eae-4bbb-9a5f-98e178f30ed4);
      }
    </style>
    <linearGradient id="57fc0f96-0f26-4bdd-90e6-5a057e29f322" x1="4026.03" y1="742.93" x2="6584.25" y2="742.93" gradientTransform="translate(-1410.14)" gradientUnits="userSpaceOnUse">
      <stop offset="0" stop-color="#fff" stop-opacity="0.79"/>
      <stop offset="0.19" stop-color="#fff" stop-opacity="0.63"/>
      <stop offset="0.52" stop-color="#fff" stop-opacity="0.3"/>
      <stop offset="0.59" stop-color="#fff" stop-opacity="0.34"/>
      <stop offset="0.7" stop-color="#fff" stop-opacity="0.44"/>
      <stop offset="0.85" stop-color="#fff" stop-opacity="0.61"/>
      <stop offset="0.99" stop-color="#fff" stop-opacity="0.8"/>
    </linearGradient>
    <linearGradient id="a35d13bf-87c4-451a-b91a-3d18aa79bdb1" x1="2652.24" y1="786.88" x2="5210.45" y2="786.88" gradientTransform="translate(8374.68 1670.48) rotate(180)" xlink:href="#57fc0f96-0f26-4bdd-90e6-5a057e29f322"/>
    <linearGradient id="db32839c-58bb-400b-a739-c1680543c7e4" x1="1410.14" y1="935.43" x2="3968.36" y2="935.43" xlink:href="#57fc0f96-0f26-4bdd-90e6-5a057e29f322"/>
    <linearGradient id="b5f06536-5eae-4bbb-9a5f-98e178f30ed4" x1="4308.92" y1="63.25" x2="6867.13" y2="63.25" xlink:href="#57fc0f96-0f26-4bdd-90e6-5a057e29f322"/>
  </defs>
  <title>img-cloud-front</title>
  <g id="24b7a90c-d0ea-45b6-b87a-e80dd6008eff" data-name="Layer 2">
    <g id="a7623817-d3f6-48e8-94d1-fc8279df52a1" data-name="clouds front">
      <path class="bce1263a-923a-4753-a8b8-b8c110c8eac3" d="M4757.57,684.07c-69-40.82-286.71-70.64-544.66-70.64q-31.47,0-62.09.59c-77.66-15.22-214.38-25.32-370.09-25.32-241.87,0-438,24.38-438,54.44,0,7.23,11.35,14.12,31.91,20.43C2935,665.43,2615.89,707,2615.89,753.39c0,23.32,130.14,43.69,323.85,54.68,15.28,49.53,343,89.1,745.17,89.1,245.32,0,462.95-14.73,598.87-37.46,91.65,11,202.89,17.46,322.84,17.46,313.41,0,567.49-44,567.49-98.31C5174.11,733.62,4997.71,695.52,4757.57,684.07Z"/>
      <path class="62f3bc9b-3415-407f-8820-f2f181781d7f" d="M3580.76,931c69,32.89,286.72,56.91,544.66,56.91q31.48,0,62.1-.48c77.66,12.27,214.37,20.41,370.08,20.41,241.88,0,438-19.64,438-43.87,0-5.82-11.35-11.37-31.91-16.45,439.66-1.5,758.79-35,758.79-72.37,0-18.78-130.13-35.19-323.85-44-15.27-39.9-343-71.78-745.17-71.78-245.31,0-462.95,11.86-598.87,30.17-91.65-8.86-202.88-14.06-322.83-14.06-313.42,0-567.49,35.46-567.49,79.2C3164.23,891.1,3340.63,921.8,3580.76,931Z"/>
      <path class="38662d3f-64d6-43ef-abc6-e135c6e55b57" d="M2141.68,911.29c-69-16.74-286.71-29-544.66-29q-31.49,0-62.1.24c-77.65-6.24-214.37-10.38-370.08-10.38-241.88,0-438,10-438,22.33,0,3,11.35,5.79,31.91,8.37C319.13,903.65,0,920.71,0,939.72c0,9.56,130.14,17.92,323.85,22.42,15.28,20.32,343,36.54,745.17,36.54,245.32,0,463-6,598.87-15.36,91.65,4.52,202.88,7.16,322.83,7.16,313.42,0,567.49-18.05,567.49-40.32C2558.21,931.61,2381.81,916,2141.68,911.29Z"/>
      <path class="57089152-a823-41df-bcb6-d6c166b8b55c" d="M5040.45,39.11c-69-16.74-286.71-29-544.65-29q-31.48,0-62.1.24C4356,4.14,4219.33,0,4063.62,0c-241.88,0-438,10-438,22.33,0,3,11.35,5.79,31.9,8.38-439.65.76-758.78,17.82-758.78,36.83,0,9.57,130.13,17.92,323.85,22.43,15.27,20.31,343,36.54,745.16,36.54,245.32,0,463-6,598.88-15.36,91.64,4.51,202.88,7.15,322.83,7.15,313.42,0,567.49-18,567.49-40.31C5457,59.43,5280.59,43.81,5040.45,39.11Z"/>
    </g>
  </g>
</svg>
