<svg xmlns="http://www.w3.org/2000/svg" xmlns:xlink="http://www.w3.org/1999/xlink" width="2295" height="1344.08" viewBox="0 0 2295 1344.08">
  <defs>
    <style>
      .\37 b28a0e3-d2c9-493b-9611-0f8ea2563025 {
        fill: url(#480a408f-31bb-417a-b67a-87fa2780e07c);
      }

      .b57b628b-618b-43bd-a284-3ee06696abb0 {
        fill: url(#797eebfa-9656-461c-b4ff-d1adccd326be);
      }

      .b34db729-974c-45c7-bb2b-160327c20e24 {
        fill: url(#78c1be34-df8a-4d8f-bc95-8f8d93088db2);
      }

      .c2933403-68f7-4929-a600-e6736450fe28 {
        fill: #197648;
      }

      .\38 d292d58-5564-452a-b33b-a20f28ab5f21 {
        fill: #41ac75;
      }

      .\31 2f5b16b-352e-49b3-a313-da3485b9b5a6 {
        fill: url(#c18fb91b-8382-4c6c-838a-09fa42e00595);
      }

      .\35 ecca8f9-9893-44b0-a69e-2a06e41d40bf {
        fill: url(#b5e86e31-ed13-493b-bff2-f0eeea673bd1);
      }

      .\38 8d452b1-5858-4398-b6e8-8ef07d410096 {
        fill: url(#71f77f38-3c99-4d10-b753-b1796ab36579);
      }

      .\35 71b3649-e15d-4866-b68f-0d02404515ad {
        fill: url(#b742a384-d5a1-430f-b032-027faec574cc);
      }

      .daab7fff-5b68-47ea-a5cd-cd02358670ac {
        fill: url(#8edc5f01-b55a-4f08-8293-6dcd2764fd1f);
      }

      .d3359290-3753-42b2-bf0d-e2957f1e2f8d {
        fill: url(#4bcb5952-63ed-421c-a2ab-919083f20ff1);
      }

      .d7d89ac2-6467-4003-b26a-f0ce1ac151de {
        fill: url(#c094402a-d850-4c35-a48c-a44614fda444);
      }

      .\35 6cf7c95-1dd4-4f8f-bcf8-6cff27222878 {
        fill: url(#3aaf882a-983e-45b4-98d3-17b83df4a22a);
      }

      .\38 93a0ff3-35ed-4589-b8d2-e292d05a84b3 {
        fill: url(#2708c776-407d-4868-add2-55840bd4f80d);
      }

      .b6493468-4b7f-496c-9f7e-c276a8b410d8 {
        fill: url(#f2d2d13b-23cf-4585-890f-a0f9d6a8a594);
      }
    </style>
    <linearGradient id="480a408f-31bb-417a-b67a-87fa2780e07c" x1="-4543.25" y1="395.11" x2="-3749.95" y2="1769.14" gradientTransform="matrix(-1, 0, 0, 1, -2682.02, 0)" gradientUnits="userSpaceOnUse">
      <stop offset="0" stop-color="#ddf4c5"/>
      <stop offset="0.58" stop-color="#86d169"/>
      <stop offset="0.69" stop-color="#67c574"/>
      <stop offset="0.83" stop-color="#41b782"/>
    </linearGradient>
    <linearGradient id="797eebfa-9656-461c-b4ff-d1adccd326be" x1="-3611.45" y1="782.79" x2="-3334.36" y2="302.84" gradientTransform="matrix(-1, 0, 0, 1, -2682.02, 0)" gradientUnits="userSpaceOnUse">
      <stop offset="0" stop-color="#1c6a48"/>
      <stop offset="0.26" stop-color="#328b5e"/>
      <stop offset="0.56" stop-color="#47a872"/>
      <stop offset="0.82" stop-color="#54ba7e"/>
      <stop offset="1" stop-color="#58c182"/>
    </linearGradient>
    <linearGradient id="78c1be34-df8a-4d8f-bc95-8f8d93088db2" x1="-2972.67" y1="986.73" x2="-3145.68" y2="1286.38" gradientTransform="matrix(-1, 0, 0, 1, -2682.02, 0)" gradientUnits="userSpaceOnUse">
      <stop offset="0" stop-color="#58c182"/>
      <stop offset="0.18" stop-color="#54ba7e"/>
      <stop offset="0.44" stop-color="#47a872"/>
      <stop offset="0.74" stop-color="#328b5e"/>
      <stop offset="1" stop-color="#1c6a48"/>
    </linearGradient>
    <linearGradient id="c18fb91b-8382-4c6c-838a-09fa42e00595" x1="-3889.27" y1="549.23" x2="-3982.28" y2="21.76" gradientTransform="matrix(-1, 0, 0, 1, -2682.02, 0)" gradientUnits="userSpaceOnUse">
      <stop offset="0" stop-color="#ffffe4" stop-opacity="0"/>
      <stop offset="0.12" stop-color="#ffffe4" stop-opacity="0"/>
      <stop offset="0.2" stop-color="#ffffe4" stop-opacity="0.03"/>
      <stop offset="0.31" stop-color="#ffffe4" stop-opacity="0.1"/>
      <stop offset="0.44" stop-color="#ffffe4" stop-opacity="0.22"/>
      <stop offset="0.59" stop-color="#ffffe4" stop-opacity="0.38"/>
      <stop offset="0.74" stop-color="#ffffe4" stop-opacity="0.58"/>
      <stop offset="0.9" stop-color="#ffffe4" stop-opacity="0.83"/>
      <stop offset="1" stop-color="#ffffe4"/>
    </linearGradient>
    <linearGradient id="b5e86e31-ed13-493b-bff2-f0eeea673bd1" x1="-3886.65" y1="146.62" x2="-3910.89" y2="9.17" xlink:href="#c18fb91b-8382-4c6c-838a-09fa42e00595"/>
    <linearGradient id="71f77f38-3c99-4d10-b753-b1796ab36579" x1="-4187.74" y1="530.32" x2="-4187.74" y2="372.13" xlink:href="#c18fb91b-8382-4c6c-838a-09fa42e00595"/>
    <linearGradient id="b742a384-d5a1-430f-b032-027faec574cc" x1="-4280.54" y1="667.56" x2="-4280.54" y2="465.08" gradientTransform="matrix(-1, 0, 0, 1, -2682.02, 0)" gradientUnits="userSpaceOnUse">
      <stop offset="0" stop-color="#ffffe4" stop-opacity="0"/>
      <stop offset="0.12" stop-color="#ffffe4" stop-opacity="0"/>
      <stop offset="0.29" stop-color="#ffffe4" stop-opacity="0.02"/>
      <stop offset="0.41" stop-color="#ffffe4" stop-opacity="0.05"/>
      <stop offset="0.51" stop-color="#ffffe4" stop-opacity="0.11"/>
      <stop offset="0.6" stop-color="#ffffe4" stop-opacity="0.2"/>
      <stop offset="0.69" stop-color="#ffffe4" stop-opacity="0.31"/>
      <stop offset="0.77" stop-color="#ffffe4" stop-opacity="0.44"/>
      <stop offset="0.85" stop-color="#ffffe4" stop-opacity="0.6"/>
      <stop offset="0.93" stop-color="#ffffe4" stop-opacity="0.79"/>
      <stop offset="1" stop-color="#ffffe4" stop-opacity="0.99"/>
      <stop offset="1" stop-color="#ffffe4"/>
    </linearGradient>
    <linearGradient id="8edc5f01-b55a-4f08-8293-6dcd2764fd1f" x1="-3512.84" y1="1007.35" x2="-3410.2" y2="829.56" gradientTransform="matrix(-1, 0, 0, 1, -2682.02, 0)" gradientUnits="userSpaceOnUse">
      <stop offset="0" stop-color="#ffffe4" stop-opacity="0"/>
      <stop offset="0.12" stop-color="#ffffe4" stop-opacity="0"/>
      <stop offset="0.36" stop-color="#ffffe4" stop-opacity="0.01"/>
      <stop offset="0.48" stop-color="#ffffe4" stop-opacity="0.04"/>
      <stop offset="0.58" stop-color="#ffffe4" stop-opacity="0.1"/>
      <stop offset="0.66" stop-color="#ffffe4" stop-opacity="0.17"/>
      <stop offset="0.73" stop-color="#ffffe4" stop-opacity="0.27"/>
      <stop offset="0.8" stop-color="#ffffe4" stop-opacity="0.38"/>
      <stop offset="0.86" stop-color="#ffffe4" stop-opacity="0.52"/>
      <stop offset="0.91" stop-color="#ffffe4" stop-opacity="0.69"/>
      <stop offset="0.97" stop-color="#ffffe4" stop-opacity="0.87"/>
      <stop offset="1" stop-color="#ffffe4"/>
    </linearGradient>
    <linearGradient id="4bcb5952-63ed-421c-a2ab-919083f20ff1" x1="-3995.75" y1="489.71" x2="-3970.49" y2="346.49" gradientTransform="matrix(-1, 0, 0, 1, -2682.02, 0)" gradientUnits="userSpaceOnUse">
      <stop offset="0" stop-color="#ffffe4" stop-opacity="0"/>
      <stop offset="0.23" stop-color="#ffffe4" stop-opacity="0.01"/>
      <stop offset="0.37" stop-color="#ffffe4" stop-opacity="0.04"/>
      <stop offset="0.48" stop-color="#ffffe4" stop-opacity="0.1"/>
      <stop offset="0.58" stop-color="#ffffe4" stop-opacity="0.18"/>
      <stop offset="0.67" stop-color="#ffffe4" stop-opacity="0.28"/>
      <stop offset="0.75" stop-color="#ffffe4" stop-opacity="0.41"/>
      <stop offset="0.83" stop-color="#ffffe4" stop-opacity="0.56"/>
      <stop offset="0.9" stop-color="#ffffe4" stop-opacity="0.73"/>
      <stop offset="0.97" stop-color="#ffffe4" stop-opacity="0.92"/>
      <stop offset="1" stop-color="#ffffe4"/>
    </linearGradient>
    <linearGradient id="c094402a-d850-4c35-a48c-a44614fda444" x1="-3378.19" y1="957.96" x2="-3289.27" y2="803.94" gradientTransform="matrix(-1, 0, 0, 1, -2682.02, 0)" gradientUnits="userSpaceOnUse">
      <stop offset="0" stop-color="#ffffe4" stop-opacity="0"/>
      <stop offset="0.12" stop-color="#ffffe4" stop-opacity="0"/>
      <stop offset="0.29" stop-color="#ffffe4" stop-opacity="0.02"/>
      <stop offset="0.4" stop-color="#ffffe4" stop-opacity="0.05"/>
      <stop offset="0.5" stop-color="#ffffe4" stop-opacity="0.11"/>
      <stop offset="0.6" stop-color="#ffffe4" stop-opacity="0.2"/>
      <stop offset="0.69" stop-color="#ffffe4" stop-opacity="0.31"/>
      <stop offset="0.77" stop-color="#ffffe4" stop-opacity="0.45"/>
      <stop offset="0.85" stop-color="#ffffe4" stop-opacity="0.62"/>
      <stop offset="0.93" stop-color="#ffffe4" stop-opacity="0.8"/>
      <stop offset="1" stop-color="#ffffe4"/>
    </linearGradient>
    <linearGradient id="3aaf882a-983e-45b4-98d3-17b83df4a22a" x1="-3651.91" y1="671.94" x2="-3498.14" y2="600.24" gradientTransform="matrix(-1, 0, 0, 1, -2682.02, 0)" gradientUnits="userSpaceOnUse">
      <stop offset="0" stop-color="#ffffe4" stop-opacity="0"/>
      <stop offset="0.22" stop-color="#ffffe4" stop-opacity="0.01"/>
      <stop offset="0.36" stop-color="#ffffe4" stop-opacity="0.04"/>
      <stop offset="0.47" stop-color="#ffffe4" stop-opacity="0.1"/>
      <stop offset="0.57" stop-color="#ffffe4" stop-opacity="0.18"/>
      <stop offset="0.66" stop-color="#ffffe4" stop-opacity="0.28"/>
      <stop offset="0.75" stop-color="#ffffe4" stop-opacity="0.41"/>
      <stop offset="0.83" stop-color="#ffffe4" stop-opacity="0.56"/>
      <stop offset="0.91" stop-color="#ffffe4" stop-opacity="0.74"/>
      <stop offset="0.98" stop-color="#ffffe4" stop-opacity="0.93"/>
      <stop offset="1" stop-color="#ffffe4"/>
    </linearGradient>
    <linearGradient id="2708c776-407d-4868-add2-55840bd4f80d" x1="-3370.42" y1="592.23" x2="-3513.19" y2="839.52" xlink:href="#78c1be34-df8a-4d8f-bc95-8f8d93088db2"/>
    <linearGradient id="f2d2d13b-23cf-4585-890f-a0f9d6a8a594" x1="-4263.03" y1="924.53" x2="-4263.03" y2="634.02" gradientTransform="matrix(-1, 0, 0, 1, -2682.02, 0)" gradientUnits="userSpaceOnUse">
      <stop offset="0" stop-color="#ffffe4" stop-opacity="0"/>
      <stop offset="0.12" stop-color="#ffffe4" stop-opacity="0"/>
      <stop offset="0.27" stop-color="#ffffe4" stop-opacity="0.02"/>
      <stop offset="0.38" stop-color="#ffffe4" stop-opacity="0.06"/>
      <stop offset="0.49" stop-color="#ffffe4" stop-opacity="0.12"/>
      <stop offset="0.59" stop-color="#ffffe4" stop-opacity="0.21"/>
      <stop offset="0.68" stop-color="#ffffe4" stop-opacity="0.33"/>
      <stop offset="0.77" stop-color="#ffffe4" stop-opacity="0.48"/>
      <stop offset="0.86" stop-color="#ffffe4" stop-opacity="0.66"/>
      <stop offset="0.94" stop-color="#ffffe4" stop-opacity="0.85"/>
      <stop offset="1" stop-color="#ffffe4"/>
    </linearGradient>
  </defs>
  <title>img-lg-mountain</title>
  <g id="32a6075e-515d-4387-aeae-410c1718302c" data-name="Layer 2">
    <g id="55c7ce44-a753-4ab0-9966-e1e50eb924e1" data-name="large mountains">
      <g>
        <g>
          <polygon class="7b28a0e3-d2c9-493b-9611-0f8ea2563025" points="2295 1344.08 331.69 1344.08 412.52 1315.91 475.67 1142.86 544.94 995.71 571.57 995.71 663.39 771.53 721.35 798.26 719.47 818.25 755.29 813.91 822.13 844.74 868.29 488.38 968.17 507.08 1004.1 234.28 1081.77 201.78 1176.88 0 1433.54 320.06 1444.24 372.13 1475.29 372.13 1491.57 392.44 1511.7 450.53 1549.83 465.08 2295 1344.08"/>
          <polygon class="b57b628b-618b-43bd-a284-3ee06696abb0" points="1176.88 0 1081.77 201.78 1004.1 234.28 968.17 507.08 868.29 488.38 822.13 844.74 755.29 813.91 719.47 818.25 721.35 798.26 663.39 771.53 496.41 906.68 475.67 951.89 444.25 948.9 363.63 1014.15 495.78 742.61 571.57 672.31 628.21 666.61 674.47 581.98 791.52 419.25 820.25 372.13 847.84 372.13 916.84 213.74 1050.3 164.98 1176.88 0"/>
          <polygon class="b34db729-974c-45c7-bb2b-160327c20e24" points="663.39 771.53 571.57 995.71 544.94 995.71 475.67 1142.86 412.52 1315.91 331.69 1344.08 0 1344.08 284.85 1057.88 322.84 1062.33 363.63 1014.15 444.26 948.9 475.67 951.89 496.41 906.68 663.39 771.53"/>
          <polygon class="c2933403-68f7-4929-a600-e6736450fe28" points="820.25 372.13 790.27 604.63 847.84 372.13 820.25 372.13"/>
          <polygon class="8d292d58-5564-452a-b33b-a20f28ab5f21" points="1549.83 465.08 1563.74 547.22 1511.7 450.53 1549.83 465.08"/>
          <polygon class="8d292d58-5564-452a-b33b-a20f28ab5f21" points="1475.29 372.13 1461.7 573.25 1444.24 372.13 1475.29 372.13"/>
          <polygon class="8d292d58-5564-452a-b33b-a20f28ab5f21" points="1511.7 540.56 1529.36 634.02 1375.76 830.04 1507.71 634.02 1511.7 540.56"/>
          <polygon class="12f5b16b-352e-49b3-a313-da3485b9b5a6" points="1176.88 0 1081.77 201.78 1004.1 234.28 968.17 507.08 1461.7 573.25 1444.24 372.13 1433.54 320.06 1176.88 0"/>
          <polygon class="c2933403-68f7-4929-a600-e6736450fe28" points="628.21 666.61 554.24 859.88 522.9 885.24 571.57 672.31 628.21 666.61"/>
          <polygon class="c2933403-68f7-4929-a600-e6736450fe28" points="475.67 951.89 305.38 1232.18 444.26 948.9 475.67 951.89"/>
          <polygon class="5ecca8f9-9893-44b0-a69e-2a06e41d40bf" points="1176.88 0 1296.42 149.08 1115.2 130.85 1176.88 0"/>
          <polygon class="88d452b1-5858-4398-b6e8-8ef07d410096" points="1475.29 372.13 1491.57 392.44 1511.7 450.53 1546.86 515.85 1464.6 530.33 1475.29 372.13"/>
          <polygon class="571b3649-e15d-4866-b68f-0d02404515ad" points="1549.83 465.08 1641.08 578.87 1647.22 667.56 1563.74 547.22 1549.83 465.08"/>
          <polygon class="daab7fff-5b68-47ea-a5cd-cd02358670ac" points="822.13 844.74 755.29 813.91 711.88 948.9 819.06 1014.15 822.13 844.74"/>
          <g>
            <polygon class="8d292d58-5564-452a-b33b-a20f28ab5f21" points="1246.19 490.18 1224.24 451.58 1305.92 343.42 1145.53 456.71 1058.8 631.86 1019.54 881.4 1080.17 631.86 1187.9 490.12 1246.19 490.18"/>
            <polygon class="d3359290-3753-42b2-bf0d-e2957f1e2f8d" points="1305.92 343.42 1371.76 410.96 1394 475.56 1224.24 451.58 1305.92 343.42"/>
          </g>
          <polygon class="d7d89ac2-6467-4003-b26a-f0ce1ac151de" points="663.39 771.53 721.35 798.26 711.88 948.9 583.62 966.31 663.39 771.53"/>
          <polygon class="8d292d58-5564-452a-b33b-a20f28ab5f21" points="719.47 818.25 711.88 948.9 755.29 813.91 719.47 818.25"/>
          <polygon class="56cf7c95-1dd4-4f8f-bcf8-6cff27222878" points="968.17 507.08 868.29 488.38 831.62 771.53 941.13 733.62 968.17 507.08"/>
        </g>
        <polygon class="893a0ff3-35ed-4589-b8d2-e292d05a84b3" points="868.29 488.38 755.29 594.23 742.94 646.77 655.85 698.95 587.53 832.93 663.39 771.53 721.35 798.26 719.47 818.25 755.29 813.91 822.13 844.74 868.29 488.38"/>
        <polygon class="b6493468-4b7f-496c-9f7e-c276a8b410d8" points="1529.36 634.02 1614.83 685.3 1786.28 924.53 1375.76 830.04 1529.36 634.02"/>
      </g>
    </g>
  </g>
</svg>
