<svg xmlns="http://www.w3.org/2000/svg" xmlns:xlink="http://www.w3.org/1999/xlink" width="1731.54" height="975.42" viewBox="0 0 1731.54 975.42">
  <defs>
    <style>
      .\33 c3d199b-edae-4a6b-bb55-d76235769917 {
        fill: url(#99b4d19d-c725-496b-ac53-b6354e3e8ae4);
      }

      .\39 d776a70-06bc-4b38-b429-ab48965e1e80 {
        fill: url(#ecab4bd8-da7d-4a59-bb8c-22495780819b);
      }

      .\37 e77cda0-acc0-445e-bcf5-f228fd9d7eca {
        fill: #418e6f;
      }

      .\38 91eb0e1-7b3a-4544-ad69-de705c36d6b8 {
        fill: #41ac75;
      }

      .\32 10092f8-3554-40eb-8bcd-165a84a4219e {
        fill: #5d99ab;
      }

      .\31 625f811-51a7-48e6-b1b2-ac6b30a80b40 {
        fill: url(#4dc7ae96-9949-4f9e-bc91-9d4505eaaa9e);
      }

      .e22d2072-19e8-40e4-869f-413e4662cb17 {
        fill: url(#4f04eb0b-5b97-41c5-aebe-c68df78501d6);
      }

      .f3a776e0-2b27-4cfa-b722-fdff40447c48 {
        fill: url(#7c03abf3-3707-4dcf-908e-0c201c0551dd);
      }

      .e536bcae-8b92-4d86-9444-68ae27571121 {
        fill: #005b30;
      }

      .\34 fc967b9-5bc2-4425-b2dc-a5dc170aaaf7 {
        fill: url(#5804f1d1-809f-44d6-8bc8-0343576e453c);
      }

      .\35 4f3d41e-3a39-4ad9-b507-6730b8dd2ac3 {
        fill: #197648;
      }
    </style>
    <linearGradient id="99b4d19d-c725-496b-ac53-b6354e3e8ae4" x1="-2654.46" x2="-2654.46" y2="547.65" gradientTransform="matrix(-1, 0, 0, 1, -1970.44, 0)" gradientUnits="userSpaceOnUse">
      <stop offset="0" stop-color="#58c182"/>
      <stop offset="0.18" stop-color="#54ba7e"/>
      <stop offset="0.44" stop-color="#47a872"/>
      <stop offset="0.74" stop-color="#328b5e"/>
      <stop offset="1" stop-color="#1c6a48"/>
    </linearGradient>
    <linearGradient id="ecab4bd8-da7d-4a59-bb8c-22495780819b" x1="-3341.95" y1="253.81" x2="-2731.17" y2="1311.72" gradientTransform="matrix(-1, 0, 0, 1, -1970.44, 0)" gradientUnits="userSpaceOnUse">
      <stop offset="0" stop-color="#ddf4c5"/>
      <stop offset="0.58" stop-color="#86d169"/>
      <stop offset="0.69" stop-color="#67c574"/>
      <stop offset="0.83" stop-color="#41b782"/>
    </linearGradient>
    <linearGradient id="4dc7ae96-9949-4f9e-bc91-9d4505eaaa9e" x1="-3018.45" y1="187.99" x2="-3039.24" y2="90.17" gradientTransform="matrix(-1, 0, 0, 1, -1970.44, 0)" gradientUnits="userSpaceOnUse">
      <stop offset="0" stop-color="#ffffe4" stop-opacity="0"/>
      <stop offset="0.12" stop-color="#ffffe4" stop-opacity="0"/>
      <stop offset="0.2" stop-color="#ffffe4" stop-opacity="0.03"/>
      <stop offset="0.31" stop-color="#ffffe4" stop-opacity="0.1"/>
      <stop offset="0.44" stop-color="#ffffe4" stop-opacity="0.22"/>
      <stop offset="0.59" stop-color="#ffffe4" stop-opacity="0.38"/>
      <stop offset="0.74" stop-color="#ffffe4" stop-opacity="0.58"/>
      <stop offset="0.9" stop-color="#ffffe4" stop-opacity="0.83"/>
      <stop offset="1" stop-color="#ffffe4"/>
    </linearGradient>
    <linearGradient id="4f04eb0b-5b97-41c5-aebe-c68df78501d6" x1="-2910.67" y1="157.78" x2="-2940.98" y2="15.16" xlink:href="#4dc7ae96-9949-4f9e-bc91-9d4505eaaa9e"/>
    <linearGradient id="7c03abf3-3707-4dcf-908e-0c201c0551dd" x1="-3142.83" y1="349.91" x2="-3181.47" y2="290.42" gradientTransform="matrix(-1, 0, 0, 1, -1970.44, 0)" gradientUnits="userSpaceOnUse">
      <stop offset="0.2" stop-color="#ffffe4" stop-opacity="0"/>
      <stop offset="0.28" stop-color="#ffffe4" stop-opacity="0.02"/>
      <stop offset="0.38" stop-color="#ffffe4" stop-opacity="0.09"/>
      <stop offset="0.49" stop-color="#ffffe4" stop-opacity="0.2"/>
      <stop offset="0.61" stop-color="#ffffe4" stop-opacity="0.35"/>
      <stop offset="0.75" stop-color="#ffffe4" stop-opacity="0.54"/>
      <stop offset="0.88" stop-color="#ffffe4" stop-opacity="0.78"/>
      <stop offset="1" stop-color="#ffffe4"/>
    </linearGradient>
    <linearGradient id="5804f1d1-809f-44d6-8bc8-0343576e453c" x1="-2224.53" y1="603.53" x2="-2335.18" y2="907.54" xlink:href="#99b4d19d-c725-496b-ac53-b6354e3e8ae4"/>
  </defs>
  <title>img-md-mountain</title>
  <g id="6da5ea11-e52a-43ab-bbb7-c2fa10957b3b" data-name="Layer 2">
    <g id="14a696c2-b181-44ce-899d-3da84c399d0e" data-name="medium mountain">
      <g>
        <g>
          <polygon class="3c3d199b-edae-4a6b-bb55-d76235769917" points="899.23 0 850.24 279.54 730.54 311.9 659.11 447.5 645.02 474.25 597.98 478.37 489.4 547.65 468.8 546.48 529.33 455.18 558 427.23 597.98 421.52 673.99 280.89 788.13 138.54 809.19 135.41 818.25 101 899.23 0"/>
          <polygon class="9d776a70-06bc-4b38-b429-ab48965e1e80" points="1731.54 975.42 178.24 975.42 493.22 618.77 545.82 595.54 597.98 478.37 645.02 474.25 730.54 311.9 850.24 279.54 899.23 0 959.79 16.11 977.65 38.38 987.71 69.29 1008.99 77.46 1119.07 214.72 1124.29 242.18 1145.79 248.05 1731.54 975.42"/>
          <polygon class="7e77cda0-acc0-445e-bcf5-f228fd9d7eca" points="809.19 135.41 791.33 224.2 788.13 138.54 809.19 135.41"/>
          <polygon class="891eb0e1-7b3a-4544-ad69-de705c36d6b8" points="1008.99 77.46 1012.59 167.96 987.71 69.29 1008.99 77.46"/>
          <path class="210092f8-3554-40eb-8bcd-165a84a4219e" d="M1145.79,248.05l-18.12,36.81,9.06,41.89-20.06,86.75s11.85-84.62,11-86.75-16.59-43.59-16.59-43.59l13.21-41Z"/>
          <polygon class="891eb0e1-7b3a-4544-ad69-de705c36d6b8" points="959.79 77.46 959.79 349.89 898.26 383.63 828.8 512.64 673.99 653.51 801.01 500.88 864.82 393.72 927.02 329.78 959.79 77.46"/>
          <g>
            <polygon class="1625f811-51a7-48e6-b1b2-ac6b30a80b40" points="1008.99 77.46 1012.59 167.96 1107.82 200.7 1008.99 77.46"/>
            <polygon class="e22d2072-19e8-40e4-869f-413e4662cb17" points="987.71 69.29 977.65 38.38 959.79 16.11 899.23 0 874.04 143.71 1012.59 167.96 987.71 69.29"/>
            <polygon class="f3a776e0-2b27-4cfa-b722-fdff40447c48" points="1145.79 248.05 1127.67 284.86 1136.73 326.75 1248.28 375.86 1145.79 248.05"/>
          </g>
        </g>
        <polygon class="e536bcae-8b92-4d86-9444-68ae27571121" points="597.98 421.52 554.68 506 539.68 515.57 558 427.48 597.98 421.52"/>
        <polygon class="4fc967b9-5bc2-4425-b2dc-a5dc170aaaf7" points="597.98 478.37 489.4 547.65 455.27 545.72 430.18 557.56 399.37 602.54 312.4 621.4 0 975.42 178.24 975.42 493.22 618.77 545.82 595.54 597.98 478.37"/>
        <polygon class="54f3d41e-3a39-4ad9-b507-6730b8dd2ac3" points="489.4 547.65 468.8 559.87 451.93 597.09 419.24 682.4 429.69 590.99 455.27 545.72 489.4 547.65"/>
      </g>
    </g>
  </g>
</svg>
