<svg width="3840" height="2214" viewBox="0 0 3840 2214" fill="none" xmlns="http://www.w3.org/2000/svg">
<path opacity="0.3" d="M620.414 1015.01L387.162 702.494H261.168L204.158 645.484H-0.00585938L0.331141 1015L620.414 1015.01Z" fill="url(#paint0_linear)"/>
<path opacity="0.3" d="M3116.99 1015.01L3339.22 678.277H3502.19L3575.93 604.539H3839.99L3839.56 1015L3116.99 1015.01Z" fill="url(#paint1_linear)"/>
<path opacity="0.1" d="M3696.34 523.045L3675.01 569.133L3696.99 590.465L3716.52 567.492L3696.34 523.045Z" fill="url(#paint2_linear)"/>
<path opacity="0.1" d="M3640.95 482.453L3608.45 552.672L3641.95 585.172L3671.7 550.172L3640.95 482.453Z" fill="url(#paint3_linear)"/>
<path opacity="0.1" d="M354.732 621.998L333.4 668.086L355.388 689.418L374.916 666.445L354.732 621.998Z" fill="url(#paint4_linear)"/>
<path d="M3839.99 2214H0V782.209C0 782.209 719.656 714.25 1920.33 714.25C3120.99 714.25 3839.99 782.209 3839.99 782.209V2214H3839.99Z" fill="url(#paint5_linear)"/>
<path opacity="0.7" d="M2178.65 579.463H2169.11H2035.77H2026.24L2009.04 596.668V703.047L2026.24 720.254H2035.77H2169.11H2178.65L2195.85 703.047V596.668L2178.65 579.463Z" fill="url(#paint6_linear)"/>
<path opacity="0.7" d="M2319.15 638.742H2313.63H2236.43H2230.91L2220.95 648.703V710.291L2230.91 720.254H2236.43H2313.63H2319.15L2329.11 710.291V648.703L2319.15 638.742Z" fill="url(#paint7_linear)"/>
<path d="M782.357 694.92H799.494L754.208 616.496H737.072L782.357 694.92Z" fill="url(#paint8_linear)"/>
<path d="M715.223 696.645L671.703 698.451L788.988 471.777H832.509L715.223 696.645Z" fill="url(#paint9_linear)"/>
<path d="M857.979 734.063L599.876 744.781L632.646 700.068L821.615 692.221L857.979 734.063Z" fill="url(#paint10_linear)"/>
<path d="M1835.45 671.934H1878.97L1763.97 469.631H1720.45L1835.45 671.934Z" fill="url(#paint11_linear)"/>
<path d="M1773.67 671.934H1756.53L1801.81 593.512H1818.95L1773.67 671.934Z" fill="url(#paint12_linear)"/>
<path d="M1694.98 716.021H1953.3L1918.71 671.934H1729.57L1694.98 716.021Z" fill="url(#paint13_linear)"/>
<path d="M1609.42 671.934H1652.94L1537.93 469.631H1494.41L1609.42 671.934Z" fill="url(#paint14_linear)"/>
<path d="M1547.63 671.934H1530.5L1575.78 593.512H1592.92L1547.63 671.934Z" fill="url(#paint15_linear)"/>
<path d="M1468.94 715.25H1727.27L1692.67 671.934H1503.54L1468.94 715.25Z" fill="url(#paint16_linear)"/>
<path d="M1841.72 0.244141V16.3943C1841.72 16.3943 1828.89 21.3041 1698.72 50.9841C1568.55 80.6641 1587.59 114.714 1315.15 220.224C1277.36 234.863 1236.08 247.253 1193.01 257.724C1187.19 259.144 1181.34 260.523 1175.46 261.872C984.924 305.513 764.534 313.372 657.204 313.493C618.174 327.333 560.794 336.093 560.794 336.093C586.024 312.054 617.934 303.884 630.404 300.163C736.234 268.612 853.244 208.112 1000.31 152.622C1009.65 149.102 1019.11 145.602 1028.7 142.134C1064.18 129.263 1101.38 116.804 1140.56 105.183C1376.67 35.1354 1841.72 0.244141 1841.72 0.244141Z" fill="url(#paint17_linear)"/>
<path d="M2083.18 192.221V278.775L2021.23 292.727L1862.31 328.51L1817.54 142.467L2021.23 180.625L2083.18 192.221Z" fill="url(#paint18_linear)"/>
<path d="M1795.02 136.535H1873.76C1873.76 136.535 1943.24 148.431 1974.38 209.555C2005.52 270.678 1993.95 312.116 1993.95 312.116L1955.03 351.038L1795.02 136.535Z" fill="url(#paint19_linear)"/>
<path d="M2083.18 192.221C2083.18 192.221 2109.4 203.512 2109.4 236.676C2109.4 269.844 2083.18 278.776 2083.18 278.776L2021.23 292.727C2021.23 292.727 2053.34 279.698 2053.34 236.676C2053.34 193.658 2021.23 180.625 2021.23 180.625L2083.18 192.221Z" fill="url(#paint20_linear)"/>
<path d="M384.067 431.555L1288.23 439.555L2002.05 431.555L2043 390.613L1777.18 50.9863L355.237 384.273L384.067 431.555Z" fill="url(#paint21_linear)"/>
<path d="M1920.17 0.244141V16.3943C1920.17 16.3943 1907.34 21.3041 1777.17 50.9841C1647 80.6641 1666.04 114.714 1393.6 220.224C1364.46 231.513 1333.3 241.404 1300.88 250.083C1288 253.532 1274.93 256.782 1261.71 259.853C1053.37 308.283 807.724 311.583 712.454 310.794C671.574 310.794 609.404 324.743 600.864 326.702C727.744 296.723 921.534 205.073 1124.1 135.653C1140.91 129.883 1157.78 124.272 1174.69 118.862C1189.45 114.143 1204.23 109.573 1219.01 105.182C1455.12 35.1351 1920.17 0.244141 1920.17 0.244141Z" fill="url(#paint22_linear)"/>
<path d="M1911.79 472.777H457.805L423.208 431.555H1307.44H1958.49L1911.79 472.777Z" fill="url(#paint23_linear)"/>
<path d="M355.237 384.273H697.748L743.876 431.555H384.067L355.237 384.273Z" fill="url(#paint24_linear)"/>
<path d="M423.208 431.555H765.719L817.613 472.777H457.805L423.208 431.555Z" fill="url(#paint25_linear)"/>
<path d="M719.067 696.484L686.298 741.197L599.879 744.787L632.65 700.072L719.067 696.484Z" fill="url(#paint26_linear)"/>
<path d="M1409.81 432.205L1416.58 425.141L1347.19 426.045L1339.81 433.115L1417.35 515.035L1488.36 515.123L1409.81 432.205Z" fill="url(#paint27_linear)"/>
<path d="M1498.67 513.977L1487.35 515.123L1409.81 432.205L1416.58 425.141L1498.67 513.977Z" fill="url(#paint28_linear)"/>
<path d="M1662.33 428.92L1732.34 428.008L1656.95 511.916L1586.94 512.828L1662.33 428.92Z" fill="url(#paint29_linear)"/>
<path d="M1737.61 434.586L1668.26 511.77L1656.95 511.916L1732.34 428.008L1737.61 434.586Z" fill="url(#paint30_linear)"/>
<path d="M1332.45 516.57L1336.38 721.08L1195.56 723.787L1170.08 699.271L1167.11 544.75L1191.63 519.277L1332.45 516.57Z" fill="url(#paint31_linear)"/>
<path d="M1469.25 513.941L1455.4 514.207L1298.14 517.229L1284.29 517.496L1259.78 542.971L1262.75 697.492L1288.22 722.006L1302.07 721.738L1459.33 718.717L1473.18 718.451L1497.69 692.977L1494.72 538.455L1469.25 513.941Z" fill="url(#paint32_linear)"/>
<path d="M1459.41 718.715L1339.71 721.016L1310.33 694.598L1307.44 544.295L1334.36 516.533L1455.48 514.205L1459.41 718.715Z" fill="url(#paint33_linear)"/>
<path d="M1239.02 565.779L1215.42 683.963L1187.29 566.773L1199.17 566.545L1214.38 629.912L1227.14 566.006L1239.02 565.779Z" fill="url(#paint34_radial)"/>
<path d="M1184.58 698.996L1210.05 723.508L1195.56 723.787L1170.08 699.273L1167.11 544.746L1191.63 519.277L1206.12 518.998L1181.61 544.469L1184.58 698.996Z" fill="url(#paint35_linear)"/>
<path d="M1262.75 697.494L1288.23 722.006L1273.73 722.283L1248.26 697.771L1245.29 543.244L1269.8 517.773L1284.29 517.496L1259.78 542.967L1262.75 697.494Z" fill="url(#paint36_linear)"/>
<path d="M1727.54 511.578V716.125H1868.39L1893.39 691.127V536.576L1868.39 511.578H1727.54Z" fill="url(#paint37_linear)"/>
<path d="M1590.72 511.578H1604.57H1761.86H1775.71L1800.71 536.576V691.127L1775.71 716.125H1761.86H1604.57H1590.72L1565.73 691.127V536.576L1590.72 511.578Z" fill="url(#paint38_linear)"/>
<path d="M1878.89 691.129L1853.9 716.125H1868.39L1893.39 691.129V536.572L1868.39 511.578H1853.9L1878.89 536.572V691.129Z" fill="url(#paint39_linear)"/>
<path d="M1800.71 691.129L1775.71 716.125H1790.21L1815.2 691.129V536.572L1790.21 511.578H1775.71L1800.71 536.572V691.129Z" fill="url(#paint40_linear)"/>
<path d="M1543.69 513.391L1546.35 717.922L1405.51 719.754L1380.19 695.082L1378.18 540.545L1402.85 515.223L1543.69 513.391Z" fill="url(#paint41_linear)"/>
<path d="M1680.5 511.611L1666.65 511.791L1509.38 513.838L1495.53 514.018L1470.86 539.338L1472.87 693.877L1498.19 718.547L1512.04 718.367L1669.31 716.32L1683.16 716.141L1707.83 690.82L1705.82 536.281L1680.5 511.611Z" fill="url(#paint42_linear)"/>
<path d="M1669.39 716.32L1520.81 718.254L1518.15 513.723L1666.73 511.789L1669.39 716.32Z" fill="url(#paint43_linear)"/>
<path d="M1650.68 559.406L1593.14 677.873L1532.53 560.943L1559.67 560.592L1592.44 623.818L1623.55 559.76L1650.68 559.406Z" fill="#00FEFF"/>
<path d="M1669.39 716.32L1659.61 716.447L1656.95 511.916L1666.73 511.789L1669.39 716.32Z" fill="url(#paint44_linear)"/>
<path d="M1394.69 694.896L1420.01 719.564L1405.51 719.754L1380.19 695.086L1378.18 540.541L1402.85 515.223L1417.35 515.035L1392.68 540.352L1394.69 694.896Z" fill="url(#paint45_linear)"/>
<path d="M1472.87 693.879L1498.19 718.547L1483.69 718.736L1458.37 694.066L1456.36 539.523L1481.03 514.205L1495.53 514.018L1470.86 539.336L1472.87 693.879Z" fill="url(#paint46_linear)"/>
<path opacity="0.5" d="M1656.95 511.916L1732.34 428.008L2097.31 1.45312H896.187L1347.19 426.045L1416.58 425.141L1498.67 513.977L1656.95 511.916Z" fill="url(#paint47_radial)"/>
<path d="M1579.75 491.154C1580.52 491.154 1581.14 490.529 1581.14 489.758C1581.14 488.987 1580.52 488.362 1579.75 488.362C1578.97 488.362 1578.35 488.987 1578.35 489.758C1578.35 490.529 1578.97 491.154 1579.75 491.154Z" fill="white"/>
<path d="M1549.17 459.468C1549.79 459.468 1550.29 458.966 1550.29 458.346C1550.29 457.727 1549.79 457.224 1549.17 457.224C1548.55 457.224 1548.05 457.727 1548.05 458.346C1548.05 458.966 1548.55 459.468 1549.17 459.468Z" fill="white"/>
<path d="M1589.6 417.581C1590.68 417.581 1591.55 416.706 1591.55 415.627C1591.55 414.548 1590.68 413.673 1589.6 413.673C1588.52 413.673 1587.64 414.548 1587.64 415.627C1587.64 416.706 1588.52 417.581 1589.6 417.581Z" fill="white"/>
<path opacity="0.2" d="M1601.68 322.228C1602.45 322.228 1603.07 321.603 1603.07 320.832C1603.07 320.061 1602.45 319.436 1601.68 319.436C1600.91 319.436 1600.28 320.061 1600.28 320.832C1600.28 321.603 1600.91 322.228 1601.68 322.228Z" fill="white"/>
<path opacity="0.3" d="M1429.52 360.484C1430.29 360.484 1430.91 359.859 1430.91 359.088C1430.91 358.317 1430.29 357.692 1429.52 357.692C1428.75 357.692 1428.12 358.317 1428.12 359.088C1428.12 359.859 1428.75 360.484 1429.52 360.484Z" fill="white"/>
<path opacity="0.6" d="M1920.17 0.244141V6.75415C1778.52 19.8152 1472.16 52.5843 1294.87 105.184C1280.09 109.575 1265.31 114.145 1250.55 118.864C1233.64 124.274 1216.77 129.885 1199.96 135.655C1025.51 195.434 857.574 271.704 733.274 310.885C725.714 310.885 718.754 310.854 712.454 310.795C672.214 310.795 611.344 324.315 601.304 326.604C728.194 296.514 921.764 204.995 1124.1 135.655C1140.91 129.885 1157.78 124.274 1174.69 118.864C1189.45 114.145 1204.23 109.575 1219.01 105.184C1455.12 35.1353 1920.17 0.244141 1920.17 0.244141Z" fill="url(#paint48_radial)"/>
<path opacity="0.6" d="M1723.1 61.27C1613.08 77.256 1501.02 97.624 1417.56 122.385C1402.78 126.776 1388 131.346 1373.24 136.065C1356.33 141.475 1339.46 147.086 1322.65 152.856C1148.2 212.635 980.259 288.905 855.959 328.086C848.399 328.086 841.439 328.055 835.139 327.996C794.899 327.996 734.029 341.516 723.989 343.805C850.879 313.715 1044.45 222.196 1246.79 152.856C1263.6 147.086 1280.47 141.475 1297.38 136.065C1312.14 131.346 1326.92 126.776 1341.7 122.385C1445.72 91.526 1594.17 67.489 1727.71 50.252C1779.66 36.521 1737.66 54.521 1723.1 61.27Z" fill="url(#paint49_radial)"/>
<path d="M1487.71 181.824C1477.73 186.144 1467.18 190.613 1456.02 195.244C1451.5 187.465 1445.72 178.433 1438.55 168.885C1413.8 135.914 1372.56 96.8242 1309.97 82.0842C1295.73 78.7252 1274.68 76.9793 1252.81 79.4163C1235.04 81.3963 1211.74 86.4792 1211.74 86.4792C1211.74 86.4792 1227.24 75.3542 1260.03 69.1042C1294.48 62.5362 1314.08 64.0203 1324.35 65.6863C1349.44 69.7563 1413.68 79.7273 1469.53 154.485C1475.75 162.795 1481.83 171.885 1487.71 181.824Z" fill="url(#paint50_linear)"/>
<defs>
<linearGradient id="paint0_linear" x1="310.204" y1="1864.99" x2="310.204" y2="1367.73" gradientUnits="userSpaceOnUse">
<stop stop-color="#1E3250"/>
<stop offset="1" stop-color="#080117"/>
</linearGradient>
<linearGradient id="paint1_linear" x1="3478.49" y1="1959.17" x2="3478.49" y2="1406.81" gradientUnits="userSpaceOnUse">
<stop stop-color="#1E3250"/>
<stop offset="1" stop-color="#080117"/>
</linearGradient>
<linearGradient id="paint2_linear" x1="3695.76" y1="700.296" x2="3695.76" y2="667.842" gradientUnits="userSpaceOnUse">
<stop stop-color="#1E3250"/>
<stop offset="1" stop-color="#080117"/>
</linearGradient>
<linearGradient id="paint3_linear" x1="3640.08" y1="752.507" x2="3640.08" y2="703.061" gradientUnits="userSpaceOnUse">
<stop stop-color="#1E3250"/>
<stop offset="1" stop-color="#080117"/>
</linearGradient>
<linearGradient id="paint4_linear" x1="354.158" y1="799.249" x2="354.158" y2="766.795" gradientUnits="userSpaceOnUse">
<stop stop-color="#1E3250"/>
<stop offset="1" stop-color="#080117"/>
</linearGradient>
<linearGradient id="paint5_linear" x1="1919.99" y1="110.001" x2="1919.99" y2="2201" gradientUnits="userSpaceOnUse">
<stop stop-color="#00233C"/>
<stop offset="1" stop-color="#080117"/>
</linearGradient>
<linearGradient id="paint6_linear" x1="2102.44" y1="1337.15" x2="2102.44" y2="1547.69" gradientUnits="userSpaceOnUse">
<stop stop-color="#1E3250"/>
<stop offset="1" stop-color="#080117"/>
</linearGradient>
<linearGradient id="paint7_linear" x1="2275.03" y1="1337.16" x2="2275.03" y2="1547.71" gradientUnits="userSpaceOnUse">
<stop stop-color="#1E3250"/>
<stop offset="1" stop-color="#080117"/>
</linearGradient>
<linearGradient id="paint8_linear" x1="768.283" y1="1114.21" x2="768.283" y2="-153.03" gradientUnits="userSpaceOnUse">
<stop stop-color="#1E3250"/>
<stop offset="1" stop-color="#080117"/>
</linearGradient>
<linearGradient id="paint9_linear" x1="752.106" y1="1175.66" x2="752.106" y2="-266.644" gradientUnits="userSpaceOnUse">
<stop stop-color="#1E3250"/>
<stop offset="1" stop-color="#080117"/>
</linearGradient>
<linearGradient id="paint10_linear" x1="710" y1="283.717" x2="777.15" y2="1900.35" gradientUnits="userSpaceOnUse">
<stop stop-color="#1E3250"/>
<stop offset="1" stop-color="#080117"/>
</linearGradient>
<linearGradient id="paint11_linear" x1="1799.71" y1="762.834" x2="1799.71" y2="-24.6087" gradientUnits="userSpaceOnUse">
<stop stop-color="#1E3250"/>
<stop offset="1" stop-color="#080117"/>
</linearGradient>
<linearGradient id="paint12_linear" x1="1787.74" y1="802.543" x2="1787.74" y2="866.111" gradientUnits="userSpaceOnUse">
<stop stop-color="#1E3250"/>
<stop offset="1" stop-color="#080117"/>
</linearGradient>
<linearGradient id="paint13_linear" x1="1824.14" y1="251.804" x2="1824.14" y2="1898.63" gradientUnits="userSpaceOnUse">
<stop stop-color="#1E3250"/>
<stop offset="1" stop-color="#080117"/>
</linearGradient>
<linearGradient id="paint14_linear" x1="1573.67" y1="-603.116" x2="1573.67" y2="1935.22" gradientUnits="userSpaceOnUse">
<stop stop-color="#1E3250"/>
<stop offset="1" stop-color="#080117"/>
</linearGradient>
<linearGradient id="paint15_linear" x1="1561.71" y1="-583.281" x2="1561.71" y2="1915.56" gradientUnits="userSpaceOnUse">
<stop stop-color="#1E3250"/>
<stop offset="1" stop-color="#080117"/>
</linearGradient>
<linearGradient id="paint16_linear" x1="1598.11" y1="-894.696" x2="1598.11" y2="1604.21" gradientUnits="userSpaceOnUse">
<stop stop-color="#1E3250"/>
<stop offset="1" stop-color="#080117"/>
</linearGradient>
<linearGradient id="paint17_linear" x1="1201.26" y1="837.652" x2="1201.26" y2="714.357" gradientUnits="userSpaceOnUse">
<stop stop-color="#1E3250"/>
<stop offset="1" stop-color="#080117"/>
</linearGradient>
<linearGradient id="paint18_linear" x1="2193.65" y1="5.55401" x2="638.435" y2="1316.42" gradientUnits="userSpaceOnUse">
<stop stop-color="#1E3250"/>
<stop offset="1" stop-color="#080117"/>
</linearGradient>
<linearGradient id="paint19_linear" x1="283.408" y1="243.786" x2="3448.88" y2="243.786" gradientUnits="userSpaceOnUse">
<stop stop-color="#1E3250"/>
<stop offset="1" stop-color="#080117"/>
</linearGradient>
<linearGradient id="paint20_linear" x1="2375.7" y1="-41.6837" x2="1673.43" y2="550.253" gradientUnits="userSpaceOnUse">
<stop stop-color="#1E3250"/>
<stop offset="1" stop-color="#080117"/>
</linearGradient>
<linearGradient id="paint21_linear" x1="2671.65" y1="245.271" x2="-1279.83" y2="245.27" gradientUnits="userSpaceOnUse">
<stop stop-color="#1E3250"/>
<stop offset="1" stop-color="#080117"/>
</linearGradient>
<linearGradient id="paint22_linear" x1="1260.52" y1="871.851" x2="1260.52" y2="692.943" gradientUnits="userSpaceOnUse">
<stop stop-color="#1E3250"/>
<stop offset="1" stop-color="#080117"/>
</linearGradient>
<linearGradient id="paint23_linear" x1="4510.17" y1="-2365.33" x2="-2602.18" y2="3629.53" gradientUnits="userSpaceOnUse">
<stop stop-color="#1E3250"/>
<stop offset="1" stop-color="#080117"/>
</linearGradient>
<linearGradient id="paint24_linear" x1="1799.79" y1="-645.885" x2="133.109" y2="758.933" gradientUnits="userSpaceOnUse">
<stop stop-color="#1E3250"/>
<stop offset="1" stop-color="#080117"/>
</linearGradient>
<linearGradient id="paint25_linear" x1="1708" y1="-464.546" x2="41.3089" y2="940.273" gradientUnits="userSpaceOnUse">
<stop stop-color="#1E3250"/>
<stop offset="1" stop-color="#080117"/>
</linearGradient>
<linearGradient id="paint26_linear" x1="630.197" y1="15.7842" x2="697.348" y2="1632.42" gradientUnits="userSpaceOnUse">
<stop stop-color="#1E3250"/>
<stop offset="1" stop-color="#080117"/>
</linearGradient>
<linearGradient id="paint27_linear" x1="1867.92" y1="464.731" x2="1237.17" y2="472.932" gradientUnits="userSpaceOnUse">
<stop stop-color="#1E3250"/>
<stop offset="1" stop-color="#080117"/>
</linearGradient>
<linearGradient id="paint28_linear" x1="1552.46" y1="468.826" x2="1177.01" y2="473.707" gradientUnits="userSpaceOnUse">
<stop stop-color="#1E3250"/>
<stop offset="1" stop-color="#080117"/>
</linearGradient>
<linearGradient id="paint29_linear" x1="1660.8" y1="559.213" x2="1657.48" y2="304.367" gradientUnits="userSpaceOnUse">
<stop stop-color="#1E3250"/>
<stop offset="1" stop-color="#080117"/>
</linearGradient>
<linearGradient id="paint30_linear" x1="1697.47" y1="488.039" x2="1694.16" y2="233.195" gradientUnits="userSpaceOnUse">
<stop stop-color="#1E3250"/>
<stop offset="1" stop-color="#080117"/>
</linearGradient>
<linearGradient id="paint31_linear" x1="1655.66" y1="612.658" x2="1029.19" y2="624.688" gradientUnits="userSpaceOnUse">
<stop stop-color="#1E3250"/>
<stop offset="1" stop-color="#080117"/>
</linearGradient>
<linearGradient id="paint32_linear" x1="1029.87" y1="624.672" x2="1632.56" y2="613.098" gradientUnits="userSpaceOnUse">
<stop stop-color="#1E3250"/>
<stop offset="1" stop-color="#080117"/>
</linearGradient>
<linearGradient id="paint33_linear" x1="1130.32" y1="622.743" x2="1407.54" y2="617.419" gradientUnits="userSpaceOnUse">
<stop stop-color="#1E3250"/>
<stop offset="1" stop-color="#080117"/>
</linearGradient>
<radialGradient id="paint34_radial" cx="0" cy="0" r="1" gradientUnits="userSpaceOnUse" gradientTransform="translate(1214.29 625.119) rotate(-1.10016) scale(390.48 390.479)">
<stop stop-color="#005A75"/>
<stop offset="1" stop-color="#080117"/>
</radialGradient>
<linearGradient id="paint35_linear" x1="1583.21" y1="614.049" x2="961.38" y2="625.99" gradientUnits="userSpaceOnUse">
<stop stop-color="#1E3250"/>
<stop offset="1" stop-color="#080117"/>
</linearGradient>
<linearGradient id="paint36_linear" x1="1583.2" y1="614.048" x2="961.378" y2="625.989" gradientUnits="userSpaceOnUse">
<stop stop-color="#1E3250"/>
<stop offset="1" stop-color="#080117"/>
</linearGradient>
<linearGradient id="paint37_linear" x1="1406.25" y1="613.853" x2="2032.82" y2="613.853" gradientUnits="userSpaceOnUse">
<stop stop-color="#1E3250"/>
<stop offset="1" stop-color="#080117"/>
</linearGradient>
<linearGradient id="paint38_linear" x1="2032.14" y1="613.852" x2="1429.35" y2="613.852" gradientUnits="userSpaceOnUse">
<stop stop-color="#1E3250"/>
<stop offset="1" stop-color="#080117"/>
</linearGradient>
<linearGradient id="paint39_linear" x1="1526.88" y1="613.853" x2="2106.07" y2="613.853" gradientUnits="userSpaceOnUse">
<stop stop-color="#1E3250"/>
<stop offset="1" stop-color="#080117"/>
</linearGradient>
<linearGradient id="paint40_linear" x1="1526.89" y1="613.853" x2="2106.06" y2="613.853" gradientUnits="userSpaceOnUse">
<stop stop-color="#1E3250"/>
<stop offset="1" stop-color="#080117"/>
</linearGradient>
<linearGradient id="paint41_linear" x1="1866.29" y1="611.48" x2="1239.77" y2="619.626" gradientUnits="userSpaceOnUse">
<stop stop-color="#1E3250"/>
<stop offset="1" stop-color="#080117"/>
</linearGradient>
<linearGradient id="paint42_linear" x1="1587.37" y1="463.262" x2="1596.34" y2="1153.18" gradientUnits="userSpaceOnUse">
<stop stop-color="#1E3250"/>
<stop offset="1" stop-color="#080117"/>
</linearGradient>
<linearGradient id="paint43_linear" x1="1590.23" y1="342.716" x2="1599.2" y2="1032.64" gradientUnits="userSpaceOnUse">
<stop stop-color="#1E3250"/>
<stop offset="1" stop-color="#080117"/>
</linearGradient>
<linearGradient id="paint44_linear" x1="1658.53" y1="257.019" x2="1667.5" y2="946.94" gradientUnits="userSpaceOnUse">
<stop stop-color="#1E3250"/>
<stop offset="1" stop-color="#080117"/>
</linearGradient>
<linearGradient id="paint45_linear" x1="1793.82" y1="612.423" x2="1171.96" y2="620.508" gradientUnits="userSpaceOnUse">
<stop stop-color="#1E3250"/>
<stop offset="1" stop-color="#080117"/>
</linearGradient>
<linearGradient id="paint46_linear" x1="1793.83" y1="612.422" x2="1171.95" y2="620.507" gradientUnits="userSpaceOnUse">
<stop stop-color="#1E3250"/>
<stop offset="1" stop-color="#080117"/>
</linearGradient>
<radialGradient id="paint47_radial" cx="0" cy="0" r="1" gradientUnits="userSpaceOnUse" gradientTransform="translate(1562.83 530.791) scale(466.095 466.096)">
<stop stop-color="white"/>
<stop offset="0.1169" stop-color="#D3FFFF" stop-opacity="0.8831"/>
<stop offset="0.2995" stop-color="#93FFFF" stop-opacity="0.7005"/>
<stop offset="0.4744" stop-color="#5FFFFF" stop-opacity="0.5256"/>
<stop offset="0.6364" stop-color="#36FFFF" stop-opacity="0.3636"/>
<stop offset="0.783" stop-color="#18FFFF" stop-opacity="0.217"/>
<stop offset="0.909" stop-color="#06FFFF" stop-opacity="0.091"/>
<stop offset="1" stop-color="#00FFFF" stop-opacity="0"/>
</radialGradient>
<radialGradient id="paint48_radial" cx="0" cy="0" r="1" gradientUnits="userSpaceOnUse" gradientTransform="translate(1276.99 -268.144) scale(640.764 640.764)">
<stop stop-color="#39FFDA"/>
<stop offset="0.1087" stop-color="#27D4CA"/>
<stop offset="0.2758" stop-color="#0E98B2"/>
<stop offset="0.3555" stop-color="#0480A9"/>
<stop offset="0.4233" stop-color="#056A8F"/>
<stop offset="0.5531" stop-color="#064465"/>
<stop offset="0.6789" stop-color="#072743"/>
<stop offset="0.7982" stop-color="#07122B"/>
<stop offset="0.9082" stop-color="#08051C"/>
<stop offset="1" stop-color="#080117"/>
</radialGradient>
<radialGradient id="paint49_radial" cx="0" cy="0" r="1" gradientUnits="userSpaceOnUse" gradientTransform="translate(1276.99 -268.147) scale(640.766)">
<stop stop-color="#39FFDA"/>
<stop offset="0.1087" stop-color="#27D4CA"/>
<stop offset="0.2758" stop-color="#0E98B2"/>
<stop offset="0.3555" stop-color="#0480A9"/>
<stop offset="0.4233" stop-color="#056A8F"/>
<stop offset="0.5531" stop-color="#064465"/>
<stop offset="0.6789" stop-color="#072743"/>
<stop offset="0.7982" stop-color="#07122B"/>
<stop offset="0.9082" stop-color="#08051C"/>
<stop offset="1" stop-color="#080117"/>
</radialGradient>
<linearGradient id="paint50_linear" x1="1308.89" y1="180.277" x2="842.851" y2="706.649" gradientUnits="userSpaceOnUse">
<stop stop-color="#1E3250"/>
<stop offset="1" stop-color="#080117"/>
</linearGradient>
</defs>
</svg>
