<svg width="3841" height="2758" viewBox="0 0 3841 2758" fill="none" xmlns="http://www.w3.org/2000/svg">
<path d="M3840.33 1360.33V2340.86C3817.11 2344.2 3793.37 2345.92 3769.23 2345.92C3495.66 2345.92 3273.9 2124.15 3273.9 1850.59C3273.9 1577.03 3495.66 1355.27 3769.23 1355.27C3793.37 1355.27 3817.11 1356.99 3840.33 1360.33Z" fill="url(#paint0_radial)"/>
<path opacity="0.2" d="M3319.27 1312.94C3354.97 1312.94 3383.91 1284 3383.91 1248.3C3383.91 1212.6 3354.97 1183.66 3319.27 1183.66C3283.57 1183.66 3254.63 1212.6 3254.63 1248.3C3254.63 1284 3283.57 1312.94 3319.27 1312.94Z" fill="url(#paint1_radial)"/>
<path opacity="0.6" d="M3030.55 1214.31C3100.68 1214.31 3157.52 1157.47 3157.52 1087.34C3157.52 1017.22 3100.68 960.38 3030.55 960.38C2960.43 960.38 2903.59 1017.22 2903.59 1087.34C2903.59 1157.47 2960.43 1214.31 3030.55 1214.31Z" fill="url(#paint2_radial)"/>
<path d="M3139.05 1021.4C3142.06 955.498 3122.8 903.8 3085.21 891.486C3042.28 877.42 2988.21 918.925 2949.96 989.22C2951.32 988.099 2952.72 987.011 2954.14 985.95C2991.47 920.079 3042.94 881.686 3084.01 895.143C3120.03 906.944 3138.9 955.622 3137 1018.14C3136.07 1048.76 3130.16 1082.7 3118.84 1117.25C3107.83 1150.85 3093.02 1180.97 3076.24 1205.81C3040.54 1258.64 2995.83 1287.63 2959.33 1275.67C2917.78 1262.05 2899.06 1199.38 2908.7 1123.01C2908.2 1121.32 2907.73 1119.61 2907.3 1117.89C2895.76 1198.36 2914.73 1265.12 2958.13 1279.33C2996.19 1291.81 3043.01 1260.6 3079.8 1204.37C3095.87 1179.8 3110.03 1150.44 3120.71 1117.86C3131.69 1084.35 3137.68 1051.4 3139.05 1021.4Z" fill="url(#paint3_radial)"/>
<path opacity="0.6" d="M366.449 1158.4C507.432 1158.4 621.722 1044.11 621.722 903.13C621.722 762.147 507.432 647.857 366.449 647.857C225.466 647.857 111.176 762.147 111.176 903.13C111.176 1044.11 225.466 1158.4 366.449 1158.4Z" fill="url(#paint4_radial)"/>
<path d="M1125.68 564.978C1094.38 493.519 819.53 542.408 476.68 672.818C486.26 677.408 495.5 682.578 504.37 688.298C781.47 583.939 995.83 539.808 1017.41 589.099C1038.32 636.849 872.14 758.119 621.18 886.478C551.17 922.298 474.55 958.667 393.55 994.148C320.71 1026.06 249.73 1054.88 182.5 1080.13C117.76 1104.45 56.48 1125.45 0.339966 1142.73V1212.02C75.97 1189.5 158.54 1161.25 245.26 1127.86C302.16 1105.96 360.84 1081.85 420.52 1055.71C488.18 1026.07 553.05 995.609 614.17 964.988C938.2 802.638 1156.73 635.869 1125.68 564.978ZM122.87 826.558C80.24 847.468 39.29 868.507 0.339966 889.439V916.757C36.52 897.218 74.95 877.359 115.27 857.417C117.16 846.898 119.71 836.587 122.87 826.558Z" fill="url(#paint5_radial)"/>
<path d="M1277.56 2263.87C1279.4 2263.87 1280.9 2262.38 1280.9 2260.54C1280.9 2258.7 1279.4 2257.21 1277.56 2257.21C1275.72 2257.21 1274.23 2258.7 1274.23 2260.54C1274.23 2262.38 1275.72 2263.87 1277.56 2263.87Z" fill="white"/>
<path d="M2205.48 2450.36C2207.32 2450.36 2208.82 2448.87 2208.82 2447.03C2208.82 2445.19 2207.32 2443.69 2205.48 2443.69C2203.64 2443.69 2202.15 2445.19 2202.15 2447.03C2202.15 2448.87 2203.64 2450.36 2205.48 2450.36Z" fill="white"/>
<path d="M411.637 2341.81C413.478 2341.81 414.971 2340.31 414.971 2338.47C414.971 2336.63 413.478 2335.14 411.637 2335.14C409.796 2335.14 408.303 2336.63 408.303 2338.47C408.303 2340.31 409.796 2341.81 411.637 2341.81Z" fill="white"/>
<path d="M1253.43 2288.47C1254.6 2288.47 1255.55 2287.52 1255.55 2286.35C1255.55 2285.19 1254.6 2284.24 1253.43 2284.24C1252.26 2284.24 1251.32 2285.19 1251.32 2286.35C1251.32 2287.52 1252.26 2288.47 1253.43 2288.47Z" fill="white"/>
<path d="M1371.83 2495.75C1373.53 2495.75 1374.91 2494.37 1374.91 2492.67C1374.91 2490.96 1373.53 2489.59 1371.83 2489.59C1370.13 2489.59 1368.75 2490.96 1368.75 2492.67C1368.75 2494.37 1370.13 2495.75 1371.83 2495.75Z" fill="white"/>
<path d="M1848 2522.21C1849.71 2522.21 1851.08 2520.83 1851.08 2519.12C1851.08 2517.42 1849.71 2516.04 1848 2516.04C1846.3 2516.04 1844.92 2517.42 1844.92 2519.12C1844.92 2520.83 1846.3 2522.21 1848 2522.21Z" fill="white"/>
<path d="M2903.65 2267.71C2905.36 2267.71 2906.73 2266.33 2906.73 2264.63C2906.73 2262.92 2905.36 2261.55 2903.65 2261.55C2901.95 2261.55 2900.57 2262.92 2900.57 2264.63C2900.57 2266.33 2901.95 2267.71 2903.65 2267.71Z" fill="white"/>
<path d="M2956.19 2279.47C2957.25 2279.47 2958.11 2278.61 2958.11 2277.55C2958.11 2276.49 2957.25 2275.63 2956.19 2275.63C2955.13 2275.63 2954.27 2276.49 2954.27 2277.55C2954.27 2278.61 2955.13 2279.47 2956.19 2279.47Z" fill="white"/>
<path d="M3142.64 2455.9C3143.7 2455.9 3144.56 2455.04 3144.56 2453.98C3144.56 2452.92 3143.7 2452.06 3142.64 2452.06C3141.58 2452.06 3140.72 2452.92 3140.72 2453.98C3140.72 2455.04 3141.58 2455.9 3142.64 2455.9Z" fill="white"/>
<path d="M873.901 2504.05C874.961 2504.05 875.821 2503.19 875.821 2502.13C875.821 2501.07 874.961 2500.21 873.901 2500.21C872.841 2500.21 871.981 2501.07 871.981 2502.13C871.981 2503.19 872.841 2504.05 873.901 2504.05Z" fill="white"/>
<path d="M615.901 2246.05C616.961 2246.05 617.821 2245.19 617.821 2244.13C617.821 2243.07 616.961 2242.21 615.901 2242.21C614.841 2242.21 613.981 2243.07 613.981 2244.13C613.981 2245.19 614.841 2246.05 615.901 2246.05Z" fill="white"/>
<path d="M2929.64 2423.13C2930.51 2423.13 2931.22 2422.42 2931.22 2421.55C2931.22 2420.69 2930.51 2419.98 2929.64 2419.98C2928.77 2419.98 2928.07 2420.69 2928.07 2421.55C2928.07 2422.42 2928.77 2423.13 2929.64 2423.13Z" fill="white"/>
<path d="M2232.33 2501.78C2233.2 2501.78 2233.9 2501.07 2233.9 2500.21C2233.9 2499.34 2233.2 2498.63 2232.33 2498.63C2231.46 2498.63 2230.76 2499.34 2230.76 2500.21C2230.76 2501.07 2231.46 2501.78 2232.33 2501.78Z" fill="white"/>
<path d="M3154.25 2193.03C3154.77 2193.03 3155.19 2192.6 3155.19 2192.08C3155.19 2191.55 3154.77 2191.13 3154.25 2191.13C3153.72 2191.13 3153.3 2191.55 3153.3 2192.08C3153.3 2192.6 3153.72 2193.03 3154.25 2193.03Z" fill="white"/>
<path d="M3304.24 2440.88C3304.76 2440.88 3305.19 2440.45 3305.19 2439.93C3305.19 2439.41 3304.76 2438.98 3304.24 2438.98C3303.72 2438.98 3303.29 2439.41 3303.29 2439.93C3303.29 2440.45 3303.72 2440.88 3304.24 2440.88Z" fill="white"/>
<path d="M2742.06 2294.13C2742.58 2294.13 2743.01 2293.7 2743.01 2293.18C2743.01 2292.66 2742.58 2292.23 2742.06 2292.23C2741.53 2292.23 2741.11 2292.66 2741.11 2293.18C2741.11 2293.7 2741.53 2294.13 2742.06 2294.13Z" fill="white"/>
<path d="M3024.18 2362.43C3024.71 2362.43 3025.13 2362.01 3025.13 2361.48C3025.13 2360.96 3024.71 2360.53 3024.18 2360.53C3023.66 2360.53 3023.24 2360.96 3023.24 2361.48C3023.24 2362.01 3023.66 2362.43 3024.18 2362.43Z" fill="white"/>
<path d="M2947.56 2439.93C2948.08 2439.93 2948.51 2439.51 2948.51 2438.98C2948.51 2438.46 2948.08 2438.03 2947.56 2438.03C2947.03 2438.03 2946.61 2438.46 2946.61 2438.98C2946.61 2439.51 2947.03 2439.93 2947.56 2439.93Z" fill="white"/>
<path d="M1197.27 1873.72C1198.97 1873.72 1200.35 1872.34 1200.35 1870.64C1200.35 1868.93 1198.97 1867.56 1197.27 1867.56C1195.57 1867.56 1194.19 1868.93 1194.19 1870.64C1194.19 1872.34 1195.57 1873.72 1197.27 1873.72Z" fill="white"/>
<path d="M1144.74 1859.64C1145.8 1859.64 1146.66 1858.78 1146.66 1857.72C1146.66 1856.66 1145.8 1855.8 1144.74 1855.8C1143.68 1855.8 1142.82 1856.66 1142.82 1857.72C1142.82 1858.78 1143.68 1859.64 1144.74 1859.64Z" fill="white"/>
<path d="M892.388 1476.44C893.448 1476.44 894.308 1475.58 894.308 1474.52C894.308 1473.45 893.448 1472.59 892.388 1472.59C891.328 1472.59 890.468 1473.45 890.468 1474.52C890.468 1475.58 891.328 1476.44 892.388 1476.44Z" fill="white"/>
<path d="M3161.13 1428.29C3162.19 1428.29 3163.05 1427.43 3163.05 1426.37C3163.05 1425.31 3162.19 1424.45 3161.13 1424.45C3160.07 1424.45 3159.21 1425.31 3159.21 1426.37C3159.21 1427.43 3160.07 1428.29 3161.13 1428.29Z" fill="white"/>
<path d="M3083.49 1507.29C3084.55 1507.29 3085.41 1506.43 3085.41 1505.37C3085.41 1504.31 3084.55 1503.45 3083.49 1503.45C3082.43 1503.45 3081.57 1504.31 3081.57 1505.37C3081.57 1506.43 3082.43 1507.29 3083.49 1507.29Z" fill="white"/>
<path d="M1105.39 1508.52C1106.26 1508.52 1106.96 1507.81 1106.96 1506.94C1106.96 1506.07 1106.26 1505.37 1105.39 1505.37C1104.52 1505.37 1103.81 1506.07 1103.81 1506.94C1103.81 1507.81 1104.52 1508.52 1105.39 1508.52Z" fill="white"/>
<path d="M880.785 1737.37C881.308 1737.37 881.733 1736.94 881.733 1736.42C881.733 1735.9 881.308 1735.47 880.785 1735.47C880.261 1735.47 879.837 1735.9 879.837 1736.42C879.837 1736.94 880.261 1737.37 880.785 1737.37Z" fill="white"/>
<path d="M730.791 1489.52C731.315 1489.52 731.739 1489.09 731.739 1488.57C731.739 1488.04 731.315 1487.62 730.791 1487.62C730.267 1487.62 729.843 1488.04 729.843 1488.57C729.843 1489.09 730.267 1489.52 730.791 1489.52Z" fill="white"/>
<path d="M2660.12 2016.2C2661.82 2016.2 2663.2 2014.83 2663.2 2013.12C2663.2 2011.42 2661.82 2010.05 2660.12 2010.05C2658.42 2010.05 2657.04 2011.42 2657.04 2013.12C2657.04 2014.83 2658.42 2016.2 2660.12 2016.2Z" fill="white"/>
<path d="M1010.85 1567.96C1011.37 1567.96 1011.8 1567.54 1011.8 1567.02C1011.8 1566.49 1011.37 1566.07 1010.85 1566.07C1010.32 1566.07 1009.9 1566.49 1009.9 1567.02C1009.9 1567.54 1010.32 1567.96 1010.85 1567.96Z" fill="white"/>
<path d="M1087.47 1490.46C1088 1490.46 1088.42 1490.04 1088.42 1489.52C1088.42 1488.99 1088 1488.57 1087.47 1488.57C1086.95 1488.57 1086.53 1488.99 1086.53 1489.52C1086.53 1490.04 1086.95 1490.46 1087.47 1490.46Z" fill="white"/>
<path d="M1632.82 2245.22C1633.34 2245.22 1633.77 2244.79 1633.77 2244.27C1633.77 2243.74 1633.34 2243.32 1632.82 2243.32C1632.3 2243.32 1631.87 2243.74 1631.87 2244.27C1631.87 2244.79 1632.3 2245.22 1632.82 2245.22Z" fill="white"/>
<path d="M1090.82 2181.35C1092.52 2181.35 1093.9 2179.97 1093.9 2178.27C1093.9 2176.57 1092.52 2175.19 1090.82 2175.19C1089.12 2175.19 1087.74 2176.57 1087.74 2178.27C1087.74 2179.97 1089.12 2181.35 1090.82 2181.35Z" fill="white"/>
<path d="M3116 857.208C3117.98 857.208 3119.59 855.601 3119.59 853.619C3119.59 851.637 3117.98 850.03 3116 850.03C3114.02 850.03 3112.41 851.637 3112.41 853.619C3112.41 855.601 3114.02 857.208 3116 857.208Z" fill="white"/>
<path d="M994.536 1486.95C996.518 1486.95 998.125 1485.34 998.125 1483.36C998.125 1481.38 996.518 1479.77 994.536 1479.77C992.554 1479.77 990.947 1481.38 990.947 1483.36C990.947 1485.34 992.554 1486.95 994.536 1486.95Z" fill="white"/>
<path d="M3362.39 935.94C3364.37 935.94 3365.98 934.333 3365.98 932.351C3365.98 930.369 3364.37 928.762 3362.39 928.762C3360.4 928.762 3358.8 930.369 3358.8 932.351C3358.8 934.333 3360.4 935.94 3362.39 935.94Z" fill="white"/>
<path d="M3458.59 1015.03C3461.4 1015.03 3463.68 1012.75 3463.68 1009.94C3463.68 1007.13 3461.4 1004.85 3458.59 1004.85C3455.78 1004.85 3453.5 1007.13 3453.5 1009.94C3453.5 1012.75 3455.78 1015.03 3458.59 1015.03Z" fill="white"/>
<path d="M3165.95 867.446C3167.24 867.446 3168.28 866.399 3168.28 865.107C3168.28 863.815 3167.24 862.768 3165.95 862.768C3164.65 862.768 3163.61 863.815 3163.61 865.107C3163.61 866.399 3164.65 867.446 3165.95 867.446Z" fill="white"/>
<path d="M2819.32 1414.24C2820.61 1414.24 2821.66 1413.2 2821.66 1411.91C2821.66 1410.61 2820.61 1409.57 2819.32 1409.57C2818.03 1409.57 2816.98 1410.61 2816.98 1411.91C2816.98 1413.2 2818.03 1414.24 2819.32 1414.24Z" fill="white"/>
<path d="M1019.23 1582.23C1020.52 1582.23 1021.57 1581.18 1021.57 1579.89C1021.57 1578.6 1020.52 1577.55 1019.23 1577.55C1017.94 1577.55 1016.89 1578.6 1016.89 1579.89C1016.89 1581.18 1017.94 1582.23 1019.23 1582.23Z" fill="white"/>
<path d="M619.382 1540.18C620.674 1540.18 621.721 1539.13 621.721 1537.84C621.721 1536.55 620.674 1535.5 619.382 1535.5C618.09 1535.5 617.043 1536.55 617.043 1537.84C617.043 1539.13 618.09 1540.18 619.382 1540.18Z" fill="white"/>
<path d="M566.816 1169.6C568.108 1169.6 569.155 1168.55 569.155 1167.26C569.155 1165.97 568.108 1164.92 566.816 1164.92C565.524 1164.92 564.477 1165.97 564.477 1167.26C564.477 1168.55 565.524 1169.6 566.816 1169.6Z" fill="white"/>
<path d="M627.417 2184.66C629.488 2184.66 631.167 2182.98 631.167 2180.91C631.167 2178.83 629.488 2177.16 627.417 2177.16C625.346 2177.16 623.667 2178.83 623.667 2180.91C623.667 2182.98 625.346 2184.66 627.417 2184.66Z" fill="white"/>
<path opacity="0.5" d="M1773.85 2391.88L889.004 2390.94L889.007 2388.53L1773.85 2389.47L1773.85 2391.88Z" fill="url(#paint6_radial)"/>
<path opacity="0.5" d="M1268.66 2741.32L1405.09 1953.95L1410.66 1954.92L1274.23 2742.29L1268.66 2741.32Z" fill="url(#paint7_radial)"/>
<path opacity="0.3" d="M1762.29 2490.71L900.031 2292.04L900.571 2289.7L1762.83 2488.37L1762.29 2490.71Z" fill="url(#paint8_radial)"/>
<path d="M1331.43 2396.71C1335.02 2396.71 1337.93 2393.79 1337.93 2390.21C1337.93 2386.62 1335.02 2383.71 1331.43 2383.71C1327.84 2383.71 1324.93 2386.62 1324.93 2390.21C1324.93 2393.79 1327.84 2396.71 1331.43 2396.71Z" fill="white"/>
<path d="M891 2294.16C896.154 2294.16 900.333 2289.98 900.333 2284.82C900.333 2279.67 896.154 2275.49 891 2275.49C885.846 2275.49 881.667 2279.67 881.667 2284.82C881.667 2289.98 885.846 2294.16 891 2294.16Z" fill="white"/>
<path d="M523 2222.66C528.154 2222.66 532.333 2218.48 532.333 2213.32C532.333 2208.17 528.154 2203.99 523 2203.99C517.846 2203.99 513.667 2208.17 513.667 2213.32C513.667 2218.48 517.846 2222.66 523 2222.66Z" fill="white"/>
<g opacity="0.5">
<path opacity="0.6" d="M3789 253.988L3529.23 403.538L3512.4 404.358C3512.59 403.337 3512.53 402.006 3511.73 400.538C3510.72 398.667 3509.29 398.007 3508.23 397.788L3518.06 383.208L3789 253.988Z" fill="white"/>
<path opacity="0.5" d="M3497.55 439.253L3496.66 437.614C3496.66 437.614 3495.09 437.821 3480.24 441.962C3465.4 446.101 3465.46 441.599 3432 445.858C3427.36 446.448 3422.49 447.458 3417.54 448.762C3416.87 448.938 3416.2 449.119 3415.53 449.305C3393.79 455.346 3370.98 466.659 3360.07 472.545C3355.35 473.285 3349.05 475.549 3349.05 475.549C3352.93 476.604 3356.62 475.68 3358.09 475.371C3370.57 472.758 3385.77 472.471 3403.75 470.021C3404.89 469.865 3406.05 469.701 3407.21 469.527C3411.52 468.882 3415.98 468.103 3420.6 467.131C3448.42 461.269 3497.55 439.253 3497.55 439.253Z" fill="url(#paint9_linear)"/>
<path opacity="0.5" d="M3511.51 406.496L3506.76 397.707L3499.7 399.695L3481.6 404.796L3487.28 426.144L3505.86 411.076L3511.51 406.496Z" fill="url(#paint10_linear)"/>
<path opacity="0.5" d="M3485.32 427.984L3493.31 423.658C3493.31 423.658 3499.71 418.631 3499.51 410.715C3499.32 402.799 3495.87 399.227 3495.87 399.227L3489.78 397.414L3485.32 427.984Z" fill="url(#paint11_linear)"/>
<path opacity="0.5" d="M3511.51 406.496C3511.51 406.496 3513.56 403.908 3511.73 400.541C3509.91 397.174 3506.76 397.707 3506.76 397.707L3499.7 399.695C3499.7 399.695 3503.68 399.254 3506.04 403.623C3508.4 407.988 3505.86 411.076 3505.86 411.076L3511.51 406.496Z" fill="url(#paint12_linear)"/>
<path opacity="0.5" d="M3325.86 475.57L3490.13 386.654L3496.53 388.56L3488.21 437.65L3325.53 481.955L3325.86 475.57Z" fill="url(#paint13_linear)"/>
<path opacity="0.5" d="M3505.51 434.943L3504.63 433.304C3504.63 433.304 3503.06 433.511 3488.21 437.65C3473.36 441.791 3473.43 437.287 3439.97 441.548C3436.39 442.001 3432.68 442.71 3428.91 443.611C3427.41 443.968 3425.91 444.357 3424.4 444.771C3400.58 451.304 3375.46 464.468 3365.83 469.785C3361.68 472.031 3354.61 474.031 3353.63 474.301C3368.16 470.373 3392.87 469.028 3417.25 464.944C3419.27 464.606 3421.3 464.249 3423.31 463.87C3425.07 463.536 3426.82 463.19 3428.56 462.821C3456.38 456.957 3505.51 434.943 3505.51 434.943Z" fill="url(#paint14_linear)"/>
<path opacity="0.5" d="M3478.7 387.429L3331.08 467.332L3329.83 473.419L3485.7 389.048L3478.7 387.429Z" fill="url(#paint15_linear)"/>
<path opacity="0.5" d="M3325.53 481.955L3360.3 463.132L3362.39 455.796L3325.86 475.57L3325.53 481.955Z" fill="url(#paint16_linear)"/>
<path opacity="0.5" d="M3329.83 473.419L3364.6 454.597L3367.61 447.56L3331.08 467.332L3329.83 473.419Z" fill="url(#paint17_linear)"/>
</g>
<defs>
<radialGradient id="paint0_radial" cx="0" cy="0" r="1" gradientUnits="userSpaceOnUse" gradientTransform="translate(1599.33 1619.73) scale(2730.91)">
<stop stop-color="#FFFFF6"/>
<stop offset="0.0197" stop-color="#F6FFF4" stop-opacity="0.9803"/>
<stop offset="0.124" stop-color="#CEFFED" stop-opacity="0.876"/>
<stop offset="0.2349" stop-color="#ABFFE7" stop-opacity="0.7651"/>
<stop offset="0.352" stop-color="#8FFFE2" stop-opacity="0.648"/>
<stop offset="0.4772" stop-color="#79FFDE" stop-opacity="0.5228"/>
<stop offset="0.6143" stop-color="#6AFFDB" stop-opacity="0.3857"/>
<stop offset="0.7724" stop-color="#61FFDA" stop-opacity="0.2276"/>
<stop offset="1" stop-color="#5EFFD9" stop-opacity="0"/>
</radialGradient>
<radialGradient id="paint1_radial" cx="0" cy="0" r="1" gradientUnits="userSpaceOnUse" gradientTransform="translate(1694.98 1980.44) rotate(-35.0235) scale(1249.34 1198.84)">
<stop stop-color="#53FFFF"/>
<stop offset="0.1292" stop-color="#34C7DC"/>
<stop offset="0.2823" stop-color="#118BB6"/>
<stop offset="0.3555" stop-color="#0473A7"/>
<stop offset="0.4186" stop-color="#05608F"/>
<stop offset="0.5494" stop-color="#063E65"/>
<stop offset="0.6763" stop-color="#072443"/>
<stop offset="0.7966" stop-color="#07112B"/>
<stop offset="0.9074" stop-color="#08051C"/>
<stop offset="1" stop-color="#080117"/>
</radialGradient>
<radialGradient id="paint2_radial" cx="0" cy="0" r="1" gradientUnits="userSpaceOnUse" gradientTransform="translate(3059.35 300.692) rotate(-16.882) scale(1249.35 1198.84)">
<stop stop-color="#53FFFF"/>
<stop offset="0.1292" stop-color="#34C7DC"/>
<stop offset="0.2823" stop-color="#118BB6"/>
<stop offset="0.3555" stop-color="#0473A7"/>
<stop offset="0.4186" stop-color="#05608F"/>
<stop offset="0.5494" stop-color="#063E65"/>
<stop offset="0.6763" stop-color="#072443"/>
<stop offset="0.7966" stop-color="#07112B"/>
<stop offset="0.9074" stop-color="#08051C"/>
<stop offset="1" stop-color="#080117"/>
</radialGradient>
<radialGradient id="paint3_radial" cx="0" cy="0" r="1" gradientUnits="userSpaceOnUse" gradientTransform="translate(3422.78 143.234) rotate(18.1432) scale(2090.81)">
<stop stop-color="#FFFFF6"/>
<stop offset="0.0197" stop-color="#F6FFF4" stop-opacity="0.9803"/>
<stop offset="0.124" stop-color="#CEFFED" stop-opacity="0.876"/>
<stop offset="0.2349" stop-color="#ABFFE7" stop-opacity="0.7651"/>
<stop offset="0.352" stop-color="#8FFFE2" stop-opacity="0.648"/>
<stop offset="0.4772" stop-color="#79FFDE" stop-opacity="0.5228"/>
<stop offset="0.6143" stop-color="#6AFFDB" stop-opacity="0.3857"/>
<stop offset="0.7724" stop-color="#61FFDA" stop-opacity="0.2276"/>
<stop offset="1" stop-color="#5EFFD9" stop-opacity="0"/>
</radialGradient>
<radialGradient id="paint4_radial" cx="0" cy="0" r="1" gradientUnits="userSpaceOnUse" gradientTransform="translate(2553.23 704.041) scale(3225.58)">
<stop stop-color="#53FFFF"/>
<stop offset="0.1292" stop-color="#34C7DC"/>
<stop offset="0.2823" stop-color="#118BB6"/>
<stop offset="0.3555" stop-color="#0473A7"/>
<stop offset="0.4186" stop-color="#05608F"/>
<stop offset="0.5494" stop-color="#063E65"/>
<stop offset="0.6763" stop-color="#072443"/>
<stop offset="0.7966" stop-color="#07112B"/>
<stop offset="0.9074" stop-color="#08051C"/>
<stop offset="1" stop-color="#080117"/>
</radialGradient>
<radialGradient id="paint5_radial" cx="0" cy="0" r="1" gradientUnits="userSpaceOnUse" gradientTransform="translate(657.741 -298.418) rotate(-23.653) scale(2198.28)">
<stop stop-color="#7EFFFF"/>
<stop offset="1" stop-color="#3984FF" stop-opacity="0"/>
</radialGradient>
<radialGradient id="paint6_radial" cx="0" cy="0" r="1" gradientUnits="userSpaceOnUse" gradientTransform="translate(1331.43 2390.2) rotate(0.0616381) scale(312.871 62.3987)">
<stop stop-color="#0088EF"/>
<stop offset="0.1696" stop-color="#1DA0F4" stop-opacity="0.8304"/>
<stop offset="0.3744" stop-color="#38B7F9" stop-opacity="0.6256"/>
<stop offset="0.5812" stop-color="#4CC7FC" stop-opacity="0.4188"/>
<stop offset="0.7891" stop-color="#58D1FE" stop-opacity="0.2109"/>
<stop offset="1" stop-color="#5CD4FF" stop-opacity="0"/>
</radialGradient>
<radialGradient id="paint7_radial" cx="0" cy="0" r="1" gradientUnits="userSpaceOnUse" gradientTransform="translate(1339.53 2348.09) rotate(99.9499) scale(196.883 109.97)">
<stop stop-color="#0088EF"/>
<stop offset="0.1696" stop-color="#1DA0F4" stop-opacity="0.8304"/>
<stop offset="0.3744" stop-color="#38B7F9" stop-opacity="0.6256"/>
<stop offset="0.5812" stop-color="#4CC7FC" stop-opacity="0.4188"/>
<stop offset="0.7891" stop-color="#58D1FE" stop-opacity="0.2109"/>
<stop offset="1" stop-color="#5CD4FF" stop-opacity="0"/>
</radialGradient>
<radialGradient id="paint8_radial" cx="0" cy="0" r="1" gradientUnits="userSpaceOnUse" gradientTransform="translate(1331.43 2390.2) rotate(12.9764) scale(312.871 62.3856)">
<stop stop-color="#0088EF"/>
<stop offset="0.1696" stop-color="#1DA0F4" stop-opacity="0.8304"/>
<stop offset="0.3744" stop-color="#38B7F9" stop-opacity="0.6256"/>
<stop offset="0.5812" stop-color="#4CC7FC" stop-opacity="0.4188"/>
<stop offset="0.7891" stop-color="#58D1FE" stop-opacity="0.2109"/>
<stop offset="1" stop-color="#5CD4FF" stop-opacity="0"/>
</radialGradient>
<linearGradient id="paint9_linear" x1="3386.51" y1="389.432" x2="3393.28" y2="401.949" gradientUnits="userSpaceOnUse">
<stop stop-color="#1E3250"/>
<stop offset="1" stop-color="#080117"/>
</linearGradient>
<linearGradient id="paint10_linear" x1="3532.99" y1="419.375" x2="3303.06" y2="371.753" gradientUnits="userSpaceOnUse">
<stop stop-color="#1E3250"/>
<stop offset="1" stop-color="#080117"/>
</linearGradient>
<linearGradient id="paint11_linear" x1="3325.95" y1="500.167" x2="3647.34" y2="326.208" gradientUnits="userSpaceOnUse">
<stop stop-color="#1E3250"/>
<stop offset="1" stop-color="#080117"/>
</linearGradient>
<linearGradient id="paint12_linear" x1="3554.07" y1="414.163" x2="3450.24" y2="392.658" gradientUnits="userSpaceOnUse">
<stop stop-color="#1E3250"/>
<stop offset="1" stop-color="#080117"/>
</linearGradient>
<linearGradient id="paint13_linear" x1="3568.57" y1="369.175" x2="3167.39" y2="586.325" gradientUnits="userSpaceOnUse">
<stop stop-color="#1E3250"/>
<stop offset="1" stop-color="#080117"/>
</linearGradient>
<linearGradient id="paint14_linear" x1="3390.64" y1="382.702" x2="3400.48" y2="400.866" gradientUnits="userSpaceOnUse">
<stop stop-color="#1E3250"/>
<stop offset="1" stop-color="#080117"/>
</linearGradient>
<linearGradient id="paint15_linear" x1="3898.46" y1="532.776" x2="2846.94" y2="314.992" gradientUnits="userSpaceOnUse">
<stop stop-color="#1E3250"/>
<stop offset="1" stop-color="#080117"/>
</linearGradient>
<linearGradient id="paint16_linear" x1="3528.8" y1="507.156" x2="3282.39" y2="456.121" gradientUnits="userSpaceOnUse">
<stop stop-color="#1E3250"/>
<stop offset="1" stop-color="#080117"/>
</linearGradient>
<linearGradient id="paint17_linear" x1="3509.52" y1="493.79" x2="3263.1" y2="442.754" gradientUnits="userSpaceOnUse">
<stop stop-color="#1E3250"/>
<stop offset="1" stop-color="#080117"/>
</linearGradient>
</defs>
</svg>
