<svg width="3841" height="1814" viewBox="0 0 3841 1814" fill="none" xmlns="http://www.w3.org/2000/svg">
<path d="M3840.33 828.335V1808.86C3817.11 1812.2 3793.37 1813.92 3769.23 1813.92C3495.66 1813.92 3273.9 1592.15 3273.9 1318.59C3273.9 1045.03 3495.66 823.266 3769.23 823.266C3793.37 823.267 3817.11 824.992 3840.33 828.335Z" fill="url(#paint0_radial)"/>
<path opacity="0.2" d="M3319.27 780.941C3354.97 780.941 3383.91 752 3383.91 716.3C3383.91 680.6 3354.97 651.659 3319.27 651.659C3283.57 651.659 3254.63 680.6 3254.63 716.3C3254.63 752 3283.57 780.941 3319.27 780.941Z" fill="url(#paint1_radial)"/>
<path opacity="0.6" d="M3030.55 682.31C3100.68 682.31 3157.52 625.466 3157.52 555.345C3157.52 485.224 3100.68 428.38 3030.55 428.38C2960.43 428.38 2903.59 485.224 2903.59 555.345C2903.59 625.466 2960.43 682.31 3030.55 682.31Z" fill="url(#paint2_radial)"/>
<path d="M3139.05 489.398C3142.06 423.498 3122.8 371.8 3085.21 359.486C3042.28 345.42 2988.21 386.925 2949.96 457.22C2951.32 456.099 2952.72 455.011 2954.14 453.95C2991.47 388.079 3042.94 349.686 3084.01 363.143C3120.03 374.944 3138.9 423.622 3137 486.137C3136.07 516.76 3130.16 550.696 3118.84 585.248C3107.83 618.85 3093.02 648.969 3076.24 673.809C3040.54 726.637 2995.83 755.627 2959.33 743.668C2917.78 730.055 2899.06 667.377 2908.7 591.014C2908.2 589.315 2907.73 587.612 2907.3 585.893C2895.76 666.362 2914.73 733.116 2958.13 747.334C2996.19 759.805 3043.01 728.596 3079.8 672.373C3095.87 647.797 3110.03 618.437 3120.71 585.861C3131.69 552.347 3137.68 519.402 3139.05 489.398Z" fill="url(#paint3_radial)"/>
<path opacity="0.6" d="M366.449 626.403C507.432 626.403 621.722 512.113 621.722 371.13C621.722 230.147 507.432 115.857 366.449 115.857C225.466 115.857 111.176 230.147 111.176 371.13C111.176 512.113 225.466 626.403 366.449 626.403Z" fill="url(#paint4_radial)"/>
<path d="M1125.68 32.978C1094.38 -38.481 819.53 10.408 476.68 140.818C486.26 145.408 495.5 150.578 504.37 156.298C781.47 51.9389 995.83 7.80798 1017.41 57.099C1038.32 104.849 872.14 226.119 621.18 354.478C551.17 390.298 474.55 426.667 393.55 462.148C320.71 494.058 249.73 522.878 182.5 548.128C117.76 572.448 56.48 593.448 0.339966 610.728V680.019C75.97 657.498 158.54 629.248 245.26 595.859C302.16 573.959 360.84 549.849 420.52 523.709C488.18 494.068 553.05 463.609 614.17 432.988C938.2 270.638 1156.73 103.869 1125.68 32.978ZM122.87 294.558C80.24 315.468 39.29 336.507 0.339966 357.439V384.757C36.52 365.218 74.95 345.359 115.27 325.417C117.16 314.898 119.71 304.587 122.87 294.558Z" fill="url(#paint5_radial)"/>
<defs>
<radialGradient id="paint0_radial" cx="0" cy="0" r="1" gradientUnits="userSpaceOnUse" gradientTransform="translate(1599.33 1087.73) scale(2730.91)">
<stop stop-color="#FFFFF6"/>
<stop offset="0.0197" stop-color="#F6FFF4" stop-opacity="0.9803"/>
<stop offset="0.124" stop-color="#CEFFED" stop-opacity="0.876"/>
<stop offset="0.2349" stop-color="#ABFFE7" stop-opacity="0.7651"/>
<stop offset="0.352" stop-color="#8FFFE2" stop-opacity="0.648"/>
<stop offset="0.4772" stop-color="#79FFDE" stop-opacity="0.5228"/>
<stop offset="0.6143" stop-color="#6AFFDB" stop-opacity="0.3857"/>
<stop offset="0.7724" stop-color="#61FFDA" stop-opacity="0.2276"/>
<stop offset="1" stop-color="#5EFFD9" stop-opacity="0"/>
</radialGradient>
<radialGradient id="paint1_radial" cx="0" cy="0" r="1" gradientUnits="userSpaceOnUse" gradientTransform="translate(1694.98 1448.44) rotate(-35.0235) scale(1249.34 1198.84)">
<stop stop-color="#53FFFF"/>
<stop offset="0.1292" stop-color="#34C7DC"/>
<stop offset="0.2823" stop-color="#118BB6"/>
<stop offset="0.3555" stop-color="#0473A7"/>
<stop offset="0.4186" stop-color="#05608F"/>
<stop offset="0.5494" stop-color="#063E65"/>
<stop offset="0.6763" stop-color="#072443"/>
<stop offset="0.7966" stop-color="#07112B"/>
<stop offset="0.9074" stop-color="#08051C"/>
<stop offset="1" stop-color="#080117"/>
</radialGradient>
<radialGradient id="paint2_radial" cx="0" cy="0" r="1" gradientUnits="userSpaceOnUse" gradientTransform="translate(3059.35 -231.308) rotate(-16.882) scale(1249.35 1198.84)">
<stop stop-color="#53FFFF"/>
<stop offset="0.1292" stop-color="#34C7DC"/>
<stop offset="0.2823" stop-color="#118BB6"/>
<stop offset="0.3555" stop-color="#0473A7"/>
<stop offset="0.4186" stop-color="#05608F"/>
<stop offset="0.5494" stop-color="#063E65"/>
<stop offset="0.6763" stop-color="#072443"/>
<stop offset="0.7966" stop-color="#07112B"/>
<stop offset="0.9074" stop-color="#08051C"/>
<stop offset="1" stop-color="#080117"/>
</radialGradient>
<radialGradient id="paint3_radial" cx="0" cy="0" r="1" gradientUnits="userSpaceOnUse" gradientTransform="translate(3422.78 -388.766) rotate(18.1432) scale(2090.81)">
<stop stop-color="#FFFFF6"/>
<stop offset="0.0197" stop-color="#F6FFF4" stop-opacity="0.9803"/>
<stop offset="0.124" stop-color="#CEFFED" stop-opacity="0.876"/>
<stop offset="0.2349" stop-color="#ABFFE7" stop-opacity="0.7651"/>
<stop offset="0.352" stop-color="#8FFFE2" stop-opacity="0.648"/>
<stop offset="0.4772" stop-color="#79FFDE" stop-opacity="0.5228"/>
<stop offset="0.6143" stop-color="#6AFFDB" stop-opacity="0.3857"/>
<stop offset="0.7724" stop-color="#61FFDA" stop-opacity="0.2276"/>
<stop offset="1" stop-color="#5EFFD9" stop-opacity="0"/>
</radialGradient>
<radialGradient id="paint4_radial" cx="0" cy="0" r="1" gradientUnits="userSpaceOnUse" gradientTransform="translate(2553.23 172.041) scale(3225.58)">
<stop stop-color="#53FFFF"/>
<stop offset="0.1292" stop-color="#34C7DC"/>
<stop offset="0.2823" stop-color="#118BB6"/>
<stop offset="0.3555" stop-color="#0473A7"/>
<stop offset="0.4186" stop-color="#05608F"/>
<stop offset="0.5494" stop-color="#063E65"/>
<stop offset="0.6763" stop-color="#072443"/>
<stop offset="0.7966" stop-color="#07112B"/>
<stop offset="0.9074" stop-color="#08051C"/>
<stop offset="1" stop-color="#080117"/>
</radialGradient>
<radialGradient id="paint5_radial" cx="0" cy="0" r="1" gradientUnits="userSpaceOnUse" gradientTransform="translate(657.741 -830.418) rotate(-23.653) scale(2198.28)">
<stop stop-color="#7EFFFF"/>
<stop offset="1" stop-color="#3984FF" stop-opacity="0"/>
</radialGradient>
</defs>
</svg>
