<svg width="3056" height="1893" viewBox="0 0 3056 1893" fill="none" xmlns="http://www.w3.org/2000/svg">
<path d="M869.563 1413.87C871.404 1413.87 872.897 1412.38 872.897 1410.54C872.897 1408.7 871.404 1407.21 869.563 1407.21C867.722 1407.21 866.229 1408.7 866.229 1410.54C866.229 1412.38 867.722 1413.87 869.563 1413.87Z" fill="white"/>
<path d="M1797.48 1600.36C1799.32 1600.36 1800.82 1598.87 1800.82 1597.03C1800.82 1595.19 1799.32 1593.69 1797.48 1593.69C1795.64 1593.69 1794.15 1595.19 1794.15 1597.03C1794.15 1598.87 1795.64 1600.36 1797.48 1600.36Z" fill="white"/>
<path d="M3.63696 1491.81C5.47828 1491.81 6.97098 1490.31 6.97098 1488.47C6.97098 1486.63 5.47828 1485.14 3.63696 1485.14C1.79565 1485.14 0.302979 1486.63 0.302979 1488.47C0.302979 1490.31 1.79565 1491.81 3.63696 1491.81Z" fill="white"/>
<path d="M845.432 1438.47C846.6 1438.47 847.547 1437.52 847.547 1436.35C847.547 1435.19 846.6 1434.24 845.432 1434.24C844.264 1434.24 843.317 1435.19 843.317 1436.35C843.317 1437.52 844.264 1438.47 845.432 1438.47Z" fill="white"/>
<path d="M963.828 1645.75C965.529 1645.75 966.908 1644.37 966.908 1642.67C966.908 1640.96 965.529 1639.59 963.828 1639.59C962.127 1639.59 960.748 1640.96 960.748 1642.67C960.748 1644.37 962.127 1645.75 963.828 1645.75Z" fill="white"/>
<path d="M1440 1672.21C1441.71 1672.21 1443.08 1670.83 1443.08 1669.12C1443.08 1667.42 1441.71 1666.04 1440 1666.04C1438.3 1666.04 1436.92 1667.42 1436.92 1669.12C1436.92 1670.83 1438.3 1672.21 1440 1672.21Z" fill="white"/>
<path d="M2495.65 1417.71C2497.36 1417.71 2498.73 1416.33 2498.73 1414.63C2498.73 1412.92 2497.36 1411.55 2495.65 1411.55C2493.95 1411.55 2492.57 1412.92 2492.57 1414.63C2492.57 1416.33 2493.95 1417.71 2495.65 1417.71Z" fill="white"/>
<path d="M2548.19 1429.47C2549.25 1429.47 2550.11 1428.61 2550.11 1427.55C2550.11 1426.49 2549.25 1425.63 2548.19 1425.63C2547.13 1425.63 2546.27 1426.49 2546.27 1427.55C2546.27 1428.61 2547.13 1429.47 2548.19 1429.47Z" fill="white"/>
<path d="M2734.64 1605.9C2735.7 1605.9 2736.56 1605.04 2736.56 1603.98C2736.56 1602.92 2735.7 1602.06 2734.64 1602.06C2733.58 1602.06 2732.72 1602.92 2732.72 1603.98C2732.72 1605.04 2733.58 1605.9 2734.64 1605.9Z" fill="white"/>
<path d="M465.901 1654.05C466.961 1654.05 467.821 1653.19 467.821 1652.13C467.821 1651.07 466.961 1650.21 465.901 1650.21C464.841 1650.21 463.981 1651.07 463.981 1652.13C463.981 1653.19 464.841 1654.05 465.901 1654.05Z" fill="white"/>
<path d="M207.901 1396.05C208.961 1396.05 209.821 1395.19 209.821 1394.13C209.821 1393.07 208.961 1392.21 207.901 1392.21C206.841 1392.21 205.981 1393.07 205.981 1394.13C205.981 1395.19 206.841 1396.05 207.901 1396.05Z" fill="white"/>
<path d="M2521.64 1573.13C2522.51 1573.13 2523.22 1572.42 2523.22 1571.55C2523.22 1570.69 2522.51 1569.98 2521.64 1569.98C2520.77 1569.98 2520.07 1570.69 2520.07 1571.55C2520.07 1572.42 2520.77 1573.13 2521.64 1573.13Z" fill="white"/>
<path d="M1824.33 1651.78C1825.2 1651.78 1825.9 1651.07 1825.9 1650.21C1825.9 1649.34 1825.2 1648.63 1824.33 1648.63C1823.46 1648.63 1822.76 1649.34 1822.76 1650.21C1822.76 1651.07 1823.46 1651.78 1824.33 1651.78Z" fill="white"/>
<path d="M2746.25 1343.03C2746.77 1343.03 2747.19 1342.6 2747.19 1342.08C2747.19 1341.55 2746.77 1341.13 2746.25 1341.13C2745.72 1341.13 2745.3 1341.55 2745.3 1342.08C2745.3 1342.6 2745.72 1343.03 2746.25 1343.03Z" fill="white"/>
<path d="M2896.24 1590.88C2896.76 1590.88 2897.19 1590.45 2897.19 1589.93C2897.19 1589.41 2896.76 1588.98 2896.24 1588.98C2895.72 1588.98 2895.29 1589.41 2895.29 1589.93C2895.29 1590.45 2895.72 1590.88 2896.24 1590.88Z" fill="white"/>
<path d="M2334.06 1444.13C2334.58 1444.13 2335.01 1443.7 2335.01 1443.18C2335.01 1442.66 2334.58 1442.23 2334.06 1442.23C2333.53 1442.23 2333.11 1442.66 2333.11 1443.18C2333.11 1443.7 2333.53 1444.13 2334.06 1444.13Z" fill="white"/>
<path d="M2616.18 1512.43C2616.71 1512.43 2617.13 1512.01 2617.13 1511.48C2617.13 1510.96 2616.71 1510.53 2616.18 1510.53C2615.66 1510.53 2615.24 1510.96 2615.24 1511.48C2615.24 1512.01 2615.66 1512.43 2616.18 1512.43Z" fill="white"/>
<path d="M2539.56 1589.93C2540.08 1589.93 2540.51 1589.51 2540.51 1588.98C2540.51 1588.46 2540.08 1588.03 2539.56 1588.03C2539.03 1588.03 2538.61 1588.46 2538.61 1588.98C2538.61 1589.51 2539.03 1589.93 2539.56 1589.93Z" fill="white"/>
<path d="M789.272 1023.72C790.973 1023.72 792.352 1022.34 792.352 1020.64C792.352 1018.93 790.973 1017.56 789.272 1017.56C787.571 1017.56 786.192 1018.93 786.192 1020.64C786.192 1022.34 787.571 1023.72 789.272 1023.72Z" fill="white"/>
<path d="M736.737 1009.64C737.797 1009.64 738.657 1008.78 738.657 1007.72C738.657 1006.66 737.797 1005.8 736.737 1005.8C735.677 1005.8 734.817 1006.66 734.817 1007.72C734.817 1008.78 735.677 1009.64 736.737 1009.64Z" fill="white"/>
<path d="M484.388 626.435C485.448 626.435 486.308 625.575 486.308 624.515C486.308 623.455 485.448 622.595 484.388 622.595C483.328 622.595 482.468 623.455 482.468 624.515C482.468 625.575 483.328 626.435 484.388 626.435Z" fill="white"/>
<path d="M2753.13 578.291C2754.19 578.291 2755.05 577.431 2755.05 576.371C2755.05 575.311 2754.19 574.451 2753.13 574.451C2752.07 574.451 2751.21 575.311 2751.21 576.371C2751.21 577.431 2752.07 578.291 2753.13 578.291Z" fill="white"/>
<path d="M2675.49 657.289C2676.55 657.289 2677.41 656.429 2677.41 655.369C2677.41 654.309 2676.55 653.449 2675.49 653.449C2674.43 653.449 2673.57 654.309 2673.57 655.369C2673.57 656.429 2674.43 657.289 2675.49 657.289Z" fill="white"/>
<path d="M697.388 658.516C698.257 658.516 698.961 657.812 698.961 656.943C698.961 656.074 698.257 655.37 697.388 655.37C696.519 655.37 695.815 656.074 695.815 656.943C695.815 657.812 696.519 658.516 697.388 658.516Z" fill="white"/>
<path d="M472.785 887.367C473.308 887.367 473.733 886.943 473.733 886.419C473.733 885.895 473.308 885.471 472.785 885.471C472.261 885.471 471.837 885.895 471.837 886.419C471.837 886.943 472.261 887.367 472.785 887.367Z" fill="white"/>
<path d="M322.791 639.516C323.315 639.516 323.739 639.092 323.739 638.568C323.739 638.044 323.315 637.62 322.791 637.62C322.267 637.62 321.843 638.044 321.843 638.568C321.843 639.092 322.267 639.516 322.791 639.516Z" fill="white"/>
<path d="M2252.12 1166.2C2253.82 1166.2 2255.2 1164.83 2255.2 1163.12C2255.2 1161.42 2253.82 1160.05 2252.12 1160.05C2250.42 1160.05 2249.04 1161.42 2249.04 1163.12C2249.04 1164.83 2250.42 1166.2 2252.12 1166.2Z" fill="white"/>
<path d="M602.848 717.963C603.372 717.963 603.796 717.539 603.796 717.015C603.796 716.491 603.372 716.067 602.848 716.067C602.324 716.067 601.9 716.491 601.9 717.015C601.9 717.539 602.324 717.963 602.848 717.963Z" fill="white"/>
<path d="M679.473 640.463C679.997 640.463 680.421 640.039 680.421 639.515C680.421 638.991 679.997 638.567 679.473 638.567C678.949 638.567 678.525 638.991 678.525 639.515C678.525 640.039 678.949 640.463 679.473 640.463Z" fill="white"/>
<path d="M1224.82 1395.22C1225.34 1395.22 1225.77 1394.79 1225.77 1394.27C1225.77 1393.74 1225.34 1393.32 1224.82 1393.32C1224.3 1393.32 1223.87 1393.74 1223.87 1394.27C1223.87 1394.79 1224.3 1395.22 1224.82 1395.22Z" fill="white"/>
<path d="M682.822 1331.35C684.523 1331.35 685.902 1329.97 685.902 1328.27C685.902 1326.57 684.523 1325.19 682.822 1325.19C681.121 1325.19 679.742 1326.57 679.742 1328.27C679.742 1329.97 681.121 1331.35 682.822 1331.35Z" fill="white"/>
<path d="M2708 7.20801C2709.98 7.20801 2711.59 5.60117 2711.59 3.61902C2711.59 1.63687 2709.98 0.0300293 2708 0.0300293C2706.02 0.0300293 2704.41 1.63687 2704.41 3.61902C2704.41 5.60117 2706.02 7.20801 2708 7.20801Z" fill="white"/>
<path d="M586.536 636.95C588.518 636.95 590.125 635.343 590.125 633.361C590.125 631.379 588.518 629.772 586.536 629.772C584.554 629.772 582.947 631.379 582.947 633.361C582.947 635.343 584.554 636.95 586.536 636.95Z" fill="white"/>
<path d="M2954.39 85.94C2956.37 85.94 2957.98 84.3332 2957.98 82.351C2957.98 80.3689 2956.37 78.762 2954.39 78.762C2952.4 78.762 2950.8 80.3689 2950.8 82.351C2950.8 84.3332 2952.4 85.94 2954.39 85.94Z" fill="white"/>
<path d="M3050.59 165.03C3053.4 165.03 3055.68 162.752 3055.68 159.941C3055.68 157.13 3053.4 154.852 3050.59 154.852C3047.78 154.852 3045.5 157.13 3045.5 159.941C3045.5 162.752 3047.78 165.03 3050.59 165.03Z" fill="white"/>
<path d="M2757.95 17.446C2759.24 17.446 2760.28 16.3988 2760.28 15.107C2760.28 13.8152 2759.24 12.768 2757.95 12.768C2756.65 12.768 2755.61 13.8152 2755.61 15.107C2755.61 16.3988 2756.65 17.446 2757.95 17.446Z" fill="white"/>
<path d="M2411.32 564.245C2412.61 564.245 2413.66 563.198 2413.66 561.906C2413.66 560.614 2412.61 559.567 2411.32 559.567C2410.03 559.567 2408.98 560.614 2408.98 561.906C2408.98 563.198 2410.03 564.245 2411.32 564.245Z" fill="white"/>
<path d="M611.229 732.227C612.521 732.227 613.568 731.18 613.568 729.888C613.568 728.596 612.521 727.549 611.229 727.549C609.937 727.549 608.89 728.596 608.89 729.888C608.89 731.18 609.937 732.227 611.229 732.227Z" fill="white"/>
<path d="M211.382 690.18C212.674 690.18 213.721 689.133 213.721 687.841C213.721 686.549 212.674 685.502 211.382 685.502C210.09 685.502 209.043 686.549 209.043 687.841C209.043 689.133 210.09 690.18 211.382 690.18Z" fill="white"/>
<path d="M158.816 319.6C160.108 319.6 161.155 318.553 161.155 317.261C161.155 315.969 160.108 314.922 158.816 314.922C157.524 314.922 156.477 315.969 156.477 317.261C156.477 318.553 157.524 319.6 158.816 319.6Z" fill="white"/>
<path d="M219.417 1334.66C221.488 1334.66 223.167 1332.98 223.167 1330.91C223.167 1328.83 221.488 1327.16 219.417 1327.16C217.346 1327.16 215.667 1328.83 215.667 1330.91C215.667 1332.98 217.346 1334.66 219.417 1334.66Z" fill="white"/>
<path opacity="0.5" d="M1365.85 1541.88L481.004 1540.94L481.007 1538.53L1365.85 1539.47L1365.85 1541.88Z" fill="url(#paint0_radial)"/>
<path opacity="0.5" d="M860.658 1891.32L997.086 1103.95L1002.66 1104.92L866.229 1892.29L860.658 1891.32Z" fill="url(#paint1_radial)"/>
<path opacity="0.3" d="M1354.29 1640.71L492.031 1442.04L492.571 1439.7L1354.83 1638.37L1354.29 1640.71Z" fill="url(#paint2_radial)"/>
<path d="M923.428 1546.71C927.018 1546.71 929.928 1543.79 929.928 1540.21C929.928 1536.62 927.018 1533.71 923.428 1533.71C919.838 1533.71 916.928 1536.62 916.928 1540.21C916.928 1543.79 919.838 1546.71 923.428 1546.71Z" fill="white"/>
<path d="M483 1444.16C488.154 1444.16 492.333 1439.98 492.333 1434.82C492.333 1429.67 488.154 1425.49 483 1425.49C477.846 1425.49 473.667 1429.67 473.667 1434.82C473.667 1439.98 477.846 1444.16 483 1444.16Z" fill="white"/>
<path d="M115 1372.66C120.154 1372.66 124.333 1368.48 124.333 1363.32C124.333 1358.17 120.154 1353.99 115 1353.99C109.846 1353.99 105.667 1358.17 105.667 1363.32C105.667 1368.48 109.846 1372.66 115 1372.66Z" fill="white"/>
<defs>
<radialGradient id="paint0_radial" cx="0" cy="0" r="1" gradientUnits="userSpaceOnUse" gradientTransform="translate(923.43 1540.2) rotate(0.0616381) scale(312.871 62.3987)">
<stop stop-color="#0088EF"/>
<stop offset="0.1696" stop-color="#1DA0F4" stop-opacity="0.8304"/>
<stop offset="0.3744" stop-color="#38B7F9" stop-opacity="0.6256"/>
<stop offset="0.5812" stop-color="#4CC7FC" stop-opacity="0.4188"/>
<stop offset="0.7891" stop-color="#58D1FE" stop-opacity="0.2109"/>
<stop offset="1" stop-color="#5CD4FF" stop-opacity="0"/>
</radialGradient>
<radialGradient id="paint1_radial" cx="0" cy="0" r="1" gradientUnits="userSpaceOnUse" gradientTransform="translate(931.533 1498.09) rotate(99.9499) scale(196.883 109.97)">
<stop stop-color="#0088EF"/>
<stop offset="0.1696" stop-color="#1DA0F4" stop-opacity="0.8304"/>
<stop offset="0.3744" stop-color="#38B7F9" stop-opacity="0.6256"/>
<stop offset="0.5812" stop-color="#4CC7FC" stop-opacity="0.4188"/>
<stop offset="0.7891" stop-color="#58D1FE" stop-opacity="0.2109"/>
<stop offset="1" stop-color="#5CD4FF" stop-opacity="0"/>
</radialGradient>
<radialGradient id="paint2_radial" cx="0" cy="0" r="1" gradientUnits="userSpaceOnUse" gradientTransform="translate(923.429 1540.2) rotate(12.9764) scale(312.871 62.3856)">
<stop stop-color="#0088EF"/>
<stop offset="0.1696" stop-color="#1DA0F4" stop-opacity="0.8304"/>
<stop offset="0.3744" stop-color="#38B7F9" stop-opacity="0.6256"/>
<stop offset="0.5812" stop-color="#4CC7FC" stop-opacity="0.4188"/>
<stop offset="0.7891" stop-color="#58D1FE" stop-opacity="0.2109"/>
<stop offset="1" stop-color="#5CD4FF" stop-opacity="0"/>
</radialGradient>
</defs>
</svg>
